<?xml version="1.0" standalone="no"?>
<!DOCTYPE svg PUBLIC "-//W3C//DTD SVG 1.1//EN" "http://www.w3.org/Graphics/SVG/1.1/DTD/svg11.dtd" >
<svg xmlns="http://www.w3.org/2000/svg">
<metadata></metadata>
<defs>
<font id="yozakuraregular" horiz-adv-x="512" >
<font-face units-per-em="2048" ascent="1270" descent="-778" />
<missing-glyph horiz-adv-x="500" />
<glyph horiz-adv-x="0" />
<glyph horiz-adv-x="682" />
<glyph unicode=" " />
<glyph unicode="!" horiz-adv-x="411" d="M102 995q57 12 103 -34q20 -23 61 -64q25 -23 19 -63q-20 -88 -21 -103q0 -2 -12 -293q-1 -19 -1.5 -54t-1.5 -64t-3 -54q0 -24 -9.5 -37.5t-37.5 -13.5q-11 48 -11 51q-2 20 -19.5 153.5t-23.5 203.5q-4 45 -8 135.5t-8 136.5q-1 15 -5 30.5t-11.5 36t-10.5 33.5z M129 117q45 -4 75 -15.5t50 -42.5q5 -6 22.5 -18t22.5 -21q15 -23 8 -49q-6 -20 -45 -20q-127 6 -133 166z" />
<glyph unicode="&#x22;" horiz-adv-x="464" d="M82 1255q51 -8 68 -14q33 -12 42.5 -29.5t6.5 -60.5q-11 -99 -13 -113q-9 -53 -25 -74q-10 -12 -26 -22zM264 1262q65 21 119 -56q-7 -22 -14.5 -71.5t-21.5 -88t-44 -69.5z" />
<glyph unicode="#" horiz-adv-x="868" d="M-10 199q241 38 260 41q10 35 9.5 47t-15.5 47q-12 5 -33 -0.5t-39.5 -5t-32.5 17.5q-19 23 -27.5 35t-19 36t-12.5 50q99 4 166 8q-6 19 -16 46.5t-13 39.5q-5 38 0 41q32 14 47 2q5 -4 20.5 -15.5t23 -17.5t19.5 -16.5t21 -20t17 -20.5q17 -22 34 -25t45 9 q-1 11 -6.5 51t-7.5 66.5t0 52.5q3 35 -24 88t-31 71q110 17 188 -55q42 -37 27 -115q-6 -36 -10 -104q-3 -52 49 -55q56 -4 78 -41q-22 -39 -84 -39q-51 -3 -54 -56q-3 -48 41 -45q39 1 76 -12t84.5 -38t69.5 -34q29 -11 28.5 -32.5t-28.5 -36.5q-49 -26 -113 0 q-57 25 -86 29q-55 7 -76.5 -13t-23.5 -76q-7 -142 -17 -247q-1 -12 -4 -25.5t-7.5 -29.5t-6.5 -25q-7 1 -12.5 2.5t-9.5 3.5t-7 5l-5 5t-3.5 6.5t-2 6.5t-1 7.5t-0.5 7v8v7.5q0 174 2 262v52q-44 17 -63 6.5t-21 -50.5v-8.5v-9t-0.5 -7.5t-1.5 -8t-2.5 -6.5t-4.5 -6 t-7 -4.5t-9 -3q-38 -10 -67 27q-34 44 -56.5 47t-68.5 -29q-33 -24 -51.5 -24t-44.5 26q-7 7 -30 24t-35 33.5t-15 41.5zM372 308.5q0 -9.5 3 -27t12 -31.5l82 6q-1 30 -6 106q0 17 -8.5 27.5t-26.5 9.5q-44 0 -49 -32q0 -4 -3.5 -26.5t-3.5 -32z" />
<glyph unicode="$" horiz-adv-x="831" d="M121 430q11 41 41 82q59 72 137 154q30 30 27 67q-4 29 -18 149t-23 185q-4 28 -17 57t-25.5 47.5t-35.5 49.5q-25 30 -29 36q31 31 68 9q67 -41 114 -82.5t78 -96.5q14 -30 11 -71l-19 -205q0 -3 3 -8.5t3 -7.5q6 -1 11.5 -1t10 0.5t10 2.5t8.5 3.5t8.5 5t8 4.5t8.5 5.5 t7 5.5t35 29q29 28 51.5 27.5t50.5 -31.5q45 -53 86 -113q14 -18 16.5 -39t0.5 -59q-7 3 -25.5 10.5t-26.5 13.5q-51 43 -133 23q-63 -18 -110 -23q-42 -3 -47 -34q-18 -92 -21 -123q-1 -19 -2 -56.5t-2 -56.5q-2 -35 12.5 -47.5t48.5 -5.5q21 7 31 12q68 42 133 -8 q33 -25 49 -42.5t21.5 -39.5t-7.5 -47t-44 -59q-24 -26 -101 -70q-17 -11 -69 -33q-40 -18 -49 -33.5t-9 -60.5q6 -193 6 -387q0 -53 -10 -303l-6 -45q-33 5 -33 43q0 19 1 57t1 57q0 32 -1.5 137t-0.5 162q0 41 2 122t2 122q0 3 -4 62q-54 -17 -59 -21q-30 -18 -82 -63 l-9.5 -9.5t-12.5 -11t-11 -6.5q-8 -5 -20 -6.5t-19 2.5q-13 9 -8 37q3 27 14.5 38t38.5 17q31 9 56 25q5 3 17 14.5t20 15.5q54 28 67.5 72.5t9.5 114.5q-3 34 -14.5 43.5t-44.5 3.5q-100 -22 -164 67q-33 48 -12 115zM197.5 354q18.5 -28 87.5 -28q33 0 39 2q26 16 24 28 q-1 38 -16 193q-1 3 -3.5 6t-6.5 8t-7 10q-59 -45 -104 -129q-32 -62 -13.5 -90zM399 252q-32 -52 4 -102q25 9 38.5 27t26 48.5t21.5 44.5q-28 5 -54.5 3t-35.5 -21z" />
<glyph unicode="%" horiz-adv-x="839" d="M-86 -334q2 5 4 10.5t3 8.5t3 4q133 98 244 270q19 29 149 236q73 116 132 313q5 16 18.5 49t19 52.5t8.5 47.5t-7 54.5t-33 52.5q3 0 8 1t8 1q21 0 29 -4q85 -43 145 -129q21 -29 2 -60q-153 -266 -217 -372q-158 -253 -309 -385q-5 -5 -21.5 -20t-23 -21t-21 -19 t-23.5 -20t-22 -17.5t-25 -18.5t-24 -15q-2 -1 -47 -19zM84 629l152 14q37 4 57 2q31 -1 42.5 -19.5t0.5 -47.5q-9 -21 -25 -60.5t-29.5 -71.5t-27.5 -59q-20 -42 -56 -46t-65 32q-30 42 -39 88q-5 32 -7 93t-3 75zM179.5 500q-8.5 -18 19.5 -56q47 29 39 78 q-50 -4 -58.5 -22zM514 113q-1 13 4 37t6 32q18 12 44.5 31t31.5 23q29 22 80 22t80 -22q23 -21 14 -60q-21 -87 -86 -182q-31 -46 -80.5 -40.5t-70.5 52.5q-15 36 -23 107zM587 59q3 -14 9 -24q10 -12 22.5 -11t22.5 11q45 48 39 104l-12 13q-6 -6 -36.5 -31t-43.5 -41 q-4 -7 -1 -21z" />
<glyph unicode="&#x26;" horiz-adv-x="921" d="M82 86q4 46 41 92q15 19 48 63t52 66q25 32 15 58q-27 83 -31 94q-46 114 -43 237q2 37 29 154q15 46 67 49q79 6 162 6q77 0 121 -59q16 -16 12 -51q-4 -28 -27 -88q-4 -10 -14.5 -38t-15.5 -40t-15 -37t-17 -40t-17.5 -36t-21 -39.5t-21.5 -36.5q-30 -45 -44 -86 q-10 -24 -2 -41q18 -34 66 -108q15 -26 47 -10q12 7 21.5 3t9.5 -16q0 -6 1 -11.5t4 -10t4.5 -7.5t7 -6.5t6.5 -4.5t9 -5l7 -4q12 -5 60 -29.5t75 -33.5q98 -32 182 0q16 6 26.5 7.5t21 -6t14.5 -26.5q-3 -2 -22 -20.5t-28 -24.5q-86 -46 -174 -90q-32 -12 -53 2 q-45 29 -151 106q-7 6 -29.5 27t-36.5 29q-14 7 -45 -8q-18 -8 -57 -29t-60 -29q-100 -44 -157 4q-31 28 -27 74zM176 68q11 -24 49 -9q23 10 74.5 32.5t83.5 35.5q-82 110 -94 125q-13 -17 -46.5 -60.5t-49.5 -66.5q-31 -35 -17 -57zM233 801q-7 -69 3.5 -140t25 -114 t45.5 -121q8 11 23.5 30.5t21.5 28.5q22 31 42 94t24 72q16 38 26 88q9 34 5.5 43.5t-27.5 18.5q-24 10 -55 10t-71.5 -5t-62.5 -5z" />
<glyph unicode="'" horiz-adv-x="354" d="M102 1257q77 10 140 -53q14 -14 10 -37q-4 -38 -14.5 -113.5t-14.5 -113.5q-6 -42 -49 -63q-24 55 -36 117.5t-20.5 142t-15.5 120.5z" />
<glyph unicode="(" horiz-adv-x="569" d="M186 203q21 359 164 682q32 66 78 137q15 27 30 31t38 -13q58 -43 104 -98q13 -16 7 -29.5t-25 -21.5q-56 -27 -99.5 -65.5t-74.5 -88.5t-51.5 -98t-41.5 -111q-58 -181 -32 -395q26 -223 133 -442q18 -35 41.5 -74t51.5 -84.5l44 -71.5q4 -6 11 -19.5t11 -19.5 q-7 -3 -10 -10q-78 29 -151 119q-142 177 -187 342q-52 177 -41 330z" />
<glyph unicode=")" horiz-adv-x="569" d="M-39.5 912.5q-6.5 13.5 6.5 29.5q44 53 105 98q23 17 37.5 13t29.5 -31q46 -71 78 -137q143 -323 164 -682q11 -153 -41 -330q-45 -167 -186 -342q-72 -90 -152 -119q-3 7 -10 10q4 6 11 19.5t11 19.5q8 13 61 98t77 132q107 219 133 442q25 211 -33 395 q-44 134 -102.5 223t-163.5 140q-19 8 -25.5 21.5z" />
<glyph unicode="*" horiz-adv-x="698" d="M41 1090q81 3 144 -32.5t128 -103.5q10 21 12 43t-1.5 38t-8.5 38t-6 35q-1 22 -5 44.5t-13 57t-12 47.5q66 -3 120 -53q9 -7 14 -23t3 -30q-1 -39 -6.5 -113t-6.5 -94q-7 -88 13 -151q2 -21 3 -24.5t-3.5 -26t-5.5 -25.5l-19 -129q-2 -15 -3.5 -22.5t-6.5 -18.5t-14 -18 t-23 -11q-13 39 -17.5 117.5t-15.5 118.5q-39 -6 -107.5 -49t-111.5 -43q28 30 89 97t95 103q-57 70 -110 90q-73 29 -109 88q-2 3 -16 50zM444 936q25 35 115 160q18 0 35 -8t26.5 -16t26.5 -25q13 -15 10 -28.5t-22 -21.5q-77 -33 -143 -57q-4 -2 -11.5 -2.5t-18 -0.5 t-18.5 -1zM457 838q4 -1 28.5 -9t30.5 -10t25.5 -9.5t27.5 -12.5t22.5 -13t24.5 -16.5t19 -19.5q11 -14 15.5 -21t5 -19t-8.5 -24q-25 -28 -65 -10q-54 25 -86 63.5t-39 100.5z" />
<glyph unicode="+" horiz-adv-x="921" d="M61 276q193 33 320 54q-2 16 -6 44t-6.5 45t-4.5 40.5t-2 42.5q0 34 -28.5 87.5t-34.5 74.5q10 -1 24.5 -1t23 -0.5t13.5 -3.5q112 -69 168 -110q10 -7 16.5 -24.5t6.5 -32.5q2 -24 2 -148q40 -14 86 2q140 49 221 -92l-14 -7t-17 -7.5t-12 -1.5q-63 12 -158 38 q-5 1 -29.5 9.5t-37.5 9.5q-53 6 -62 -45l-30 -219q-16 -97 -49 -150q-4 9 -11 22.5t-8 18.5l-37 273q-8 40 -12 63q-32 -1 -65.5 -10.5t-53 -19t-53.5 -27.5q-58 -31 -99 -11t-51 86z" />
<glyph unicode="," horiz-adv-x="413" d="M-31 -270q65 63 101 176q8 28 25.5 84.5t25.5 85.5q12 45 8.5 60t-31.5 48q42 20 109 0.5t104 -59.5v-74q4 -52 -28 -57q-9 -2 -16 -5t-13.5 -10t-9 -9.5t-10 -13t-7.5 -11.5q-110 -159 -141 -199q-23 -30 -50.5 -33.5t-66.5 17.5z" />
<glyph unicode="-" horiz-adv-x="544" d="M74 332q38 -6 188 -2.5t221 0.5q-12 -6 -44.5 -38t-39.5 -36q-34 -13 -99 -18.5t-97 -16.5q-10 -3 -24.5 -1t-20.5 9q-16 16 -28.5 31t-28.5 36.5t-27 35.5z" />
<glyph unicode="." horiz-adv-x="372" d="M86.5 51.5q-11.5 52.5 9.5 81.5q9 11 29 31.5t29 30.5q11 -11 37.5 -35t44 -41t32.5 -35q27 -33 22 -55t-42 -43q-69 -35 -119 -6q-31 19 -42.5 71.5z" />
<glyph unicode="/" horiz-adv-x="641" d="M0 -690q3 10 8 30.5t8 30.5l105 350q95 349 121 431q7 24 18.5 74t18.5 75q2 6 11 16.5t11 14.5q22 28 8 59q-14 32 -8 62q9 42 42.5 193t51.5 233q2 8 19.5 77.5t23.5 106.5q4 19 5.5 41t3 51.5t2.5 46.5q25 -4 46.5 -16.5t34 -24.5t31.5 -33t29 -30q9 -9 39 -54 q23 -28 4 -67l-98 -219q-25 -51 -103 -203q-1 -3 -5 -8t-5 -8q-7 -20 -54 -144.5t-69 -191.5q-13 -35 -25.5 -103.5t-19.5 -93.5q-10 -39 -37.5 -109.5t-34.5 -91.5q-6 -20 -17 -68.5t-20 -74.5q-21 -65 -64 -185t-54 -153q-1 -2 -7 -8.5t-8 -11.5z" />
<glyph unicode="0" d="M72 164q-4 48 5.5 134.5t10.5 104.5q5 49 8 70l51 6q10 16 11 39t-2 41q-5 33 -9 70q35 41 56 59q14 14 28 10q19 -4 40.5 -9t48 -11.5t40.5 -9.5q41 -12 69 -59.5t22 -94.5q-20 -171 -78 -348q-12 -43 -62 -121q-34 -55 -95 -56.5t-99 52.5q-36 50 -45 123zM193 217 q0 -4 2 -28.5t4 -34t9.5 -27t20.5 -29.5l16 16t18 20.5t9 17.5q50 133 68 217q7 29 -6 102q-3 21 -27 41q-43 34 -78 20l-24 -77q28 -37 30.5 -55.5t-16.5 -53.5q-29 -52 -26 -129z" />
<glyph unicode="1" d="M45 506q100 91 102 92q46 46 41 90q-1 26 14 39.5t40 13.5q68 -3 123 -14q19 -3 27 -24.5t-3 -38.5q-9 -13 -16 -28t-11 -26.5t-6.5 -31t-3.5 -27.5t-2.5 -32.5t-1.5 -29.5q-2 -27 -11.5 -115.5t-10.5 -137.5q-1 -27 1 -58.5t6 -70t5 -58.5q0 -39 -10 -45q-12 -10 -47 0 q-52 23 -80 76.5t-23 116.5q2 29 5 87.5t5 88.5q0 40 -32 55q-21 13 -111 78z" />
<glyph unicode="2" d="M38 80q4 30 62 61q68 39 103 97l172 307q13 26 20 69q8 31 -5 46t-46 12q-56 -5 -108 -54q-31 -28 -83.5 -29.5t-86.5 23.5q-2 1 -9 15q85 145 240 153q82 4 137 -63t41 -150q-4 -22 -12 -45t-15 -39.5t-22 -41t-22 -35t-27 -38.5t-25 -36q-4 -6 -94 -131q-1 -2 -18 -35 q84 -17 137 -27q6 -1 17.5 -2.5t20 -3.5t13.5 -6q30 -26 33 -51q1 -8 -9 -21t-22 -22q-74 -45 -156 -31q-6 1 -29.5 5.5t-33 5t-27.5 0.5t-32.5 -5t-28.5 -14q-6 -3 -20 1t-21 11q-48 44 -44 74z" />
<glyph unicode="3" d="M-4 596q-16 35 12 72q83 105 168 139l35 14q54 32 105 18t77 -69q1 -3 4 -12.5t6 -12.5q76 -73 15 -170q-5 -9 -30.5 -53t-37.5 -67q6 -7 35 -41.5t41 -55.5q77 -131 -8 -249q-87 -120 -246 -160q-78 -17 -129 26q-16 16 -12 39q0 6 9 12.5t17 8.5q13 2 35.5 2.5 t30.5 1.5q171 16 254 205q31 68 -25 104q-61 -20 -106 -74q-30 -33 -63 -20.5t-46 51.5q-9 31 2 67.5t35 55.5q19 13 36.5 33t26.5 35.5t24 44t22 39.5q9 15 15.5 33t14 45t11.5 40q-69 0 -115 -49q-42 -42 -62 -65q-37 -40 -88 -31q-47 8 -63 43z" />
<glyph unicode="4" d="M-4.5 409q4.5 12 41.5 31q53 26 78 84q56 106 47 183q55 0 106 -31q31 -16 44 -9t14 42q0 77 -4 241q81 -8 157 -94q10 -14 2 -43q-6 -29 -20 -85.5t-19 -78.5l-43 -196v-45q7 0 40 2t43 2.5t37 -1t41.5 -6t35 -13.5t37.5 -23q-12 -23 -34 -26.5t-42 1.5q-84 5 -108 2 q-38 -4 -49 -17.5t-13 -52.5q-1 -21 -2 -64t-2 -65q-4 -184 -8 -280q0 -25 -23 -45q-10 20 -10 24q-3 50 -8 149.5t-8 149.5q-1 19 -2 58.5t-2 58.5q-1 10 -3 21t-6 26t-6 25l-274 -19l-10 17q-10 16 -15 28q-17 37 -12.5 49zM119 412q27 2 68 -3.5t63.5 -7t62.5 8.5v174 q-33 -10 -60 -26.5t-52 -42.5t-40.5 -46t-41.5 -57z" />
<glyph unicode="5" d="M37 776q29 0 73 -25.5t64 -29.5q30 -7 86.5 -27t61.5 -22q85 -24 151 -58q-60 -21 -67 -22q-18 -3 -38.5 -5t-45.5 -4t-39 -3q-54 -3 -60 -58l-12 -92q11 -3 36.5 -11t39.5 -11q114 -31 143 -162q28 -123 -63 -207q-72 -65 -148 -31q-1 16 6 31t12.5 21.5t20.5 21.5 q65 58 90 133q15 43 -8 82q-21 40 -55 35q-16 -2 -26 -6t-19 -13.5t-11 -25.5l-6 -19q-46 8 -90 43.5t-47 67.5q-4 43 -4 129q-1 12 -1 33t-1 38t-4 33q-4 23 -10.5 49.5t-15 60.5z" />
<glyph unicode="6" d="M59 170q9 147 68 270q15 30 51.5 106t57.5 116q47 87 112 174q38 49 100 56t111 -30q7 -4 14 -12t15.5 -20t15.5 -19q-17 -11 -43 -27.5t-46 -29.5t-36 -25q-8 -6 -63 -55q-135 -130 -205 -336q-12 -40 -4.5 -50.5t49.5 -13.5q17 -1 36.5 -3t43.5 -5t37 -4q73 -6 86 -84 l-170 -153q-37 -33 -70 -17q-5 3 -12.5 5t-16.5 4t-14 3q-57 12 -88 52t-29 98zM188 211q-6 -86 66 -135q25 48 39 80q-10 5 -45 29.5t-60 25.5z" />
<glyph unicode="7" d="M-131 -401q1 5 1 15t1 17.5t4 12.5q20 42 63 125t64 125q16 35 42 101.5t36 88.5q12 31 55 137t64 164q20 51 53.5 145t46.5 129q-5 -1 -19.5 -1.5t-21.5 -2.5q-11 -4 -30.5 -13.5t-22.5 -10.5q-17 -8 -52 -23.5t-53 -23.5q-96 71 -118 90q-14 12 -41 61q58 4 69 4 q197 0 236 2q32 0 57 25q42 37 90 12q4 -2 24 -13t26.5 -14.5t22.5 -13.5t24 -17.5t19 -18.5t19 -23q10 -15 32 -41t30 -37q-52 -15 -74 -25q-137 -60 -231 -245l-115 -221q-21 -40 -86 -154l-31 -55q-92 -175 -157 -301h-27z" />
<glyph unicode="8" d="M39.5 647q6.5 47 62.5 103q13 12 24.5 26.5t27 36.5t20.5 29q36 44 98 30q49 -13 81 -29.5t53 -49.5q2 -5 10 -14t10 -11q63 -57 27 -119q-21 -38 -93 -123q-5 -7 -12 -14t-15.5 -14.5t-13.5 -12.5q-32 -32 -8 -69q8 -13 31.5 -54t38.5 -61q48 -66 39 -147 q-4 -27 -23 -43q-102 -92 -252 -109q-4 98 -8 150q-2 13 -5 27.5t-7 31.5t-6 27q-2 8 -7.5 24.5t-7.5 24.5q-20 66 27 98q5 3 11.5 14.5t9.5 14.5q-51 73 -78 118q-41 68 -34.5 115zM170 637q11 -26 19.5 -41.5t24.5 -36t36 -35.5q37 23 70 60.5t42 66.5q7 20 0 37 q-9 21 -63 39.5t-76 9.5q-28 -10 -45 -42.5t-8 -57.5zM219 246q11 -44 49 -82q49 40 38 84.5t-79 79.5q-19 -38 -8 -82z" />
<glyph unicode="9" d="M-25 -270q83 155 101 223q13 49 48.5 128t47.5 114q11 32 42 126t40 121q-12 -5 -61 -27.5t-62 -27.5q-60 -25 -89.5 -8.5t-23.5 78.5q5 80 33 178q6 25 16 51t24 59t20 48q12 24 20 32q32 29 50 29.5t57 -23.5q26 -15 77.5 -38.5t61.5 -28.5q34 -16 50 -25t38 -29.5 t31 -47.5q5 -9 19 -26.5t15 -19.5q-5 -12 -16.5 -35t-15.5 -34q-17 -51 -58 -53q-8 -1 -13.5 -3.5t-9.5 -8t-6.5 -10t-5.5 -12.5t-4 -11q-15 -41 -59.5 -113.5t-52.5 -87.5l-197 -398q-27 -56 -56.5 -86t-45.5 -32zM131 487q79 -3 123 42.5t33 115.5q-18 -2 -53 -5t-52 -5 q-36 -27 -48.5 -71t-2.5 -77z" />
<glyph unicode=":" horiz-adv-x="391" d="M82 434q7 9 18.5 31t24 32.5t33.5 12.5q12 1 22.5 -0.5t21.5 -6.5t17.5 -8.5t20 -12t18.5 -11.5q51 -28 51 -74q0 -21 -30.5 -48t-57.5 -30q-55 -3 -84 39q-22 28 -55 76zM90 141q15 2 36 6t30 5q28 5 39 -2q77 -43 104 -109q7 -23 -7.5 -44.5t-41.5 -29.5 q-36 -9 -73 7.5t-50 50.5q-8 21 -20.5 62.5t-16.5 53.5z" />
<glyph unicode=";" horiz-adv-x="391" d="M53 -205q17 52 62.5 174.5t62.5 177.5q7 -3 25.5 -10t23.5 -9.5t18.5 -9t20 -12.5t17 -15.5t20.5 -22.5q4 -6 3.5 -19.5t-5.5 -21.5q-28 -47 -48 -76.5t-58.5 -73.5t-79.5 -72q-12 -1 -62 -10zM84 535q49 10 66 12q31 0 36 -2q81 -43 105 -109q9 -23 -5.5 -44.5 t-41.5 -29.5q-37 -11 -73.5 6t-49.5 52q-9 20 -37 115z" />
<glyph unicode="&#x3c;" horiz-adv-x="776" d="M84 305q-8 43 55 68q36 13 92.5 31.5t86.5 29t67.5 28t63 39.5t45.5 52q13 17 -9 61q-1 4 -3 8.5t-7 9.5l-10 10t-13 12.5t-14 13.5q136 -23 180 -33q26 -6 46.5 -24t28.5 -39.5t-6 -46.5t-52 -42q-104 -48 -168 -84q-24 -12 -49 -26.5t-54 -32t-47 -27.5 q-32 -21 -29 -37t36 -36q29 -17 123.5 -64t125.5 -65q70 -49 95 -72q8 -7 6 -21t-12 -20q-13 -8 -46 -8q-16 0 -22 2q-34 9 -70 25t-56 27t-71.5 42.5t-72.5 44.5q-74 43 -144 53q-38 3 -59 33q-18 32 -37 88z" />
<glyph unicode="=" horiz-adv-x="737" d="M82 420q14 6 18 6q51 -24 116 -32.5t119 -5.5t118 -1q19 0 65 12q79 19 137 -63q-7 -1 -22 -3t-20 -2t-17 1q-156 36 -291 -33q-94 -50 -162 41q-23 28 -61 80zM133 193q51 3 151.5 7t151.5 7q46 4 74 16q27 12 76 -1.5t61 -37.5q8 -15 2.5 -25.5t-20.5 -13.5 q-35 -3 -66 0q-151 19 -264 -51q-20 -14 -47 -6q-75 19 -119 105z" />
<glyph unicode="&#x3e;" horiz-adv-x="776" d="M83 571.5q8 21.5 28.5 39.5t46.5 24q44 10 180 33q-6 -6 -14 -13.5t-13 -12.5l-10 -10t-7 -9.5t-3 -8.5q-21 -43 -8 -61q20 -30 45.5 -52t62.5 -39.5t67 -28t86.5 -29t92.5 -31.5q63 -25 55 -68q-19 -56 -37 -88q-21 -30 -59 -33q-69 -10 -143 -53q-19 -11 -72 -43.5 t-72.5 -43.5t-56 -27t-70.5 -25q-6 -2 -22 -2q-32 0 -45 8q-10 6 -12 20t6 21q28 26 94 72q31 18 126 65t124 64q33 20 35.5 36t-29.5 37q-7 4 -62 37t-88 49q-64 36 -168 84q-38 17 -52 42t-6 46.5z" />
<glyph unicode="?" horiz-adv-x="641" d="M-10 815q14 -4 26.5 -5t26.5 3.5t21.5 6.5t24 12.5t19.5 12.5t21 15q104 70 197 88q127 29 204 -67q58 -74 9 -146q-59 -94 -154 -203q-53 -57 -63 -114.5t22 -128.5q6 -14 39 -119q-34 0 -52 11t-32 32q-69 121 -66 229q2 37 31 105q23 48 66 133t59 119q3 6 19 55 q-60 20 -125.5 -32t-102.5 -148q-67 2 -119 40t-71 101zM217 31q19 15 36 24t37.5 13.5t31 6t37.5 2t36 1.5q28 0 47.5 -24.5t16.5 -53.5q-3 -25 -22 -38.5t-48 -10.5q-56 5 -93.5 22t-78.5 58z" />
<glyph unicode="@" horiz-adv-x="890" d="M78 -41q-44 241 78 479q106 212 364 353q62 36 123 2q4 -2 16 -9.5t19 -9.5q32 -9 55.5 -26t40.5 -46t25 -48t22 -58q28 -94 -49 -156q-10 63 -10 64q-1 13 -1 35.5t-1 35.5q-2 58 -36.5 89.5t-90.5 19.5q-95 -16 -176 -66q-174 -101 -260 -223q-140 -194 -74 -413 q29 -101 125 -109q24 -2 52 -2t62.5 1t53.5 1v-10q-115 -79 -242 -35q-74 23 -96 131zM246 150q-13 73 14 126q70 122 111 177q71 95 190 51q9 -3 82 -25v-15v-15.5t-0.5 -14t-1.5 -15t-2.5 -13t-4 -13.5t-6 -12.5t-9 -13l-11.5 -11.5q-18 -16 -35 -73q-13 -50 -4.5 -66 t56.5 -33l10 -14q-13 -55 -70 -61q-22 -3 -36 9t-27 36q-18 34 -41 63q-7 -27 -36 -59t-63 -54q-18 -24 -49 -24q-51 3 -67 70zM301 143q9 -9 22.5 -9.5t21 3l22.5 10.5q5 2 37 40.5t53 68.5l6 12q5 7 8 17q0 2 2 4q0 2 4 10q0 4 2 6q0 6 2 10v7v10v6q0 8 -2 12v6 q-1 3 -4 9.5t-4 9.5q-48 3 -78 -31q-27 -33 -90 -127q-27 -45 -2 -74z" />
<glyph unicode="A" horiz-adv-x="1040" d="M88 -12q-5 26 -5 52q0 83 54 165q7 10 37 53t42 61t33 51.5t36 61.5q16 29 24.5 47t17 46.5t6 56.5t-15.5 57q62 12 90 12h5q28 -1 57 -12q0 3 1 10t1 12t-2 9q-34 79 -135 299q-25 51 -50.5 81t-68.5 44q-8 2 -16 8.5t-17 17t-14 15.5q70 49 135 49q23 0 46 -6 q86 -24 126 -129q32 -83 65.5 -175t76.5 -212.5t63 -176.5l61 -157q65 10 91 12q9 1 21 1q22 1 52 -3q47 -4 82 -23q6 -4 12.5 -10t10.5 -11.5t10 -14t10 -13.5q-20 -22 -50.5 -30t-56.5 -6.5t-55 -6t-47 -28.5q12 -36 38 -108t38 -107q-19 -2 -35 -2q-42 0 -68 13 q-34 18 -49 68q-4 15 -11.5 55t-14.5 60q-26 70 -75 70q-30 0 -69 -27q-29 -20 -65 -20q-19 0 -39 6q-8 3 -17 6.5t-20 8t-18 7.5q-4 -6 -12 -17t-13 -19t-8 -15q-13 -34 -37.5 -68.5t-40.5 -52t-57.5 -57.5t-50.5 -49q-17 -18 -39 -18q-11 0 -24 5q-37 14 -46 54zM461 319 q129 -14 182 -18l-106 199q-67 -74 -76 -181z" />
<glyph unicode="B" horiz-adv-x="800" d="M-223 797q21 6 47 6q103 4 139 61q16 21 33.5 26t48.5 3h19q49 0 114 8q34 4 94 14t110.5 16t94.5 7h3q51 0 95 -29q45 -30 74 -80q11 -20 11 -43q0 -42 -37 -92q-13 -18 -30.5 -38.5t-30 -34.5t-35 -38t-31.5 -34q-9 -9 -54 -39q10 -21 11 -23l69 -14q90 -17 124 -34 q29 -15 50 -38q44 -46 44 -99v-6q-2 -56 -56 -93q-7 -5 -48.5 -36t-54 -40t-49 -33t-58 -34.5t-54.5 -23.5t-64 -20q-43 -11 -49 -61q-4 -28 -8 -84h-3q-76 1 -124 53q-46 50 -45 122v9q3 119 3 200q0 40 -1 71q0 166 -8 305q0 26 -12 108q-9 -1 -17.5 -3.5t-15 -4.5t-14 -6 t-12.5 -6.5t-12 -8.5t-10 -8.5t-10 -10t-8.5 -9.5t-9 -10.5t-8.5 -9.5q-40 -44 -64 -44h-1q-23 0 -66 41q-47 47 -58.5 66.5t-25.5 71.5zM229 807q9 -12 28 -32.5t31.5 -36.5t18.5 -33q7 -17 9 -38.5t1 -51t0 -42.5q12 -3 19 -10q10 17 32 44.5t31 41.5q49 84 74 152 q12 32 1 47t-48 18q-20 2 -39 2q-97 0 -158 -61zM302 298q-2 -6 -2 -14q0 -29 26 -77q88 51 127 87t51 77q-9 5 -23 5q-7 0 -13 -1q-22 -3 -34 -6.5t-33.5 -11.5t-33.5 -11q-57 -18 -65 -48z" />
<glyph unicode="C" horiz-adv-x="745" d="M109 494q-1 23 -1 44q0 214 89 359q11 19 27 40t27 34t35.5 40t32.5 36q5 -2 13.5 -4.5t13.5 -4.5t8 -6q32 -36 113 -65t96 -37q72 -37 72 -113v-6v-15q0 -38 8 -89q2 -8 2 -26q1 -16 -1 -40q-1 -10 -1 -18q0 -36 12 -48q2 -7 0.5 -11.5t-7 -16.5t-7.5 -19l-45 27 q-3 1 -9 5t-9.5 6t-4.5 1q-12 -9 -22.5 -9t-15.5 4t-13.5 14.5t-11.5 13.5q-6 5 -15.5 20t-15.5 21q-19 24 -55 68t-47 57q-65 -49 -76 -109q-21 -103 -21 -187q0 -30 3 -57q6 -75 41 -129q71 -104 140 -171.5t163 -102.5q6 -2 17.5 -10.5t17.5 -12.5q-47 -14 -48 -14 q-246 10 -381 168q-94 115 -106 254q0 13 -10 70z" />
<glyph unicode="D" horiz-adv-x="1075" d="M-291 797q201 76 381 97q61 7 122 7q120 0 240 -27q182 -41 351 -151q172 -115 172 -339v-15q-3 -142 -127 -219q-50 -31 -72.5 -44.5t-66 -30t-82.5 -18.5q-9 -1 -24.5 -13.5t-24.5 -12.5q-67 0 -132 24q13 10 46.5 38t58.5 46t51 29q16 7 31 15t30 20t25 19.5t25 24 t21.5 23t22 27t19 25t20.5 28.5t19 27q57 81 57 150q0 23 -6 45q-25 88 -145 143q-129 58 -305 61h-6q-50 0 -62 -18q-4 -7 -5 -16q0 -19 15 -52q17 -41 17 -92q2 -72 3 -215t3 -215q0 -40 29 -121q7 -20 7 -37q0 -39 -36 -65q-19 -13 -38 -13q-32 0 -62 37q-76 98 -76 228 q0 75 -10 460q0 48 -11 66q-10 15 -27 28.5t-28 12.5q-113 -25 -164 -57q-61 -37 -97 -37h-2q-36 1 -87 49q-19 17 -70 78z" />
<glyph unicode="E" horiz-adv-x="770" d="M-55 932q62 -11 125 -19t136 -12.5t119.5 -6.5t135.5 -5t123 -4q41 -2 153 -29q5 -1 10.5 -5.5t9.5 -8t10.5 -10.5t8.5 -9q-8 -11 -16 -17t-18.5 -7t-16 -1t-19.5 2.5t-18 2.5q-68 10 -138 10q-120 0 -245 -29q-7 -1 -37 -20q10 -13 31.5 -39t36 -45.5t24.5 -38.5 q10 -18 17.5 -41t16.5 -56.5t16 -54.5q13 -6 114 -33.5t152 -68.5q-7 -12 -15.5 -19.5t-20 -10t-18 -3t-22.5 1.5t-20 2q-79 10 -138 13h-3q-47 -1 -65 -27q-18 -28 -22 -76q-1 -6 0 -13.5t3 -16.5t3 -15q4 -21 14 -64t15 -67q76 4 113 10q86 10 167 10q124 0 236 -24 q14 -3 29.5 -8t41 -15t42.5 -16q-13 -8 -28.5 -17t-24 -14t-15.5 -8q-11 -2 -45 8q-88 31 -181 31q-162 0 -341 -94q-19 -11 -39 -11h-4q-18 0 -30 4q-14 4 -33 12q-5 2 -7 3q-115 46 -115 174q0 9 1 19q12 176 28 514q1 10 -3 29t-5 28q-104 23 -161.5 67.5t-67.5 137.5z " />
<glyph unicode="F" horiz-adv-x="466" d="M-217 1147q2 1 5 4t4.5 4t2.5 0q19 -5 38.5 -7t42 2.5t35.5 7t39.5 10.5t35.5 10q160 45 354 55q28 0 90 16q16 5 29 5q25 0 45 -15q12 -9 51.5 -38.5t60.5 -47.5q6 -6 12 -14t12.5 -19.5t10.5 -17.5q-41 -27 -71 -27q-8 0 -15 2q-11 3 -22.5 4.5t-24 0.5t-20.5 -1 t-23 -4t-20.5 -5t-22.5 -7.5t-19.5 -7.5t-21.5 -9t-20 -8q-17 -8 -31 -39q-48 -114 -48 -250q0 -22 1 -44q12 0 48 0.5t51 0.5t45 -3t49 -9t43 -18.5t44 -30.5q-42 -34 -110 -41q-16 -3 -48 -7t-48 -7q-40 -6 -56.5 -24t-17.5 -58v-131q0 -326 -6 -488q-1 -28 -5.5 -61 t-9 -56.5t-12 -62t-10.5 -57.5q-9 -36 -37 -68q-5 -7 -21 -9q-6 -1 -12 -1q-8 0 -14 2q-6 3 -11 15.5t-5 21.5q0 27 -5 108q-3 51 -3 88q0 22 1 39q3 39 3 93q0 62 -4 143q-7 136 -7 194v13q1 45 -1 195q0 41 -1 78q0 98 3 170q4 98 18 194q3 27 22.5 79t24.5 78l-123 -51 q-84 -41 -107 -57q-21 -13 -38 -13q-19 0 -33 15q-50 55 -109 131q-3 4 -4.5 10t-2 14t-1.5 11z" />
<glyph unicode="G" horiz-adv-x="888" d="M113 442q19 92 72.5 160.5t138.5 132.5q51 39 107 77t132.5 88.5t106.5 70.5q86 -21 123 -80q14 -24 10 -35q-1 -6 -12 -12t-17 -4q-16 2 -31 2q-52 0 -97 -21q-57 -27 -126 -82q-106 -80 -203 -164q-72 -69 -88 -184q-2 -13 -2 -25q0 -67 64 -118q46 -36 100 -48 t129 -14q38 0 35 39q-15 96 -31 154q-2 7 -9.5 13.5t-19.5 13.5t-18 12q-33 27 -31 35q3 11 14 24.5t21 16.5q77 19 145 19q28 0 54 -3q33 -4 69 -52q33 -45 33 -79v-6q-4 -37 -16 -111q-7 -27 -2 -54.5t31 -45.5q4 -3 5.5 -9t3 -15t3.5 -15q-39 -5 -51.5 -29t-12.5 -63 q-2 -72 -2 -215q-1 -26 -1.5 -108.5t-2.5 -127.5q0 -17 -18 -82q-26 4 -38.5 17t-21.5 36q-38 97 -57 281q-4 40 -12 84t-19 101.5t-16 82.5q-5 31 -43 31q-45 2 -131 10q-90 5 -182 64q-92 61 -92 174q0 29 6 63z" />
<glyph unicode="H" horiz-adv-x="856" d="M6 838q-3 9 -3 17q0 13 9 23q14 14 39 7q22 -8 75.5 -24t92.5 -31.5t72 -38.5q79 -55 79 -139q0 -10 -1 -21q-2 -10 -3 -21.5t-3 -28.5t-3 -30q184 26 244 33q0 62 -2 73q-4 47 -17.5 162.5t-17.5 177.5q-6 98 -67 156q-1 1 -10 9.5t-11.5 11.5t-8.5 12t-7 16t0 18.5 t6 24.5q11 -3 46.5 -11.5t58 -16t42.5 -17.5q76 -40 158 -102q31 -24 34 -44v-5q0 -18 -15 -48q-23 -51 -25 -86q-4 -36 -14 -223q-2 -28 -2 -49q0 -32 5 -49q8 -23 25 -41q1 -11 1.5 -12.5t-4.5 -18.5t-5 -18q-2 -8 -9.5 -30.5t-8.5 -33.5q-3 -99 -8.5 -297.5t-8.5 -298.5 q0 -82 -8 -147q-8 -61 -63 -66q-2 18 -2 43q-4 84 -11.5 253t-11.5 253q-4 74 -25 250q-6 52 -20 62q-9 7 -34 6q-14 0 -32 -2q-11 -1 -69 -11q-56 -12 -82.5 -44t-26.5 -89v-31v-34.5t-0.5 -30t-2 -33.5t-3.5 -29.5t-5.5 -34t-8.5 -30.5q-1 -3 -4.5 -13t-5 -13.5t-5.5 -11 t-8.5 -10.5t-11.5 -6t-16 -3h-8q-39 0 -54 45q-5 14 -25.5 67.5t-28.5 88.5q-7 31 -7 65v8q0 11 -4 27l-68 321q-14 74 -55 103q-20 13 -27 41z" />
<glyph unicode="I" horiz-adv-x="395" d="M27 877q-4 17 -4 30q0 17 6 29q3 6 21 8q6 1 10 1q10 0 18 -3q76 -38 127 -74.5t87 -89.5q11 -19 10 -52q0 -9 -1 -19q-2 -40 -9 -122.5t-9 -125.5q-5 -95 -10 -272.5t-7 -215.5q0 -4 -1 -8.5t-4 -16t-5 -22.5q-38 34 -58 53.5t-43 49.5t-29 61q-3 16 -4 33q0 16 3 33 q5 37 7 75q0 10 1 21q0 28 -3 58q-4 41 -8.5 70.5t-12.5 76.5q-10 47 -21 138.5t-18 131.5q-5 28 -21.5 79t-21.5 73z" />
<glyph unicode="J" horiz-adv-x="421" d="M-254 41q70 -59 133 -87q54 -25 118 -25q10 0 21 1q75 4 152 52q2 59 2 114q0 182 -18 326q-4 13 -0.5 51t2.5 51q-4 72 -35 502q-6 73 -58 135q-22 28 -53 78q5 2 10 6t8.5 6t6.5 2q42 -5 64.5 -9.5t55 -17t56.5 -32.5q103 -89 151 -162q13 -23 13 -43q0 -15 -8 -28 q-15 -27 -15 -64q-2 -44 -14.5 -128.5t-15.5 -123.5q-1 -15 -7 -86t-6 -104q0 -70 -3.5 -171t-4.5 -149q0 -56 4 -170q0 -127 4 -162q3 -17 9.5 -36.5t16.5 -43t15 -36.5q13 -33 -6 -60q-24 -34 -35 -39q-4 -2 -12 -2q-13 0 -39 6l-70 15q-79 17 -103 28t-87 58q-1 2 -6 5 l-4 3q-8 30 -28 50.5t-54 39.5q-20 9 -51.5 41.5t-40.5 40.5q-57 52 -68 168z" />
<glyph unicode="K" horiz-adv-x="878" d="M-90 772q45 22 91 22q58 0 116 -36q14 -10 80 -27q32 -92 67 -170q3 3 11 8t15 10.5t11 10.5l262 280l18 18t19 21t9.5 18t3 24t-14.5 24q23 22 46 22q20 0 40 -18q69 -61 96 -96q20 -25 20 -53q0 -12 -4 -24q-12 -42 -55 -61q-39 -17 -76.5 -40t-87 -59.5t-69.5 -49.5 q-28 -18 -76.5 -62.5t-58.5 -52.5q10 -6 27.5 -15.5t25.5 -14.5q14 -9 48 -29t57 -37t40 -37q52 -58 118 -99.5t159 -84.5q120 -56 432 -209q6 -3 11 -9.5t10.5 -18.5t7.5 -15q-5 -3 -13.5 -9.5t-15.5 -11t-12 -4.5q-76 -2 -142 -4h-19q-58 1 -121 11q-73 12 -132 40 q-71 33 -182 125q-23 19 -46 42t-55 58t-43 46t-23.5 21.5t-22.5 19t-26.5 19t-24.5 16.5t-28 17t-26 14.5t-29.5 15.5t-27.5 14t-30.5 15t-29.5 14l-14 -56q-1 -19 -1.5 -54.5t-1.5 -65t-3 -54.5q0 -4 -1.5 -24t-2.5 -26t-4.5 -22t-9 -24t-16 -18t-24.5 -17q-54 28 -73 69 q-12 25 -12 57q0 20 5 44q4 20 6.5 39t3.5 42.5t1.5 38t0 42t-1 37t-2 42t-1.5 38.5q-5 15 -5 18q0 66 -24.5 110t-73.5 85q-4 3 -15.5 12t-16.5 13t-14.5 12t-15 14t-13 14.5t-12.5 17t-9 17.5z" />
<glyph unicode="L" horiz-adv-x="763" d="M-84 1163q27 35 74 35q15 0 33 -4q172 -28 301 -170q43 -48 43 -112q0 -14 -2 -29q-8 -58 -32.5 -173t-35.5 -207q-6 -51 -6 -98q0 -39 4 -77q2 -39 2 -59q0 -5 -1 -9q0 -18 -7 -76t-8 -73q10 -2 43 -8.5t46 -8t39 -4t49.5 -1.5t49.5 5q8 1 27.5 3.5t37 5t27.5 6.5 q45 15 79 16q21 -1 38 -7q44 -16 88 -77q-31 -47 -45 -53q-8 -4 -27 -4q-15 0 -37 2q-15 1 -30 1q-37 0 -80 -5q-99 -13 -187 -27q-35 -7 -61 -27q-28 -18 -52 -18q-20 0 -38 12q-58 40 -84 66q-37 36 -37 77q0 30 20 64q19 38 19 55q-3 54 -10.5 160.5t-10.5 157.5 q-4 49 -8 147q-4 103 -8 305q0 60 -45 93z" />
<glyph unicode="M" horiz-adv-x="1138" d="M6 774q40 4 76 4q58 0 104 -10q76 -16 136 -76q16 -16 20 -51q16 -88 16 -176q0 -44 -4 -88l-24 -250q0 -26 -13 -49q-16 -47 -24 -47q-44 9 -60 30q-44 68 -47 150q-3 58 -28 362q-6 64 -58 105q-18 14 -50 49t-44 47zM326 731q46 28 94 28q10 0 20 -1q58 -7 95 -51 q31 -37 45.5 -38.5t50.5 33.5q131 143 200 222q10 12 15.5 24.5t5 29t-1 25.5t-5 30.5t-5.5 27.5q-1 3 -7 31.5t-6 44.5q1 33 15 43q6 4 16 5q12 0 29 -7q77 -26 135 -60q38 -22 50 -74q5 -19 5 -36q0 -30 -14 -56q-17 -29 -19 -47q-44 -214 -59 -330q-12 -95 -13 -188 q0 -19 1 -37q5 -236 63 -559q6 -39 6 -62v-10q-6 -37 -24 -63q-4 -4 -16 -5h-7q-7 0 -12 1q-5 3 -10 11.5t-4 14.5q7 24 2.5 58.5t-10.5 57t-15.5 56t-13.5 56.5q-56 298 -72 366q-13 63 -16 178.5t-6 145.5q-1 14 -1 64t-6 79q-20 -25 -22 -30q-33 -73 -63.5 -121.5 t-77.5 -85.5q-33 -25 -53.5 -26.5t-55.5 22.5q-71 52 -117 120q-13 19 -31.5 37.5t-45 41t-39.5 34.5z" />
<glyph unicode="N" horiz-adv-x="784" d="M-16 817q152 0 211 -80q90 -127 217 -219q6 -4 40.5 -38t63.5 -42q1 5 3.5 19.5t2.5 21.5q-4 358 -8 533q0 24 -22 88q-3 9 -29 69q7 5 14 15q5 -3 21.5 -9t23.5 -12q69 -65 112.5 -123t63.5 -129q2 -7 2 -15.5t-1 -19t-1 -16.5q-1 -15 -4 -40.5t-5 -46.5t-3 -40 q-3 -38 -5 -81.5t-4 -96.5t-3 -82q0 -7 -4 -27q-22 -355 -25 -387q-4 -47 -41 -209q-8 -41 -49 -41q-8 0 -16 1q-1 17 -6.5 103.5t-6.5 133.5q-1 28 -1 87t-1 87q-4 50 -20 66q-44 47 -182 176q-3 3 -21 10q-37 -97 -47 -213q-2 -33 -2 -197v-6.5v-7.5t-0.5 -7t-1.5 -7 l-3 -6t-5.5 -6.5t-8 -5.5t-10.5 -5q-1 3 -13 28t-17 40q-50 161 -72 428q-6 102 -58 176q-15 21 -40 65.5t-39 67.5z" />
<glyph unicode="O" horiz-adv-x="772" d="M75 663q0 6 1 23q3 13 12 18.5t24.5 8t20.5 4.5q6 4 12 10.5t12 15.5t9 13q33 31 48 35q20 6 42 -5q11 -4 18 0q32 18 68 18h5q34 0 77 -8q46 -8 68 -8q98 -6 210 -28q42 -6 48 -24q2 -5 1 -11q0 -18 -12 -49q-6 -17 -11 -39t-7.5 -37.5t-6 -42.5t-5.5 -39 q-13 -107 -36.5 -180t-80.5 -133q-10 -11 -31.5 -42.5t-36.5 -45.5q-43 -41 -141 -111q0 -5 -17 -5q-2 1 -3 1h-23q-113 6 -152 109q-62 149 -69 168q-8 21 -17 88q-2 21 -8 53.5t-9 52t-5 52t4 53.5q1 7 -4 38q-1 6 -3 23.5t-2 23.5zM205 459q-8 -39 -8 -75q0 -85 43 -157 q24 -41 44 -51q10 -5 26 -5q15 0 34 5q56 12 82 35q54 44 84.5 73.5t62 80.5t39.5 108q2 12 2 25q0 33 -14 70q-20 52 -55 67q-21 9 -46.5 15.5t-59.5 13.5t-52 12q-44 -11 -51 -17q-48 -44 -66 -77q-55 -79 -65 -123z" />
<glyph unicode="P" horiz-adv-x="636" d="M90 1167h19q114 0 192 -67l49 -45q56 -54 120 -54q15 0 30 3q29 6 56 6q69 0 126 -37q40 -24 70 -58q29 -33 29 -69q0 -22 -11 -45q-3 -6 -10.5 -23.5t-11 -24.5t-11 -21.5t-13.5 -23t-15 -19.5t-19 -19t-22 -15q-16 -8 -40.5 -33t-27.5 -28q-58 -51 -108 -55 q-11 0 -48 -21q-32 -22 -63 -22q-29 0 -57 20q-2 -10 -6 -25.5t-6.5 -27t-2.5 -21.5q0 -33 4 -99.5t4 -100.5q0 -173 23 -301q2 -11 0 -23.5t-6.5 -28t-5.5 -20.5q-16 -3 -28 -3q-1 0 -3 -1q-10 0 -19 4q-10 4 -16.5 8.5t-15.5 16t-16 22t-20.5 31t-25.5 37.5q2 7 6.5 18.5 t7.5 20.5t3 16q0 163 -11 235q-26 195 -26 348q0 38 2 74q1 30 1 58q0 128 -26 215q-4 14 -4 45q-1 33 -2.5 47t-11.5 38t-29 40q-2 2 -2.5 5.5t-0.5 10.5t-1 12zM321 648q-2 -16 -2 -32q0 -31 9 -61q75 12 193.5 117.5t174.5 208.5q-37 42 -83 42q-8 0 -17 -1 q-31 -6 -113 -33q-16 -5 -23 -9t-13 -16t-1 -30q4 -17 -9 -29t-34 -17q-13 -4 -43 -8q-32 -84 -39 -132z" />
<glyph unicode="Q" horiz-adv-x="935" d="M113 444q3 29 9 64t11.5 59.5t15 64.5t13.5 60q6 24 6 45q0 24 -8 43q-2 5 -7.5 16t-8 17t-5 14.5t-1.5 15t5 11.5q24 9 104.5 36.5t119.5 45.5q114 56 234 56q104 0 212 -42q13 -5 113 -32q42 -10 51 -15q37 -17 37 -51q0 -13 -6 -29q-10 -34 -17 -41 q-33 -36 -55.5 -80.5t-44.5 -108t-33 -89.5q-56 -125 -137 -287q-6 -11 -24 -32.5t-25 -30.5q97 -67 145 -95q15 -9 141 -80t187 -116q22 -17 50.5 -29.5t66.5 -25.5t57 -21q26 -10 74.5 -31.5t62.5 -27.5q42 -17 42 -43q0 -7 -3 -15q-19 -53 -60 -53h-3q-76 0 -111 6 q-76 12 -121 12q-19 0 -33 -2q-11 -1 -23 0.5t-28 7t-23.5 8.5t-28.5 12.5t-24 10.5q-26 11 -50.5 27.5t-42 30.5t-41.5 40t-34.5 38.5t-36.5 45l-34 42.5q-46 56 -84 94t-84 67q-38 25 -51 24t-50 -30q-14 -12 -69 -59q-45 -35 -105 -36h-4q-59 0 -110 29q-54 30 -80 81 q-58 112 -58 265q0 54 7 113zM285 377q67 -7 123.5 -36.5t128.5 -84.5q39 61 78 128.5t86.5 153.5t70.5 126q-1 4 -8 23t-8.5 23.5t-8 21t-10 22t-11 18.5t-13.5 19.5t-15 15.5t-19 15.5t-22 11.5q-12 6 -96 36q-26 10 -50 10q-22 0 -43 -8q-42 -19 -62 -69q-3 -8 -8 -16.5 t-12.5 -18t-10.5 -14.5q-90 -138 -90 -347v-30zM295 276v-8q0 -76 51 -147q48 35 90 61q-29 26 -45.5 39.5t-42.5 30t-53 24.5z" />
<glyph unicode="R" horiz-adv-x="757" d="M-389 745q4 3 36.5 7t86 15.5t102.5 31.5q32 14 95 36.5t92 34.5q3 11 6 48q31 -14 67.5 -16t62.5 3t66 14.5t62 12.5q47 6 96 6q127 0 268 -39q33 -8 72 -35q36 -26 39 -51v-5q0 -23 -23 -56q-19 -29 -41 -55t-52.5 -55.5t-46 -44.5t-57 -51t-50.5 -44q-36 -31 -91 -86 q123 -109 148 -133q25 -25 91.5 -93.5t104.5 -105.5q55 -51 95 -74q81 -46 230.5 -128t201.5 -111q13 -8 39 -29q1 -1 28 -37q-7 -4 -16.5 -10.5t-17 -10.5t-13.5 -6q-21 -5 -40 -5q-8 0 -15 1q-143 24 -253 71.5t-196 137.5q-75 77 -368 355q-15 13 -48 35l-42 28 q-4 -27 -4 -59q0 -40 6 -86q10 -86 15 -139q1 -12 1 -25q0 -47 -16 -111q-82 18 -133.5 81.5t-51.5 137.5q0 70 -14 303q0 9 -3 37t-1 43q3 20 3 40q0 19 -2 37q-4 38 -17 91t-17 74q0 2 -1.5 3.5t-5.5 4.5t-7 6q-6 -4 -26.5 -16.5t-28 -17.5t-25.5 -17.5t-26.5 -20 t-23 -21.5t-23 -26t-18.5 -28.5t-17 -34.5q-30 20 -92.5 50.5t-109.5 62t-81 75.5zM270 825q24 -24 35 -54t9.5 -56.5t-1.5 -57.5q0 -1 -2 -26t-1.5 -33.5t4.5 -27.5t14 -35q12 10 31 25t32.5 26.5t22.5 23.5q28 35 92 138q17 25 23.5 37t13.5 35q5 16 5 32q0 7 -1 14 q-41 11 -83 11q-93 0 -194 -52z" />
<glyph unicode="S" horiz-adv-x="790" d="M98 899q16 29 41 51q48 41 145.5 122t145.5 122q24 21 62 21h3q40 -1 68 -23l111 -86q12 -8 14 -14q35 -107 41 -129q1 -7 1 -11q0 -8 -4 -22q-2 -12 -3 -17q-22 7 -81 27t-89 27q-19 3 -38 3q-43 0 -83 -16q-4 -2 -20 -8t-23.5 -8.5t-20 -4.5t-22.5 -1q-25 1 -39.5 -8 t-25.5 -31l-76 -141q-12 -26 -13 -51q0 -47 46 -85q19 -17 66.5 -54.5t72.5 -59.5q99 -85 244 -215q10 -9 34 -47q15 -27 16 -42.5t-5 -27t-29 -39.5q-69 -81 -158 -92q-8 -1 -24.5 -12t-20.5 -13q-19 -12 -69 -39q-37 -86 -134 -106q-10 -2 -18 -2q-35 0 -51 33 q-8 16 4.5 49.5t30.5 34.5q35 4 60 24.5t50.5 53.5t40.5 47q24 22 63.5 72t45.5 57q14 18 14 33q0 18 -20 32q-118 84 -150 105q-135 91 -199 210q-37 69 -37 142q0 68 33 139z" />
<glyph unicode="T" horiz-adv-x="454" d="M-250 1149q3 1 18 8t23 8q148 26 172 31q21 4 32 7t25.5 13t22.5 25q8 19 29 22.5t39 -6.5q29 -13 67 -15q15 -1 29 -1q21 0 39 2q72 3 120 3q24 0 42 -1h14.5h15t13.5 0.5t14.5 2t13 3.5t14.5 6t13 9q12 9 30 9q25 0 62 -18q87 -47 137 -131q-9 -29 -29.5 -40.5 t-46.5 -2.5q-21 7 -45.5 8t-41 -1t-45 -7.5t-40.5 -7.5q-24 -4 -42 -4q-19 0 -29 5q-19 9 -49 59l26 32q-4 11 -18 11q-23 0 -72 -25q6 -50 8 -55q14 -35 20 -78t6 -72.5t-1.5 -82t-1.5 -74.5q-1 -55 -11 -159.5t-12 -152.5q-1 -22 -1 -55t1 -77t1 -77t-1 -55 q-3 -51 -26 -244q-7 -52 -29 -131q-18 -68 -41 -114q-3 -2 -8 -2q-12 0 -31 14q-22 45 -22 127q0 43 0.5 122.5t0.5 144.5t-1 122q0 21 -4 59t-5 52l-18 335q-2 39 -10 117q-6 102 -15 209q-2 20 -12 61q-88 -27 -118 -46q-27 -18 -46 -44q-17 -24 -32 -27.5t-37 11.5 q-31 23 -42.5 32.5t-32 32t-27.5 47.5q-5 19 -5 43v13z" />
<glyph unicode="U" horiz-adv-x="997" d="M49 740q0 4 -0.5 10.5t0.5 15.5q6 41 32 56.5t60 -1.5q15 -6 41 -16.5t47 -19t39 -17.5q43 -22 58 -52q11 -23 11 -57q0 -11 -1 -24q-26 -305 -31 -424q0 -24 -0.5 -46.5t8 -49t27.5 -49.5q6 6 18 17t19 18.5t12 15.5q71 102 100.5 146.5t76.5 131.5t73 162 q51 148 51 295v21q0 31 2 53q3 28 9 64t10 73q1 7 6 56.5t6 74.5q0 42 29 51q90 29 106 35q32 -32 32 -70q0 -6 -1 -12q-10 -102 -21 -264q-2 -31 -6 -86.5t-7 -101.5t-5 -87q-1 -48 -1 -93q0 -74 3 -138q2 -24 2 -87.5t4 -98.5q14 -113 44.5 -176t84.5 -105q-36 0 -57.5 2 t-57 16t-63.5 41q-52 49 -85.5 150.5t-45.5 191.5q-27 -54 -29 -57q-5 -11 -25.5 -61.5t-33.5 -75.5q-57 -106 -101 -168q-41 -57 -107 -57q-12 0 -24 2q-5 0 -16 1t-16 1h-12q-110 0 -136 108l-21 75t-22.5 81t-17 74.5t-11.5 79.5q-2 35 -14.5 119.5t-13.5 131.5 q0 15 -9 42.5t-10 31.5q-1 7 -5 24.5t-5 25.5z" />
<glyph unicode="V" horiz-adv-x="698" d="M-84 754q121 -10 203 -49q79 -39 94 -111q9 -50 51 -232q33 -117 62 -165l22 -37q8 16 21.5 41t24 45.5t18.5 38.5q25 61 86.5 206t93.5 224q66 167 66 317q0 76 -17 148q-2 13 -8.5 39.5t-9.5 40.5q57 -3 84 -52q53 -91 53 -176q0 -17 -2 -35q-17 -138 -27 -192 q-45 -204 -82 -336q-6 -25 -15.5 -50t-24 -60.5t-19.5 -47.5q-9 -22 -41 -92.5t-47 -109.5q-13 -32 -13 -80v-9q0 -51 -53 -104q-7 -5 -17 -5q-12 0 -28 7q-70 27 -145 62l12 30q7 20 7 40q0 33 -19 63q-10 15 -37.5 70t-48.5 79q-27 30 -52.5 94t-39.5 86q-12 20 -48 83.5 t-57 97.5q-6 10 -21 27.5t-18 21.5q-17 19 -17 43q0 18 9 39z" />
<glyph unicode="W" horiz-adv-x="1026" d="M-98 774q14 25 38 25q9 0 19 -4q141 -47 240 -170q10 -10 10 -27v-10q-1 -52 17 -140q20 -98 22 -137q0 -6 6 -14.5t12 -9.5q6 -2 16 2t13 10q41 58 78 127q7 10 -2 33q-10 38 -0.5 55.5t45.5 20.5q10 1 20 1q82 0 150 -44q12 -10 22 -54q16 -87 99 -205q24 55 26 62 q10 32 37 113.5t43.5 141.5t24.5 118q25 205 28 247q2 17 2 33q0 122 -86 199q-1 1 -21.5 18.5t-25.5 23t-18 21t-19.5 29.5t-9.5 31q4 0 11 1t12.5 1t9.5 -2q129 -50 179 -124t56 -214q0 -15 -4 -19q-15 -15 -19.5 -35.5t-2.5 -38.5t-2 -40q-8 -27 2 -47q12 -18 12 -42 q0 -17 -6 -38q-1 -4 -3.5 -18t-3.5 -20.5t0.5 -17.5t6.5 -20q7 -11 0 -18q-12 -22 -16 -47t-4.5 -58.5t-2.5 -48.5q-2 -35 -1 -53.5t4 -53t4 -51.5q1 -5 5 -24t3 -29q-3 -41 -21 -170l-6 -47q-10 -60 -30 -72q-9 -5 -25 -4q-22 0 -58 8q-81 20 -147 80q-27 27 -27 45 q-2 13 -5.5 25t-11 26t-11.5 20.5t-15.5 23.5t-13.5 20q-15 22 -39 62l-33 55q-16 22 -32 41q-16 -10 -19 -15q-3 -8 -13.5 -35t-14 -37.5t-11.5 -34t-11.5 -38t-7.5 -35t-5 -39.5q-2 0 -2 -27q0 -18 1 -47l1 -73q0 -59 -35 -59q-16 0 -39 12q-1 0 -11 5t-11.5 6t-10.5 5.5 l-12 6t-10.5 6t-11 7t-10 6.5t-10.5 7.5t-8.5 8t-8.5 9.5q-16 20 -35 103q-9 35 -27 105.5t-27 105.5q-4 14 -14 40t-14 39q-16 49 -43.5 141t-40.5 132q-24 71 -68 110q-6 3 -12.5 16.5t-9.5 16.5z" />
<glyph unicode="X" horiz-adv-x="1021" d="M-41 -78q1 4 5.5 12.5t6 13.5t1 12.5t-6.5 14.5q6 13 10 15q63 31 93 76q30 9 66.5 50.5t58.5 53.5q13 6 27 18t22.5 21.5t23.5 27.5t21 25q9 12 24.5 37t24.5 37t30.5 32t30.5 31q10 12 23 47q4 17 -2 27q-20 21 -33.5 48.5t-26.5 66t-20 55.5q-18 39 -29.5 51t-28 7.5 t-49.5 -31.5q-22 -19 -38 -41q-17 -22 -27 -25.5t-35 2.5q-51 12 -72 19q-19 4 -26.5 12.5t-24.5 42.5q2 1 11 4.5t14 3.5q75 3 108 80q1 7 0.5 11.5t-3 14t-3.5 13.5q32 86 134 86q14 0 30 -2q72 -7 117 -29q41 -18 47 -59q5 -25 26 -53q3 -5 25 -48q19 -33 37 -51 q9 19 14 25q10 17 33 48.5t33 47.5q15 23 30 49.5t33 58.5t29 50q1 2 4.5 11.5t7.5 14.5q24 23 29.5 52t0 51.5t-19.5 56.5q-2 6 -7.5 20t-8.5 21q13 10 27 10.5t28 -10.5q6 -4 24 -17t26 -18.5t23.5 -17.5t24 -21t19.5 -21.5t19 -25.5q9 -14 10 -16q27 -53 27 -76 q0 -22 -39 -72q-14 -16 -43.5 -41.5t-34.5 -29.5q-20 -15 -23 -19q-8 -12 -17 -23t-21.5 -21.5t-20.5 -17t-24.5 -18.5t-22.5 -16q-19 -14 -19 -20q4 -23 -5.5 -38t-29 -29.5t-26.5 -23.5q-3 -3 -31 -20q0 -7 -1.5 -23t-1 -27t4.5 -20q10 -32 49 -108q3 -6 49 -72 q38 -48 58 -72q39 37 86.5 118t60.5 98q19 -12 23 -32t0 -36q-2 -24 -13 -70t-12 -53q-4 -32 -4 -51q-7 -139 -115 -189q-16 -8 -26 -10q-7 -1 -14 -1q-46 1 -100 35q-62 40 -83 89q-31 75 -69 139q-20 34 -45.5 33t-45.5 -35q-3 -4 -6 -13.5t-6 -12.5q-24 -29 -35 -29 q-12 -1 -21 -5.5t-13.5 -9.5t-12 -14.5t-10.5 -13.5q-32 -40 -88 -88q-65 -58 -121 -96q-51 -33 -129 -64z" />
<glyph unicode="Y" horiz-adv-x="710" d="M-109 186q18 4 34 4q44 0 79 -30q90 -78 129 -119q129 -132 318 -160q19 -3 33 -3q26 0 38 10q17 14 17 59v10q-6 106 -41 598q0 5 -2 11.5t-5 12.5t-9 18.5t-11 23.5q-40 -81 -55 -117q-7 -15 -16 -42t-13 -36q-27 -62 -59 -68q-3 -1 -7 -1q-29 0 -69 46q-54 60 -80 140 q-9 25 -16.5 57t-11.5 50.5t-11.5 61t-9.5 54.5q-29 153 -35 190q10 1 19 1q72 0 115 -43q41 -42 41 -113q0 -10 -1 -21q-4 -57 -4 -83v-15q2 -21 21 -72q10 -1 18 1.5t13 5t10.5 10.5t7 11t6.5 15t6 13q75 160 94 196q18 39 18 78q0 25 -8 51q-7 24 -7 43q0 40 28 62 q18 15 39 17q7 1 12 1q14 0 26 -4q15 -5 38 -16q89 -41 114 -123q8 -27 8 -54q0 -56 -34 -114q-14 -27 -25 -76q-51 -282 -51 -692v-60q0 -76 3 -120.5t19.5 -106t49.5 -110.5q6 -10 9 -23.5t4.5 -37t2.5 -30.5q-58 15 -220 134.5t-328.5 267t-240.5 237.5z" />
<glyph unicode="Z" horiz-adv-x="929" d="M39 137q4 16 24 19q40 5 79 25.5t59.5 38t60.5 58.5t53 54q40 37 82.5 89t65 84t70.5 106.5t61 93.5v10q-4 0 -11.5 0.5t-13.5 0.5t-10 -1q-49 -17 -84 -35q-66 -32 -94 -82q-31 -59 -77 -59q-31 0 -68 26q-51 34 -125 94q-32 25 -32 71q0 6 1 13q34 -12 66 -15 q10 -1 21 -1q23 1 48 5q37 6 58 12t65 20q33 10 73.5 18.5t70 13.5t77.5 12t72 11q1 0 16 3t19 4t15 4.5t18.5 7.5t15.5 10q31 26 66 26q37 0 77 -30q2 -1 20.5 -13.5t26.5 -19.5q28 -20 28.5 -50t-28.5 -44q-68 -34 -177.5 -120.5t-156.5 -115.5q-13 -7 -25 -18.5t-26 -28 t-22 -24.5q-49 -47 -148 -146q-3 -3 -16 -18t-21 -25q6 -2 16 -6t13 -4q19 1 38 1q187 0 421 -106q183 -88 315 -167q223 -135 512 -175q112 -15 135 -16q24 -2 52 -2t62.5 1t53.5 1q3 -10 3 -16t-3 -11q-3 -6 -5 -9.5t-9 -8.5t-9.5 -7t-11.5 -7q-13 -7 -28 -13t-26 -10.5 t-29.5 -9t-26.5 -6.5t-30 -5.5t-27 -4t-30.5 -4t-27.5 -3.5q-182 -25 -256 -34q-8 -1 -15 -1q-22 0 -40 9q-112 66 -141 90q-44 38 -94 70.5t-129 76t-103 58.5q-228 136 -412 172q-89 18 -184 18h-27q-37 0 -96 -47q-18 -16 -34 -16q-14 0 -27 12q-46 40 -64 63 q-11 13 -11 26q0 3 1 7z" />
<glyph unicode="[" horiz-adv-x="620" d="M184 1008.5q4 15.5 27 23.5q44 15 76 4q70 -23 186 -12q60 7 148 -23q7 -3 22 -13.5t19 -12.5q-17 -27 -36.5 -36t-47.5 -7q-52 3 -105 0q-49 0 -49 -47q-1 -12 -1.5 -51t-2.5 -60q-4 -56 -13.5 -171t-13.5 -175q-5 -53 -10 -404t-6 -380q20 -13 53 -15t63 -7t48 -28 q-7 -41 -68 -45q-37 -2 -59.5 -14t-30.5 -47q-79 32 -123 53q-21 11 -22.5 28.5t18.5 29.5q28 20 34.5 43t4.5 61q-5 93 -16 553t-17 571q-2 50 -15 87t-48 65q-19 14 -15 29.5z" />
<glyph unicode="\" horiz-adv-x="641" d="M8 977q-19 39 4 67q30 45 39 54t29 30t32 33t34 24.5t47 16.5q1 -10 3 -62t7 -77q6 -37 23.5 -106.5t19.5 -77.5q18 -82 51.5 -233t42.5 -193q6 -30 -8 -62q-14 -31 8 -59q2 -4 11 -14.5t11 -16.5q7 -25 18.5 -74.5t18.5 -74.5q26 -82 121 -431l105 -350q3 -10 8 -30.5 t8 -30.5l-12 -6q-2 5 -8 11.5t-7 8.5q-11 33 -54 153t-64 185q-9 26 -20 74.5t-17 68.5q-7 21 -34.5 91.5t-37.5 109.5q-7 25 -19.5 93.5t-25.5 103.5q-22 67 -69 191.5t-54 144.5q-1 3 -5 8t-5 8q-78 152 -103 203z" />
<glyph unicode="]" horiz-adv-x="620" d="M-41 975q4 2 19 12.5t22 13.5q88 30 147 23q117 -11 187 12q32 11 76 -4q23 -8 27 -23.5t-15 -29.5q-60 -49 -64 -152q-6 -110 -16.5 -570.5t-15.5 -553.5q-2 -38 4.5 -61t34.5 -43q20 -12 18 -29.5t-23 -28.5q-49 -24 -122 -53q-8 35 -31 47t-60 14q-60 4 -67 45 q18 23 48 28t63 7t53 15q-1 28 -6.5 379.5t-10.5 404.5q-4 60 -13 175.5t-13 170.5q-2 21 -2.5 60t-1.5 51q0 47 -50 47q-52 3 -104 0q-28 -2 -47.5 7t-36.5 36z" />
<glyph unicode="^" horiz-adv-x="604" d="M41 1096q82 31 134.5 59.5t94.5 71.5q26 29 76 20.5t62 -43.5q6 -14 13 -26t19 -24t18 -17.5t23 -19.5t21 -17q43 -38 53 -51q6 -6 8 -19t-2 -18q-14 -21 -39 -21q-22 2 -51 23q-78 57 -127 98q-31 27 -63 2q-31 -26 -131 -102q-25 -19 -38 -18t-28 24q-17 25 -43 78z " />
<glyph unicode="_" horiz-adv-x="657" d="M33 18v7q9 27 18 57q3 0 12 2.5t13 1.5q68 -15 181 -12.5t181 -1.5q19 -2 64 16q33 14 49.5 11t40.5 -29l35 -50q-21 -37 -62 -14q-36 20 -85 23.5t-87 -2.5q-47 -4 -99.5 -12t-120 -19t-99.5 -16q-26 -3 -35.5 5.5t-5.5 32.5z" />
<glyph unicode="a" horiz-adv-x="884" d="M76 -10q-5 23 -5 47q0 70 46 137q99 144 125 193q14 25 21.5 40.5t14.5 39.5t5 47.5t-13 48.5q54 11 77 11h2q23 0 50 -11q0 3 0.5 8.5t0.5 10t-1 7.5q-20 47 -59.5 133.5t-54.5 120.5q-21 43 -43.5 69t-59.5 38q-6 2 -12.5 7.5t-14 14.5t-12.5 13q58 42 113 42 q20 0 40 -6q74 -21 107 -110q73 -189 175 -479q11 -25 30.5 -75t22.5 -58q55 7 76.5 9.5t61.5 -1.5t71 -19q6 -4 12 -10.5t14 -16.5t11 -14q-22 -24 -57 -28t-69 -7.5t-53 -25.5q10 -32 32.5 -94.5t31.5 -89.5q-16 -2 -29 -2q-35 0 -57 12q-28 16 -43 59q-2 10 -9.5 44 t-13.5 52q-19 51 -48 60q-6 2 -13 2q-25 0 -60 -25q-27 -16 -57 -16q-15 0 -31 4q-20 8 -47 21q-19 -26 -28 -46q-11 -29 -31.5 -58t-35 -45t-48 -47.5t-43.5 -41.5q-15 -15 -33 -15q-11 0 -21 4q-30 12 -38 46zM391 272q27 -3 156 -16l-90 168q-56 -59 -66 -152z" />
<glyph unicode="b" horiz-adv-x="679" d="M-190 678q24 4 40 4q88 4 119 53q9 12 20.5 17.5t20.5 6.5t29 1q14 -1 28 -1q42 0 85 7q12 1 107.5 15.5t146.5 15.5h3q43 0 80 -24q38 -25 62 -68q10 -16 10 -36q0 -35 -33 -79q-34 -47 -106 -123q-3 -3 -45 -33q1 -4 4 -10t4 -10q10 -1 31.5 -6.5t27.5 -6.5 q4 -1 19.5 -3.5t20.5 -3.5t19 -4.5t20 -6t17.5 -6.5t19 -9t16.5 -11.5t16 -14.5q38 -40 38 -84v-6q-2 -48 -48 -80q-12 -8 -50 -36t-56 -40t-50.5 -31.5t-62 -31.5t-60.5 -19q-38 -11 -41 -53q-4 -24 -8 -72q-68 -1 -108 45q-38 42 -37 104v9q2 76 2 229q0 126 -9 261 q0 34 -10 92q-11 -2 -20 -4.5t-17.5 -7.5t-14.5 -8.5t-13.5 -11l-11 -11t-11 -12t-10.5 -11.5q-35 -37 -55.5 -37t-57.5 35q-38 38 -48.5 55.5t-22.5 61.5zM195 686q7 -9 24 -27t27.5 -32t15.5 -29t7 -35t1 -37.5t0 -38.5q11 -3 15 -8q9 15 29 39.5t26 32.5q41 74 61 129 q10 28 1 41t-40 16q-17 2 -33 2q-32 0 -58 -7q-40 -10 -76 -46zM256 254q-1 -5 -1 -12q0 -24 21 -66q75 43 108 73.5t44 65.5q-8 4 -20 4q-5 -1 -10 -1q-19 -2 -29 -5t-29 -9t-29 -9q-48 -17 -55 -41z" />
<glyph unicode="c" horiz-adv-x="632" d="M92 420q-1 16 -1 32q0 189 77 310q9 16 23 34.5t22 28t31 34.5t28 30q3 -1 11 -3t12 -3.5t6 -5.5q28 -30 96.5 -54.5t81.5 -31.5q62 -30 62 -101q-1 -11 -1 -22q0 -33 7 -68q3 -13 0.5 -55.5t9.5 -55.5q2 -7 1 -10t-6 -13.5t-7 -16.5q-20 12 -39 22q-17 12 -19 10 q-10 -8 -19.5 -7.5t-13 3.5t-11.5 13.5t-9 11.5q-5 4 -13 17t-13 18l-89 106q-55 -42 -63 -92q-18 -89 -18 -162q0 -24 2 -47q7 -64 34 -109q60 -89 119 -146.5t139 -86.5q3 -2 7.5 -4.5t11.5 -6.5t12 -7q-39 -13 -41 -13q-204 6 -323 142q-81 97 -90 217q0 4 -11 59 q0 3 -6 33z" />
<glyph unicode="d" horiz-adv-x="913" d="M-248 678q171 65 324 83q51 6 103 6q102 1 205 -23q155 -36 298 -130q147 -99 147 -293v-8q-3 -122 -108 -186q-36 -23 -59.5 -36.5t-59.5 -26.5t-70 -15q-8 -1 -20.5 -11.5t-19.5 -10.5q-55 0 -113 20q15 11 41 33.5t48 38t44 24.5q40 17 76.5 50t52 54t51.5 72 q49 70 49 129q0 19 -5 38q-21 75 -124 122q-105 48 -258 51q-49 1 -59 -14.5t10 -58.5q14 -32 14 -78q1 -30 1.5 -162t3.5 -203q0 -36 24 -102q7 -19 7 -35q0 -34 -31 -53q-17 -11 -33 -11q-27 0 -53 31q-64 81 -64 195q0 74 -3.5 210.5t-4.5 180.5q0 41 -8 55 q-29 38 -47 35q-97 -21 -140 -49q-52 -31 -83 -31h-2q-30 1 -74 41q-24 24 -60 68z" />
<glyph unicode="e" horiz-adv-x="655" d="M-47 793q64 -12 142 -19.5t125 -10t147 -6.5t129 -5q35 -2 131 -25q4 -1 8.5 -4t8 -6.5t8.5 -9t7 -7.5q-8 -12 -18.5 -17t-16.5 -5.5t-20 2t-18 2.5q-60 9 -122 9q-100 0 -204 -23q-4 -1 -9 -3.5t-12 -7.5t-12 -8q9 -12 27.5 -33t31 -37.5t21.5 -33.5q8 -16 14 -34.5 t14 -48t13 -46.5q8 -4 95.5 -27.5t131.5 -58.5q-15 -24 -38.5 -27t-42.5 2q-78 8 -117 10h-3q-39 -1 -55 -23q-16 -24 -20 -65q-1 -5 0 -11.5t3 -14t3 -11.5q3 -17 25 -112q63 4 94 10q72 7 139 7q109 0 205 -19q15 -3 48 -16.5t48 -18.5q-18 -9 -35.5 -20t-21.5 -13 q-10 -2 -39 8q-75 26 -154 26q-139 0 -290 -81q-16 -8 -34 -8q0 1 -2 1q-20 0 -28.5 3t-32.5 12q-97 38 -97 145q0 9 1 19q5 69 25 436q1 9 -3.5 25t-5.5 24q-88 20 -137 58t-57 117z" />
<glyph unicode="f" horiz-adv-x="397" d="M-184 975q8 8 10 6q14 -3 29 -4t26 -0.5t29 4t25.5 5.5t27.5 8t25 7q143 38 301 48q31 0 78 14q12 3 23 3q22 0 38 -13q15 -13 48 -36.5t48 -35.5q5 -5 10 -12.5t10.5 -17.5t8.5 -15q-35 -22 -60 -22q-6 0 -12 1q-10 3 -19.5 4t-20 0.5t-18.5 -1t-19.5 -3t-17.5 -4 t-18.5 -6.5t-17 -6.5t-18.5 -7t-17 -6.5q-13 -6 -26 -33q-40 -98 -40 -210q0 -21 1 -42q11 0 40.5 0.5t42.5 0.5t38.5 -2.5t41.5 -7.5t36.5 -15t37.5 -25q-38 -31 -94 -35q-12 -3 -26 -5t-30.5 -4t-25.5 -3q-34 -6 -47.5 -21.5t-13.5 -48.5v-112q0 -277 -6 -414 q-2 -41 -31 -203q-9 -29 -33 -57q-4 -6 -17 -8h-8q-8 0 -14 2q-14 7 -14 30q0 18 -5 100q-2 38 -2 63q0 27 3 38q3 31 3 74q0 53 -4 125q-7 113 -7 165v13q0 43 -1 166q-1 38 -1 71q0 79 3 138q3 85 15 166q2 24 18.5 68.5t20.5 64.5q-24 -9 -104 -43q-74 -38 -91 -50 q-17 -9 -31 -9q-17 0 -30 12q-27 31 -92 112q-2 4 -4 16t-2 13z" />
<glyph unicode="g" horiz-adv-x="755" d="M96 377q16 78 61.5 136.5t116.5 111.5q57 44 166.5 115.5t128.5 84.5q75 -18 105 -67q13 -18 8 -31q-2 -5 -10.5 -9t-14.5 -3q-14 2 -27 2q-44 0 -82 -18q-48 -23 -106 -70q-103 -79 -172 -140q-62 -62 -75 -157q-2 -11 -2 -22q0 -58 55 -99q39 -31 84.5 -41t109.5 -12 q15 0 23 10t6 25q-11 79 -25 129q-2 6 -8.5 11t-16.5 11t-15 10q-2 2 -11 10t-13 12.5t-3 8.5q3 10 12.5 21t18.5 14q65 16 125 16q22 0 43 -2q29 -4 60 -46q28 -38 28 -67q0 -9 -8 -52q-5 -31 -7 -46q-7 -23 -2 -46.5t27 -39.5q3 -2 4 -7l2.5 -12.5t3.5 -13.5 q-33 -4 -43 -23.5t-10 -53.5q-2 -61 -2 -185q-1 -22 -1.5 -91t-2.5 -107q0 -17 -17 -70q-15 2 -25.5 10t-14.5 14.5t-9 20.5q-34 83 -49 238q-4 35 -10.5 72.5t-16.5 85.5t-14 71q-3 25 -35 25q-37 2 -112 10q-74 3 -156 53q-78 52 -78 147q0 26 6 56z" />
<glyph unicode="h" horiz-adv-x="727" d="M6 713q-3 7 -3 14q0 11 8 19q12 12 32 6q20 -7 65 -20.5t78.5 -27t61.5 -32.5q66 -47 66 -119q0 -8 -1 -16q-2 -10 -6 -68q136 19 207 27q0 54 -2 63q-4 48 -15.5 144.5t-15.5 144.5q-3 82 -57 133q-1 1 -8.5 8t-9.5 9.5t-7 10.5t-5.5 14t0.5 15.5t5 20.5 q10 -3 31.5 -8.5t33.5 -9t29 -9.5t31 -12q65 -35 133 -86q30 -23 30 -42q0 -16 -13 -40q-18 -43 -21 -74q-4 -28 -6 -60t-3.5 -70.5t-2.5 -59.5q-6 -28 -1.5 -61t26.5 -56q2 -4 -9 -43q-1 -8 -7 -26.5t-7 -26.5q-6 -174 -14 -508q0 -68 -8 -125q-4 -50 -54 -55q-2 16 -2 37 l-18 430q-3 57 -21 213q-6 42 -18 51t-55 4q-27 -3 -60 -10q-92 -18 -92 -113q0 -134 -16 -188q-2 -4 -5.5 -13.5t-5.5 -14t-6.5 -10.5t-11.5 -8.5t-16 -3.5q-5 -1 -9 -1q-30 0 -43 38q-6 19 -22 60t-24 73q-7 28 -7 57v7t-1 10.5t-1 11.5q-30 138 -57 273q-14 62 -47 88 q-20 12 -23 35z" />
<glyph unicode="i" horiz-adv-x="282" d="M20 698q26 31 52 31q19 0 39 -16q33 -18 79 -58q9 -12 9 -27v-6q-2 -19 -25 -43t-59 -40q-61 54 -72 72.5t-23 86.5zM31 389q22 9 39 11q5 1 10 1q12 0 22 -4q16 -6 24.5 -11t27.5 -19q46 -35 46 -78q0 -11 -3 -23t-5 -42.5t-5 -84t-7 -98.5l-10 -66q-21 3 -39.5 23.5 t-24.5 48.5q-4 24 -8 66t-6 72t-2 36q-1 12 -1 38t-1.5 39t-6.5 32t-17.5 33t-32.5 26z" />
<glyph unicode="j" horiz-adv-x="358" d="M-215 35q60 -50 113 -74q46 -21 101 -21h16q64 4 130 44v64q0 177 -14 310q-5 6 -1.5 44t3.5 44l-31 426q-6 66 -49 115q-16 20 -45 66q20 12 21 12q102 -11 151 -49q92 -84 127 -139q11 -19 11 -35q0 -13 -7 -25q-12 -24 -12 -55q-1 -40 -13 -111.5t-14 -101.5 q0 -19 -5 -78t-5 -84q0 -62 -2.5 -153t-3.5 -119q0 -50 4 -144q0 -117 2 -139q3 -15 8.5 -31t14 -36t12.5 -31q12 -27 -4 -51q-21 -28 -31 -32q-3 -1 -10 -1q-11 0 -33 4l-59 12q-67 13 -87 22.5t-75 49.5l-8 8q-13 46 -70 76q-18 8 -46 36.5t-32 32.5q-50 45 -57 144z" />
<glyph unicode="k" horiz-adv-x="747" d="M-76 655q39 20 78 20q48 0 96 -30q9 -6 70 -24q21 -63 57 -144q27 21 31 25l223 237l16 16t16 17.5t8 15.5t1.5 20.5t-12.5 20.5q20 18 39 18q18 0 35 -16q61 -52 82 -81q16 -21 16 -44q0 -10 -2 -20q-10 -36 -47 -53q-26 -11 -55.5 -28.5t-45.5 -28t-53 -37.5t-45 -33 q-18 -11 -36.5 -26t-42 -37t-36.5 -33l45 -27q14 -10 41 -25.5t47.5 -30t34.5 -30.5q45 -50 101 -85.5t135 -72.5q19 -9 366 -178q4 -1 8 -6t6.5 -9t6 -12t4.5 -10q-3 -2 -16 -11t-19 -9q-65 -1 -121 -3h-18q-48 1 -100 9q-62 10 -113 35q-66 32 -154 106q-26 22 -71.5 70 t-50.5 53q-15 15 -33.5 30t-32.5 24.5t-40 24t-37 20l-44 22l-41 20.5q-9 -28 -12 -47q-1 -16 -1.5 -46.5t-1.5 -55t-3 -45.5q0 -4 -0.5 -16t-1 -16.5t-1.5 -15t-3 -16t-5.5 -14t-8 -13.5t-11.5 -11t-16 -11q-72 39 -72 111q0 16 4 35q3 15 4.5 31t2.5 28t1.5 30.5t0.5 28 t-1 30.5t-1 27.5t-1.5 31t-1.5 28.5q-4 12 -4 17q0 56 -20.5 92.5t-61.5 72.5q-1 0 -13.5 10t-14.5 11.5t-12.5 10t-13.5 12.5t-10 11.5t-11 14t-7 14.5z" />
<glyph unicode="l" horiz-adv-x="649" d="M-72 989q23 29 65 29q12 0 25 -2q148 -26 256 -146q37 -40 37 -92q0 -13 -2 -28q-7 -51 -27 -147.5t-29 -174.5q-5 -45 -6 -88q0 -31 3 -61q4 -10 3 -42t-3 -48t-6.5 -49t-5.5 -46q8 -1 37 -7t39.5 -7t33.5 -3.5t42.5 -1t41.5 4.5q7 1 37.5 5t40.5 7q40 14 69 14 q17 0 31 -5q36 -13 74 -66q-28 -40 -39.5 -45.5t-52.5 -1.5q-13 1 -26 1q-32 0 -68 -5q-96 -11 -158 -23q-28 -3 -53 -22q-24 -15 -45 -15q-17 0 -31 10q-44 28 -72 56q-31 29 -31 65q0 26 17 56q16 24 16 47l-18 268q-2 43 -6 125q-6 132 -6 260q0 52 -39 78 q-20 15 -144 100z" />
<glyph unicode="m" horiz-adv-x="968" d="M6 657q36 4 67 4q47 -1 85 -9q64 -14 114 -64q15 -13 19 -43q13 -69 13 -147q0 -39 -3 -79q-3 -33 -10 -103t-10 -107q0 -21 -11 -43q-17 -39 -20 -39q-35 4 -51 26q-38 56 -41 127q-3 87 -25 307q-3 53 -47 88q-15 13 -42 42t-38 40zM276 621q39 24 80 24q8 0 17 -1 q50 -6 82 -44q27 -31 39 -31.5t43 29.5q116 124 170 186q11 12 15 29t3.5 26t-5 33.5t-5.5 28.5q-1 5 -7 29t-6 37q0 40 27 40q10 0 25 -6q53 -18 114 -51q32 -20 43 -64q4 -16 4 -30q0 -25 -12 -47q-14 -28 -14 -39q-38 -178 -51 -281q-12 -92 -12 -163q0 -15 1 -29 q2 -172 55 -475q8 -40 5 -60q-7 -33 -23 -55q-2 -4 -28 -4q-16 11 -13 25q2 23 2 40q1 15 -1 25q-4 21 -16 63t-15 64q-52 269 -62 311q-10 53 -13 151.5t-5 123.5q-1 15 -1 57t-5 66q-18 -25 -19 -27q-20 -42 -33 -66.5t-36.5 -56t-51.5 -53.5q-29 -21 -45.5 -22t-46.5 20 q-60 42 -98 102q-11 16 -27.5 32t-39 34t-34.5 29z" />
<glyph unicode="n" horiz-adv-x="667" d="M-14 694q131 0 180 -67q72 -105 184 -187q6 -4 35 -32t53 -35q1 5 3.5 17t2.5 18q-4 300 -8 452q0 22 -18 74q-2 7 -25 59l13 13q3 -2 17.5 -7t20.5 -10q60 -58 96.5 -106t53.5 -109q2 -6 2 -13t-1 -15.5t-1 -14.5q-8 -77 -10 -108q-7 -89 -11 -222q0 -2 -4 -22 q-15 -275 -20 -328t-35 -178q-8 -36 -42 -36q-6 0 -13 1q-1 12 -6.5 87t-6.5 116v147q-5 43 -18 56q-30 33 -156 149q-2 5 -16 8q-31 -80 -41 -180v-168v-11.5t-2 -10.5t-7.5 -12.5t-15.5 -8.5q-19 34 -26 58q-44 142 -62 364q-7 92 -49 150q-12 17 -32.5 54t-34.5 58z" />
<glyph unicode="o" horiz-adv-x="655" d="M63 584q3 11 11.5 15.5t21 6t17.5 4.5t10 8.5t10.5 13.5t7.5 11q1 1 10.5 9.5t12 10t10.5 6.5t13 5t13.5 -1t16.5 -5h16q27 15 57 16h8q28 0 62 -6q40 -7 58 -8q68 -2 180 -25q35 -7 40 -21q1 -4 2 -9q0 -15 -11 -40q-7 -19 -11.5 -40.5t-9 -52t-6.5 -42.5 q-7 -61 -14.5 -98t-28.5 -84.5t-55 -83.5q-11 -12 -28.5 -38t-29.5 -38q-30 -28 -120 -92q-4 -4 -10 -4q-2 0 -5 -1l-9 1q-6 1 -13 0q-97 6 -129 92q-8 21 -29 69.5t-31 74.5q-8 23 -12 73q-2 17 -7.5 45.5t-8 45t-4 45t3.5 45.5q1 6 -4 32q-6 52 -5 60zM174 389 q-7 -32 -7 -63q0 -71 36 -133q21 -34 39 -43q9 -4 21.5 -4.5t29.5 4.5q48 12 69 30q69 53 109 102.5t49 118.5q2 10 2 20q0 29 -13 62q-17 45 -46 58q-17 7 -38.5 12.5t-50 11.5t-44.5 10q-42 -12 -45 -14q-42 -42 -56 -67q-47 -67 -55 -105z" />
<glyph unicode="p" horiz-adv-x="540" d="M76 993h10q103 0 170 -59q14 -10 41 -37q49 -46 101 -46q13 0 26 3q23 4 45 4q60 0 111 -31q26 -16 59 -49q25 -28 25 -60q0 -18 -9 -38q-3 -6 -11 -22.5t-11.5 -24t-11.5 -21t-15 -21.5t-17 -17.5t-22 -16.5q-10 -5 -20 -14t-20.5 -20.5t-16.5 -16.5q-48 -45 -92 -47 q-6 0 -13 -3t-16 -8.5t-12 -7.5q-28 -18 -54 -18q-25 0 -49 16q-2 -10 -7 -30.5t-5 -30.5q0 -29 4 -86.5t4 -85.5q0 -154 19 -256v-21t-5 -21l-5 -18q-14 -3 -23 -3q-2 -1 -3 -1q-8 0 -16 3q-9 4 -14 7.5t-13.5 14t-13.5 18.5t-17 26t-21 32q1 6 6.5 22.5t5.5 24.5 q0 147 -8 200q-22 169 -22 297q0 32 1 62q1 29 1 56q0 104 -21 175q-4 12 -4 39q-2 28 -3 39.5t-9.5 32.5t-24.5 35q-2 1 -2.5 4t-0.5 9.5t-1 10.5zM273 551q-2 -14 -2 -27q0 -27 8 -53q64 10 164.5 100.5t148.5 178.5q-32 35 -73 35q-7 0 -13 -1q-29 -7 -94 -28 q-13 -4 -20 -7.5t-12 -14t-1 -25.5q8 -27 -37 -39l-35 -6q-28 -72 -34 -113z" />
<glyph unicode="q" horiz-adv-x="794" d="M96 377q3 32 9.5 67t17 78.5t14.5 65.5q6 19 6 37q0 21 -8 39q-1 3 -4 9.5t-4.5 10t-4 9.5t-3 9.5t-1 8t1 8t3.5 6.5q25 10 90.5 33t97.5 37q99 48 201 48q88 0 178 -36q21 -8 96 -27q1 0 18.5 -4t24.5 -8q32 -14 32 -43q0 -12 -5 -25q-4 -26 -14 -34q-27 -30 -46 -68.5 t-38 -92.5t-29 -77q-59 -131 -117 -244q-4 -9 -19 -26t-22 -27q45 -32 123 -80q23 -14 126 -72.5t153 -95.5q19 -14 43 -24.5t56.5 -21.5t47.5 -17q19 -8 58 -25.5t59 -25.5q37 -13 37 -37q0 -6 -2 -13q-20 -45 -52 -45h-3q-59 0 -95 7q-66 9 -104 9q-15 0 -25 -1 q-3 -2 -13 -0.5t-13.5 1.5t-14 3.5t-13.5 4t-13.5 5l-14 6t-13.5 6.5t-13 6q-15 6 -28.5 13.5t-27 18t-24 18.5t-24 22t-21 21.5t-21.5 24.5t-19.5 23t-20.5 25.5t-19 24.5q-83 100 -141 137q-34 20 -44.5 19.5t-41.5 -25.5q-49 -39 -60 -49q-41 -31 -92 -31q-23 0 -47 6 q-81 20 -115 86q-50 95 -50 223q0 47 7 99zM242 319q58 -6 107 -31t108 -71q26 41 54.5 90t47 82t50.5 91t46 83q-1 3 -5.5 17t-6 18t-6.5 16.5l-7 17.5t-7.5 15t-9.5 15t-10 13.5t-12.5 13.5t-14.5 10.5t-17 9.5q-17 8 -82 30q-21 9 -41 9q-19 0 -38 -8q-37 -16 -54 -58 q-2 -8 -12.5 -23t-12.5 -18q-78 -117 -78 -292q0 -15 1 -30zM250 236q0 -72 45 -134q38 30 76 54q-71 64 -121 80z" />
<glyph unicode="r" horiz-adv-x="645" d="M-332 633q4 3 32 6.5t74 13.5t87 27q22 9 74 27.5t83 31.5q5 19 7 41q27 -12 57.5 -13.5t53 3t55.5 12.5t53 11q41 5 83 5q107 0 226 -34q29 -5 61 -29q30 -23 33 -44.5t-18 -51.5q-20 -30 -49 -62t-46.5 -48.5t-61 -54.5t-54.5 -48q-20 -16 -76 -72q122 -111 125 -114 q18 -18 75.5 -77.5t90.5 -90.5q48 -44 82 -64q26 -15 366 -203q18 -12 33 -24l25 -31q-33 -21 -41 -22q-17 -5 -33 -5q-7 0 -14 1q-122 21 -215.5 61t-165.5 117q-59 61 -180.5 175t-133.5 126q-6 5 -75 53q-3 -18 -3 -44q0 -52 11 -138q7 -54 7 -93q0 -54 -13 -81 q-70 15 -114 69t-44 117q0 88 -12 256q0 7 -2.5 35.5t0.5 34.5q2 16 2 32t-2 32q-4 33 -15 77t-14 63q0 1 -1 2.5t-2.5 2.5t-4 3t-4.5 5q-6 -4 -26 -16.5t-27.5 -17.5t-24 -17t-25.5 -21t-21 -22.5t-20.5 -29t-15.5 -32.5q-27 18 -79.5 44t-93 53t-69.5 63zM229 702 q21 -21 30 -46.5t8 -48t-1 -48.5q-4 -19 -3 -49t16 -55q10 9 26.5 21.5t27.5 22t19 19.5q16 21 78 117q3 5 9.5 15.5t9 15t8 16t5.5 16.5q2 6 4 18q1 6 1 11q0 6 -2 10q-34 8 -69 8q-81 0 -167 -43z" />
<glyph unicode="s" horiz-adv-x="671" d="M84 764q11 23 35 43l248 209q20 17 53.5 17t58.5 -19q57 -46 94 -74q1 -1 6.5 -4.5t6.5 -7.5q32 -100 35 -109q1 -7 -2.5 -22.5t-4.5 -20.5q-126 41 -143 45q-18 3 -35 3q-36 0 -69 -13q-5 -2 -17 -6.5t-19 -7t-17 -4t-19 -0.5q-22 1 -34.5 -7t-22.5 -26q-10 -21 -32 -61 t-32 -60q-10 -22 -10 -42q0 -40 39 -73q15 -14 55.5 -46.5t60.5 -51.5q4 -4 209 -182q11 -9 29 -41q13 -23 14 -36t-4 -21.5t-26 -34.5q-55 -67 -133 -78q-7 -1 -20 -10t-19 -11q-9 -5 -29 -15.5t-31 -16.5q-29 -74 -112 -91q-10 -2 -18 -2q-29 0 -42 27q-7 15 4 43t27 29 q29 4 50.5 21t43 45t35.5 40q20 18 50.5 58t41.5 53q24 31 -6 55q-104 74 -127 88q-115 77 -168 180q-32 59 -32 121q0 57 28 117z" />
<glyph unicode="t" horiz-adv-x="387" d="M-213 977q3 1 10 4.5t13.5 6t11.5 3.5q122 20 147 25q17 4 26 7t22 11t20 21q7 15 25 19q5 1 9 1q12 0 23 -6q26 -12 57.5 -13.5t57.5 1.5q61 3 101 3q20 0 36 -1h14.5h15t13.5 0.5t14.5 2.5t12.5 5t14 8q11 8 27 8q21 0 51 -14q75 -41 117 -111q-11 -40 -42 -40 q-10 0 -22 4q-18 6 -39.5 6.5t-34.5 -1.5t-39 -7.5t-34 -6.5q-44 -6 -60.5 2t-42.5 50q15 15 23 28q-3 9 -15 9q-19 0 -61 -21q0 -2 2 -20.5t4 -26.5q12 -30 17.5 -67t5.5 -61t-1 -70.5t-1 -63.5q-1 -47 -10 -135.5t-11 -128.5v-34v-79q1 -34 1 -60q0 -34 -1 -53 q-1 -31 -4.5 -64.5t-9.5 -78t-8 -64.5q-3 -28 -25 -110q-14 -57 -35 -98q-2 -2 -6 -2q-9 0 -26 12q-19 39 -19 108v330q0 19 -3.5 51.5t-4.5 42.5q-2 49 -7 145t-7 142q-1 14 -11 98q-2 61 -10 178q-3 21 -12 52q-38 -11 -55 -17t-42.5 -21.5t-41.5 -37.5q-15 -23 -34 -23 q-12 0 -26 9l-13 10q-13 10 -14 11t-12.5 10.5t-13 12.5t-10.5 12t-10.5 14t-7 15t-6.5 18q0 9 -2 19q-1 6 -1 12v9z" />
<glyph unicode="u" horiz-adv-x="847" d="M41 651q6 35 28.5 48t51.5 -1q13 -6 49.5 -21t56.5 -24q37 -18 50 -44q9 -19 9 -46q0 -10 -1 -22q-22 -262 -25 -361q0 -21 -1 -40t6.5 -42t23.5 -43l43 43q4 6 23.5 35t25 37t23 35t24 38t22 35.5t22.5 38.5t19.5 36.5t20 40t16 38.5t15.5 41q43 122 43 252 q0 38 2.5 62.5t7.5 54.5t8 61q8 80 10 113q0 33 25 43q10 3 42.5 12.5t47.5 15.5q28 -28 28 -59q0 -5 -1 -10q-6 -64 -19 -223q-1 -29 -7 -109.5t-7 -124.5q-1 -42 -1 -80q0 -63 3 -116q1 -14 1 -71t3 -89q13 -94 39.5 -148t71.5 -90q-31 0 -49.5 1.5t-48.5 13.5t-54 36 q-45 41 -74 126.5t-39 162.5q-16 -33 -24 -47q-43 -104 -49 -117q-50 -91 -86 -143q-35 -48 -92 -48q-9 0 -19 1l-29 2h-11q-90 0 -113 92q-6 21 -18 63.5t-19 68.5t-14.5 62.5t-10.5 67.5q-2 33 -12.5 104.5t-11.5 110.5q0 12 -7 34.5t-8 27.5q-1 7 -5 22q-2 14 -4 24 q-1 6 -1 12v7z" />
<glyph unicode="v" horiz-adv-x="593" d="M-72 641q106 -11 172 -43q67 -29 80 -92q5 -31 45 -199q25 -97 51 -139l21 -33q9 20 27 55t26 52q21 52 73.5 174.5t80.5 191.5q55 142 55 271q0 64 -14 125q-2 10 -8 32t-9 35q47 -3 72 -43q47 -80 47 -152q0 -14 -2 -28q-3 -18 -7 -52t-8 -61t-9 -51q-31 -150 -70 -285 q-4 -21 -12.5 -43.5t-20 -50.5t-16.5 -41q-4 -10 -33 -74t-43 -98q-10 -25 -10 -67q3 -29 -9 -51t-36 -46q-3 -3 -13 -3q-2 1 -4 1q-13 0 -22 4q-70 29 -123 52q6 18 10 26q6 18 6 35q0 28 -16 53q-9 14 -32 60.5t-42 66.5q-23 25 -44.5 80.5t-33.5 73.5q-8 14 -39 68.5 t-49 82.5q-6 9 -17.5 24t-14.5 19q-17 17 -17 38q0 15 8 32z" />
<glyph unicode="w" horiz-adv-x="872" d="M-84 657q18 29 49 19q122 -42 203 -146q10 -7 10 -22v-10q0 -46 14 -120q16 -84 19 -114q0 -5 5 -12t11 -8q5 -2 13.5 2t9.5 8q35 50 67 108q7 10 -2 27q-8 34 0 48.5t39 17.5q10 1 19 1q68 0 125 -38q14 -11 18 -45q14 -73 84 -174q4 9 9.5 19.5t9 18t4.5 13.5 q7 24 24.5 76t27.5 82.5t21 75.5t17 83q24 207 24 211q1 14 1 27q0 105 -72 170q-2 2 -19 16t-21.5 19t-15.5 17.5t-16 24.5t-8 27q3 0 8.5 1t9.5 1t8 -2q109 -42 152.5 -105t48.5 -181q0 -13 -4 -17q-12 -12 -15.5 -27.5t-3.5 -37t-2 -31.5q-8 -23 3 -41q10 -14 10 -34 q0 -15 -6 -34q0 -5 -2 -15t-2.5 -16.5t0.5 -16t4 -17.5q3 -3 3 -7.5t-3 -6.5q-10 -19 -13.5 -41t-3.5 -49.5t-2 -41.5q-1 -30 -0.5 -45t3 -44.5t3.5 -43.5q1 -5 3 -14.5t3 -17.5t0 -15q-3 -40 -16 -143l-6 -41q-10 -51 -26 -60q-7 -4 -21 -4q-19 0 -49 7q-69 17 -125 67 q-23 28 -23 39q-2 11 -5 21.5t-9 21.5t-10.5 17.5t-13 19.5t-11.5 18q-11 17 -30 50t-31 49q-5 8 -27 34q-13 -7 -16 -12q-4 -10 -14 -35.5t-14.5 -38t-11 -34t-10 -40.5t-4.5 -38q-2 -18 -2 -39t1 -46.5t1 -39.5q-1 -37 -15 -47q-6 -4 -13 -5q-14 0 -35 11q-67 35 -88 59 q-6 7 -11.5 18.5t-8 20.5t-6 25t-5.5 22q-29 121 -45 181q-3 13 -12.5 36.5t-12.5 30.5q-7 24 -31 105.5t-38 126.5q-21 60 -57 94q-6 2 -12 12.5t-9 13.5z" />
<glyph unicode="x" horiz-adv-x="868" d="M-35 -66l5 10t5 12t0.5 11t-4.5 13q5 10 9 12q53 24 77 63q25 8 56.5 44t50.5 46q11 5 23 15t18.5 17.5t20.5 24t18 21.5q9 10 22 32t19 30q8 10 26.5 27.5t26.5 27.5q9 11 18 39q4 16 -2 22q-17 18 -28 41.5t-22.5 58t-16.5 46.5q-20 46 -35 50t-55 -28q-23 -19 -33 -34 q-13 -19 -22 -22t-31 3q-40 8 -60 14q-16 4 -22.5 11t-22.5 37q3 1 10.5 4.5t12.5 3.5q63 0 92 67q0 1 -6 33q29 73 117 73q11 0 22 -1q63 -7 100 -25q33 -14 39 -51q5 -20 23 -45q2 -3 20 -39q24 -36 33 -45q2 9 12 22q9 15 29 42.5t27 37.5l77 136q2 3 5.5 11t5.5 11 q20 19 25 43.5t0 44t-17 47.5l-12 35q12 10 23.5 10t23.5 -10q2 -1 17 -12t19 -13.5t16.5 -12t18 -15t15 -14.5t16 -17.5t12.5 -17.5q1 -1 4.5 -6.5t4.5 -8.5q22 -44 22 -63q0 -18 -33 -62q-11 -13 -33.5 -32.5t-31.5 -28.5q-14 -7 -21 -14q-8 -13 -20.5 -26t-19.5 -19 t-26.5 -20t-23.5 -17q-16 -16 -16 -19q4 -19 -4.5 -31.5t-24.5 -24.5t-22 -20q-5 -5 -14.5 -10.5t-12.5 -7.5q0 -5 -1 -18.5t-0.5 -23t3.5 -17.5q4 -15 11 -30t16.5 -34.5t13.5 -28.5q6 -11 43 -59q17 -24 49 -61q31 30 70.5 96.5t54.5 85.5q16 -9 19 -27t-1 -30 q-2 -20 -10 -56.5t-10 -48.5q-4 -28 -4 -43q-7 -119 -96 -160q-17 -8 -23 -10h-9q-40 0 -88 30q-54 34 -71 75q-30 71 -59 118q-17 29 -38 28t-38 -30q-3 -3 -5.5 -11.5t-4.5 -10.5t-7.5 -8t-8.5 -8.5t-7 -5.5t-8 -3q-13 0 -21 -4.5t-16.5 -16t-11.5 -14.5q-20 -26 -74 -75 q-56 -49 -102 -82q-67 -38 -111 -54z" />
<glyph unicode="y" horiz-adv-x="604" d="M-92 158q15 4 28 4q37 0 68 -27q93 -83 109 -100q114 -114 270 -135q44 -8 60 5.5t16 57.5q-6 79 -17.5 249t-17.5 259q0 5 -3 12t-9 19.5t-11 25.5q-30 -58 -47 -100q-7 -13 -14.5 -36.5t-9.5 -29.5q-16 -35 -33 -49t-37 -7t-45 36q-48 54 -70 119q-14 44 -41 190 q-18 94 -28 162q8 1 15 1q61 0 97 -37q36 -36 36 -95q0 -9 -1 -18q-5 -50 -5 -72q0 -8 1 -12q2 -19 19 -62q7 0 13 0.5t10.5 4t8 6t6.5 8t4.5 8.5t4.5 10.5t4 9.5q11 23 38 81t42 87q15 31 15 64q0 22 -7 45q-8 23 -5.5 48t23.5 42q15 13 33 14q6 1 10 1q13 0 22 -3 q14 -4 34 -14q75 -35 95 -105q6 -23 6 -45q0 -49 -28 -98q-13 -23 -20 -64q-43 -235 -43 -579v-59q0 -64 2.5 -102.5t16 -91t40.5 -93.5q11 -18 15 -78q-76 20 -324 222t-346 321z" />
<glyph unicode="z" horiz-adv-x="790" d="M33 116q3 14 20 17q34 4 67 21.5t51 33.5t50.5 49t46.5 46q34 32 70 75.5t56 72t59.5 88.5t52.5 79v10h-31q-62 -25 -72 -30q-56 -25 -79 -70q-26 -51 -64 -51q-26 0 -59 24q-57 38 -107 80q-27 21 -27 59q0 6 1 13q35 -13 73 -14q3 0 5 1q42 1 67.5 7.5t73.5 21.5 q36 11 74.5 19t98.5 16.5t77 11.5q5 1 18 3.5t19 4.5t16 6.5t18 10.5q27 23 56 23q31 0 65 -27q1 0 17.5 -10.5t23.5 -16.5q24 -17 24 -43t-24 -37q-57 -29 -150 -101.5t-135 -98.5q-11 -6 -21.5 -16.5t-21.5 -24.5t-18 -21l-127 -123q-10 -13 -31 -37q24 -8 25 -8 q15 1 31 1q156 0 358 -91q149 -70 268 -143q198 -118 436 -148q10 -1 51 -7t64 -7h143q2 -5 2 -10q0 -7 -4 -13q-6 -10 -9.5 -13t-18.5 -13l-20 -10t-22 -8.5t-20.5 -6.5t-22 -5.5t-20.5 -4t-22.5 -4t-20.5 -3t-22.5 -3t-20.5 -2.5l-219 -31q-33 0 -47 8l-30 18t-32 19 t-28 18t-29 21q-29 25 -67 50.5t-65.5 41.5t-74.5 42.5t-69 39.5q-191 116 -350 147q-74 15 -154 15h-27q-28 0 -82 -39q-27 -27 -51 -4q-39 35 -55 53q-9 12 -9 23q0 2 1 5z" />
<glyph unicode="{" horiz-adv-x="581" d="M165 94.5q-3 11.5 13 52.5q4 0 12.5 1.5t12.5 1.5q40 -1 59 11.5t33 49.5q31 79 4 180q-36 151 -31 258q7 137 76 232q6 7 20 27t21 29t21 25.5t25 26.5t27.5 22t33.5 21l131 -71q-12 -40 -54 -29q-46 11 -88 -31q-4 -4 -32.5 -33.5t-42.5 -46.5q-78 -101 -70 -213 q2 -16 4.5 -52t6 -63.5t9.5 -52.5q33 -137 -12 -282q-11 -36 -8 -64q16 -120 -6 -313q-9 -89 20 -225l31 -136q-39 0 -59 41q-74 138 -74 273q-2 86 -10 268q-1 17 -3.5 28t-11 22t-24.5 18q-31 13 -34 24.5z" />
<glyph unicode="|" horiz-adv-x="385" d="M123 1249q68 -17 131 -127q8 -19 8 -51q-4 -146 -8 -219l-31 -467q-8 -119 -10 -186q-12 -257 8 -402q4 -16 -6 -59q-4 -26 -5.5 -36.5t1 -30.5t10.5 -38q4 -9 5.5 -20t0.5 -27t-2 -25.5t-4 -30.5t-4 -26q-1 -9 -3.5 -25t-4 -25.5t-1 -23.5t4.5 -28q2 -26 3 -29.5t-4 -32 t-5 -32.5q-1 -6 -5.5 -12t-13.5 -16t-16 -21q-1 41 -2 116t-2 111q-1 58 -4 160.5t-5 186.5t-3 159q-2 152 -2 459q-3 327 -9 647q0 22 -3.5 46t-9.5 55t-9 50z" />
<glyph unicode="}" horiz-adv-x="581" d="M-41 961l131 71q21 -11 38 -23t34.5 -31.5t25 -28.5t27.5 -36.5t23 -31.5q68 -94 75 -232q5 -111 -30 -258q-27 -101 4 -180q14 -37 33 -49.5t59 -11.5q4 0 12 -1.5t12 -1.5q16 -41 13.5 -52.5t-33.5 -24.5q-16 -7 -24.5 -18t-11 -22t-3.5 -28q-8 -182 -10 -268 q0 -135 -74 -273q-20 -41 -59 -41l30 136q30 139 21 225q-22 193 -6 313q3 28 -8 64q-45 147 -13 282q6 25 9.5 52t6.5 64.5t5 51.5q8 112 -70 213q-13 17 -41.5 45t-34.5 35q-42 42 -88 31q-41 -11 -53 29z" />
<glyph unicode="~" horiz-adv-x="974" d="M61 244q127 77 142 88q148 108 307 28q1 -1 10.5 -4.5t14.5 -7.5q50 -32 104.5 -35.5t98 13t96.5 49.5q11 7 35.5 24t44 29t40.5 21q-1 -2 -7 -18.5t-11 -24.5q-56 -92 -166 -162q-94 -57 -195 -27q-76 24 -151 59q-100 49 -176 -18q-18 -16 -68 -51q-31 -24 -41.5 -24 t-40.5 26z" />
<glyph unicode="&#xa0;" />
<glyph unicode="&#xa1;" horiz-adv-x="411" d="M104 500q6 20 46 20q127 -6 133 -166q-45 4 -75 15.5t-50 42.5q-5 6 -22.5 18t-22.5 21q-16 24 -9 49zM127 -362q19 83 20 102q3 48 13 293q1 19 1.5 54t1.5 64t3 54q0 24 9.5 37.5t37.5 13.5q8 -37 10 -51q2 -20 19.5 -153.5t23.5 -203.5q4 -45 8.5 -135.5t8.5 -136.5 q1 -15 5 -30.5t11 -36.5t10 -33q-56 -11 -102 35q-7 8 -62 63q-25 22 -18 64z" />
<glyph unicode="&#xa2;" horiz-adv-x="684" d="M115 362q33 94 157 189q37 28 56 54.5t22 64.5q2 30 13 87.5t12 65.5q57 3 82 -24.5t12 -79.5q-4 -13 -13.5 -37t-13.5 -37q-19 -51 -12.5 -75t47.5 -62q12 -10 55 -64q-74 -12 -79 -12q-69 -3 -84 -67q-36 -139 -47 -185q-9 -42 4 -56.5t55 -10.5q27 3 57 9t65.5 15 t55.5 13l41 14q4 -17 -2 -31t-11.5 -19t-19.5 -16q-93 -79 -219 -100q-60 -9 -71.5 -22.5t-16.5 -75.5q0 -29 -2 -33q-10 -24 -22 -27q-7 -1 -17.5 4t-15.5 11q-43 69 -15 118q27 49 -14 93q-24 31 -41 73q-51 129 -18 223zM209 260.5q-1 -14.5 7.5 -36t31.5 -36.5 q15 20 25 46.5t13 42t7.5 55.5t5.5 51q-42 -5 -59.5 -26t-24.5 -56q-5 -26 -6 -40.5z" />
<glyph unicode="&#xa3;" horiz-adv-x="1118" d="M111 227q5 62 50 114t99 58q61 7 98 -28q3 -2 8.5 -7.5t8.5 -7.5q32 -26 45 -20.5t24 45.5q6 28 20.5 82t16.5 61q8 34 -3 45.5t-46 5.5q-37 -10 -41 -14q-43 -38 -102 0q-34 22 -111 90q-3 2 -12 29h291q45 0 60 12.5t26 55.5q7 23 29 103.5t33 118t34.5 99t48.5 111.5 q95 -16 109 -21q122 -44 196 -164q2 -4 25 -61q3 -11 10.5 -36t11.5 -38q18 -43 -18 -72q-2 1 -12 7.5t-15 11.5q-119 114 -143 135q-35 32 -56.5 28.5t-41.5 -46.5q-22 -43 -59 -126t-54 -118q56 -17 107 -31q-26 -26 -72 -26q-51 0 -66 -50q-11 -33 -41.5 -118t-46.5 -133 q-9 -29 -4 -42t31 -26q244 -119 432 -205q24 -10 77 -19t58 -10q7 -22 -22 -30q-99 -26 -164 -10q-23 6 -46 14t-48 18t-43 17.5t-46.5 21t-41.5 19.5t-45 22l-42 21q-23 10 -90 45q-29 13 -39.5 8.5t-21.5 -33.5q-33 -97 -43 -121q-31 -70 -59 -118q-12 -24 -28 -27.5 t-40 10.5q-16 10 -63.5 39t-73.5 47q-18 13 -21 29q-34 149 -28 235zM225 221q10 -49 31 -117q14 -34 55 -26q2 4 17 33.5t22 46.5q3 6 15.5 25.5t17 31.5t0.5 21q-4 11 -14.5 20.5t-29.5 20.5t-26 16l-4 4q-60 34 -80 -31q-7 -24 -4 -45z" />
<glyph unicode="&#xa4;" horiz-adv-x="825" d="M82 8l121 78q13 8 19.5 13t12 15t3.5 23q-17 104 24 244q-23 26 -73.5 83.5t-79.5 90.5q55 14 100 -14q33 -21 67 -60q34 -37 74 -12q61 38 150 14q39 -10 49.5 -5.5t32.5 38.5q3 4 11.5 14.5t12 16t7.5 15t3 19.5t-6 21q5 1 14 2t13 2q66 0 82 -51q18 -49 -41 -92 q-23 -18 -27 -19q-59 -27 -45 -88q12 -63 -22 -118q-11 -17 -23 -50q20 -14 61.5 -39.5t61.5 -39.5q29 -25 33 -37q11 -30 -2 -54q-3 -5 -20.5 -5.5t-26.5 5.5q-12 9 -41.5 27.5t-48.5 36t-29 41.5q-1 3 -4 5t-8 5.5t-9 7.5q-86 -45 -94 -49q-84 -55 -151 -33 q-35 11 -66 -28q-36 -42 -55.5 -45.5t-79.5 22.5zM285 270q1 -3 2 -12.5t3 -19.5t5 -19q17 -47 56 -58.5t79 17.5q12 9 31.5 31.5t37.5 35.5t42 15l4 4q40 73 24 117q-24 67 -88 78q-80 17 -136.5 -36.5t-59.5 -152.5z" />
<glyph unicode="&#xa5;" horiz-adv-x="897" d="M102 1055q15 5 29 2q79 -16 121 -70q23 -26 31 -82q5 -39 18 -207q41 16 49 23q55 51 80 80q19 23 19 45q12 184 14 276q0 11 -14 88q8 -1 24 -2t23 -2q29 -7 58 -26t45.5 -34.5t45.5 -45.5q19 -19 10 -58q-8 -77 -28 -168q-5 -22 -54 -225q-7 -32 -22.5 -91t-20.5 -81 q34 -13 54 -11.5t55 6t59 1.5q-83 -52 -90 -55q-6 -4 -26 -13t-29 -16q-29 -24 -29 -45q1 -15 4 -31.5t8.5 -38t8.5 -36.5q7 3 26.5 11.5t28.5 14.5q39 25 68.5 29t51.5 -5t68 -36q34 -20 25 -59q-1 -6 -4.5 -10.5t-6.5 -7t-9.5 -4t-9.5 -2t-11 -1t-10 -0.5l-184 -25 q-33 -3 -33 -39q2 -72 2 -215q0 -12 4 -28q13 -26 15 -54t-3.5 -69t-5.5 -55q0 -21 -27 -48q-23 -29 -65 0q-5 3 -33 20t-38.5 24t-30 21t-33.5 28q-3 2 -16.5 14.5t-17.5 16t-15.5 14.5t-17 17t-14 15.5t-14.5 18.5l-12 18l-24 60q4 2 10 8q29 -12 33 -14q13 -8 63 -48 q37 -32 96 -22q39 8 48.5 16t13.5 43q6 53 14 170q0 4 -14 58q-12 -3 -34 -8t-34.5 -8.5t-29 -9t-29.5 -11.5q-79 -44 -150 24q-7 7 -14.5 16.5t-15.5 21.5t-13 18q12 12 13 12q54 -8 151 10.5t123 20.5q39 3 39 47q0 15 -3.5 43t-4.5 41q-38 -5 -41 -6q-25 -10 -73 -32 t-73 -32q-25 -12 -41 -6q-65 33 -86 113q49 2 96.5 13t107.5 31t85 27q8 2 16.5 11t8.5 16q0 29 -2.5 88t-3.5 78q-42 -22 -47 -27q-42 -42 -62 -65q-19 -22 -34.5 -25.5t-39.5 10.5q-75 54 -92 123q-28 118 -47 316q-1 11 -31 92z" />
<glyph unicode="&#xa6;" horiz-adv-x="385" d="M123 1249q68 -17 131 -127q8 -19 8 -51q-4 -146 -8 -219q-5 -78 -18.5 -233.5t-18.5 -233.5q-2 -37 -22 -47q-21 -10 -33 32q-8 30 -8 81q-3 327 -9 647q0 22 -3.5 46t-9.5 55t-9 50zM156 74q4 73 27 86q17 10 32 -31q12 -35 18 -100q8 -70 3.5 -293t-19.5 -422 q-3 -40 -20 -47q-14 -6 -24 23q-11 30 -13 89q-11 328 -4 695z" />
<glyph unicode="&#xa7;" horiz-adv-x="851" d="M124.5 -482q1.5 6 4.5 13h33q9 2 30.5 4.5t36.5 6t27 9.5q56 27 152 91q32 22 36 40t-16 52q-16 26 -52 74.5t-52 74.5q-61 103 -91 189q-34 84 15 176q12 26 10 42.5t-18 39.5q-82 122 -35 301q3 16 39 74q16 23 65 92.5t76 109.5q42 65 145 92q40 -20 112 -59t87 -47 q-2 -8 -6.5 -22.5t-5.5 -22.5q-6 -56 -49 -39q-18 7 -36 9t-30.5 1t-31 -9t-26 -12t-29 -17.5t-26.5 -16.5q-61 -37 -96.5 -92.5t-60.5 -132.5q-22 -66 6 -122.5t94 -82.5q106 -40 146 -84q81 -87 12 -176q-4 -5 -16 -21.5t-17 -22.5t-17 -19t-20.5 -19.5t-21.5 -14.5 t-27 -12q-47 -14 -12 -61q60 -81 92 -111q43 -45 56.5 -100t13.5 -131q0 -34 -35 -49q-159 -78 -279 -80q-7 0 -45 -11q-24 -8 -44.5 -2.5t-27.5 35.5q-1 4 -7 7.5t-14.5 8t-12.5 7.5q-1 1 -7.5 4.5t-8.5 4.5t-7 5t-6 7t-2.5 8t0 11zM356 92q60 9 87.5 42t13.5 79 q-34 -15 -48.5 -22.5t-28 -16t-17 -20.5t-5 -23.5t-2.5 -38.5z" />
<glyph unicode="&#xa9;" horiz-adv-x="1093" d="M82 522q7 132 113 197q15 9 29.5 20t34 27t26.5 22q4 2 12 8.5t14.5 10.5t12.5 6q188 59 341 15t253 -171q34 -47 45 -79q94 -255 4 -437q-51 -107 -187 -137q9 19 33 71.5t37 78.5q111 223 -10 446q-37 69 -115.5 108.5t-155.5 28.5q-9 -1 -46.5 -6t-52 -8t-43 -10 t-49.5 -17t-40 -24q-77 -58 -115 -103q-83 -103 -26 -229q23 -50 84 -162q17 -30 38 -35q58 -17 58 -82q40 2 140.5 5.5t152.5 5.5v8q2 -1 7 -3t7 -3q4 -4 13 -15l13.5 -16.5t11 -16t8.5 -18.5t2.5 -19t-3.5 -22q-6 -17 -19.5 -26.5t-24.5 -11t-33 -2t-29 -1.5 q-147 -18 -250 13q-114 34 -176 139q-121 212 -115 444zM353 390.5q11 66.5 55 109.5q13 13 36 26q7 5 15.5 15.5t14.5 16.5t18.5 10.5t25.5 -3.5q19 -8 50 -57t28 -68q-6 -37 -49 -34q-59 3 -68 -56q-9 -79 66 -82q23 -1 96 8q8 1 51 17q10 4 53 18q-24 -49 -58.5 -76.5 t-84.5 -50.5q-58 -24 -125 2.5t-104 87.5q-31 50 -20 116.5z" />
<glyph unicode="&#xab;" horiz-adv-x="835" d="M104 240q-5 42 33 67q69 42 113 107.5t80 156.5q9 18 -4 62q-1 6 -5 13t-11.5 19t-12.5 21q94 -26 109 -33q39 -18 57.5 -65.5t10 -96.5t-39.5 -73q-58 -45 -100 -84q-19 -16 -50.5 -47.5t-39.5 -38.5q-35 -35 4 -74q37 -35 106 -104q45 -52 58 -72q5 -7 3.5 -21 t-7.5 -20q-8 -8 -27 -8q-10 0 -14 2q-86 38 -142 115q-11 16 -16.5 23t-18.5 16.5t-28 13.5q-10 1 -20 11.5t-15 21.5q-12 35 -23 88zM440 225q-5 35 27 58q59 35 96 90t68 133q8 18 -4 53q-1 4 -4.5 10t-9.5 16t-11 19q10 -3 43 -12.5t49 -16.5q33 -15 49 -55t9 -81.5 t-33 -61.5q-57 -46 -86 -72q-15 -13 -40 -38.5t-36 -35.5q-29 -29 4 -61l90 -90q33 -37 49 -60q3 -6 1.5 -18t-5.5 -16q-9 -9 -22 -9q-6 0 -12 3q-69 28 -119 98q-29 38 -56 45q-9 1 -17 9.5t-11 17.5q-14 44 -19 75z" />
<glyph unicode="&#xac;" horiz-adv-x="1005" d="M74 633q58 4 67 6q59 11 131 15.5t116 5t137 -2t122 -2.5q23 0 36 2.5t26 14t18 33.5q28 -6 57 -19.5t47.5 -25t48.5 -32.5t44 -30q-2 -5 -2.5 -10.5t-1 -8.5t-2.5 -4q-16 -15 -28 -32.5t-20 -40t-12 -38t-9.5 -43.5t-8.5 -40l-37 -129q-89 49 -94 121q-1 30 8 139 q2 21 10 68q-17 -2 -66 -6t-75 -9q-33 -6 -114.5 -23t-125.5 -24q-17 -2 -30 -9t-28.5 -21.5t-21.5 -18.5q-84 11 -129 90q-6 11 -15 22t-24 26.5t-24 25.5z" />
<glyph unicode="&#xad;" horiz-adv-x="544" d="M74 332q38 -6 188 -2.5t221 0.5q-12 -6 -44.5 -38t-39.5 -36q-34 -13 -99 -18.5t-97 -16.5q-10 -3 -24.5 -1t-20.5 9q-16 16 -28.5 31t-28.5 36.5t-27 35.5z" />
<glyph unicode="&#xae;" horiz-adv-x="1228" d="M82 522q7 132 113 197q15 9 29.5 20t34 27t26.5 22q4 2 12 8.5t14.5 10.5t12.5 6q188 59 341 15t253 -171q34 -47 45 -79q94 -255 4 -437q-51 -107 -187 -137q56 119 62 131q-44 -33 -90 -18q-93 29 -146 61q-18 11 -37 25.5t-41.5 34.5t-35.5 30q-8 -4 -15 -4v-198 q88 3 193 6v8q2 -1 7 -3t7 -3q4 -4 13 -15l13.5 -16.5t11 -16t8.5 -18.5t2.5 -19t-3.5 -22q-6 -17 -19.5 -26.5t-24.5 -11t-33 -2t-29 -1.5q-147 -18 -250 13q-114 34 -176 139q-121 212 -115 444zM197 340q23 -50 84 -162q17 -30 38 -35q58 -17 58 -82q8 0 23.5 1t23.5 1 q-12 12 -16 41q-48 303 -54 351q-1 10 -3 52.5t-7 65.5q-2 10 -27 82q-57 -41 -94 -86q-83 -103 -26 -229zM367 690l6 -4q43 -33 132.5 -63.5t102.5 -36.5q75 -42 109 -74q21 -21 21 -37t-21 -37q-23 -21 -103 -71q-25 -12 -71 -23q84 -76 153 -124t150 -75q1 1 2 4.5t2 4.5 q111 223 -10 446q-37 69 -115.5 108.5t-155.5 28.5q-11 -2 -41 -5.5t-44.5 -6t-38 -7.5t-42.5 -12t-36 -16zM492 446l81 31q0 3 -1 10t-1 9q-51 20 -79 34v-84z" />
<glyph unicode="&#xb0;" horiz-adv-x="679" d="M104 793q-3 30 8.5 84.5t12.5 70.5q2 12 10 45q40 4 64 4q7 6 10 14t3.5 11.5t-1.5 15.5t-2 13q-7 30 -10 45q11 6 33.5 20t35.5 19q16 10 35 6q31 -2 89.5 -10t70.5 -9q53 -9 86 -39.5t26 -62.5q-27 -113 -96 -227q-17 -29 -78 -78q-41 -36 -116.5 -37t-122.5 33 q-47 38 -58 82zM254 827q1 -3 3.5 -19t5 -22t12 -17t26.5 -19q6 4 19.5 10.5t21.5 12t12 11.5q60 85 84 142q9 18 -8 67q-3 14 -33 27q-52 22 -96 12q-28 -45 -31 -49q34 -25 37 -37t-18 -35q-38 -36 -35 -84z" />
<glyph unicode="&#xb1;" horiz-adv-x="921" d="M61 444q193 33 320 54q-2 16 -6 44t-6.5 45t-4.5 40.5t-2 42.5q0 33 -28.5 86t-34.5 75q15 -1 26 -0.5t20.5 0t14.5 -3.5q112 -69 168 -110q10 -7 16.5 -25t6.5 -33q2 -24 2 -147q40 -14 86 2q140 49 221 -92l-14 -7t-17 -7.5t-12 -1.5q-63 12 -158 38q-5 1 -29.5 9.5 t-37.5 9.5q-53 6 -62 -45q-2 -14 -5 -48.5t-6.5 -58.5t-9.5 -51t-16.5 -42t-25.5 -17q-17 -1 -29.5 4.5t-18.5 14t-10.5 26.5t-5.5 32.5t-3.5 40.5t-4.5 43q-1 13 -6 35.5t-6 28.5q-32 -1 -65.5 -10.5t-53 -19t-53.5 -27.5q-58 -31 -99 -11t-51 86zM154 125q53 -1 200 0 t197 0q47 0 76 10q29 9 76 -8t57 -43q7 -14 0 -24.5t-23 -12.5q-36 0 -63 6q-69 16 -184.5 4t-178.5 -45q-20 -10 -47 -2q-72 23 -110 115z" />
<glyph unicode="&#xb6;" horiz-adv-x="1228" d="M106.5 609q-4.5 70 38.5 114q22 22 60 67.5t57 65.5q65 72 209 109q77 20 162 14q61 -8 113 -1.5t104 38.5q29 19 58.5 20t60 -10t101.5 -43q14 -7 22 -10q23 -13 23 -25t-17.5 -27t-43.5 -33.5t-55 -50t-53.5 -70.5t-37.5 -100.5t-7 -134.5q7 -86 -1 -237.5t-7 -206.5 q2 -143 2 -432q0 -31 -4 -39q-13 -30 -17.5 -63.5t-5 -80.5t-2.5 -67q0 -13 -2.5 -27.5t-7.5 -36t-8 -36.5l-10 14t-7.5 10t-3.5 6q-3 60 -10 178t-10 177q-2 46 -6.5 189.5t-9.5 221.5q-1 59 -15 244q-16 175 4 324q13 140 49 252h-149l-6 -596q-5 -63 -1 -164.5 t-0.5 -222.5t-21.5 -162q-10 20 -19.5 69t-19 134.5l-15.5 139.5t-16 168t-12 138q-8 -1 -38.5 -6.5t-47.5 -8t-50.5 -5t-57 -1.5t-56.5 6t-59 15t-55 28t-53 42q-41 43 -45.5 113z" />
<glyph unicode="&#xb7;" horiz-adv-x="382" d="M102 322q43 53 91 14q36 -20 79 -57q11 -14 9 -33.5t-25 -43.5t-59 -40q-61 54 -72 73t-23 87z" />
<glyph unicode="&#xbb;" horiz-adv-x="831" d="M82 438.5q-7 41.5 8.5 81.5t48.5 55q16 7 49 16.5t43 12.5q-5 -9 -11 -19t-9 -16t-4 -10q-12 -35 -4 -53q31 -78 68 -133t96 -90q31 -22 26 -58q-6 -37 -18 -75q-8 -23 -29 -27q-6 -2 -11 -4t-10 -5.5t-8 -5.5t-8 -7.5t-6 -7t-7 -8.5l-5 -7q-50 -70 -119 -98 q-6 -3 -12 -3q-14 0 -23 9q-4 4 -5.5 16t1.5 18q16 23 49 60q13 14 27.5 28.5t33.5 33t29 28.5q32 32 4 61q-11 10 -35.5 35.5t-39.5 38.5q-29 26 -86 72q-26 20 -33 61.5zM360 491q-8 49 10.5 96.5t57.5 65.5q15 7 109 33q-5 -9 -12.5 -21t-11.5 -19t-5 -13q-13 -44 -4 -62 q36 -92 79.5 -157t112.5 -107q38 -25 33 -67q-13 -60 -22 -88q-5 -11 -15 -21.5t-20 -11.5q-15 -4 -28 -13t-19 -17t-17 -23q-57 -78 -141 -115q-4 -2 -14 -2q-19 0 -27 8q-6 6 -7.5 20t3.5 21q16 24 57 72q52 51 107 104q39 39 4 74q-8 7 -39.5 38.5t-50.5 47.5 q-37 35 -101 84q-31 24 -39 73z" />
<glyph unicode="&#xbf;" horiz-adv-x="735" d="M104 -283q59 94 154 203q53 57 63 115t-22 129q-6 14 -39 119q34 0 52 -11t32 -32q69 -121 66 -230q-2 -36 -31 -104q-23 -48 -66 -133t-59 -119q-4 -8 -7 -17.5t-6 -20.5t-5 -17q60 -20 125 32t102 148q67 -2 119 -40t71 -101q-53 15 -131 -41q-5 -3 -8 -5 q-104 -70 -197 -88q-126 -28 -204 68q-58 74 -9 145zM184 453q3 25 22 38.5t48 10.5q56 -5 93.5 -22t78.5 -58q-19 -15 -36 -24t-37.5 -13.5t-31 -6t-37.5 -2t-36 -1.5q-28 0 -47.5 24.5t-16.5 53.5z" />
<glyph unicode="&#xc0;" horiz-adv-x="1040" d="M88 -12q-22 110 49 217q7 10 37 53t42 61t33 51.5t36 61.5q16 29 24.5 47t17 46.5t6 56.5t-15.5 57q67 13 94.5 12t57.5 -12q0 3 1 10t1 12t-2 9q-51 119 -74 159q-3 5 -12.5 21.5t-14 23l-13.5 19.5t-16 20t-17 16t-21.5 15t-24.5 10q-8 2 -16 8.5t-17 17t-14 15.5 q63 44 124 48.5t109.5 -30.5t74.5 -104q39 -100 76 -220.5t67 -203.5l61 -157q64 9 90.5 11.5t73.5 -2t82 -22.5q6 -4 12.5 -10t10.5 -11.5t10 -14t10 -13.5q-20 -22 -50.5 -30t-56.5 -6.5t-55 -6t-47 -28.5q12 -36 38 -108t38 -107q-68 -7 -102.5 11t-49.5 68 q-4 15 -11.5 55t-14.5 60q-42 114 -144 43q-45 -30 -104 -14q-8 3 -17 6.5t-20 8t-18 7.5q-4 -6 -12 -17t-13 -19t-8 -15q-13 -34 -37.5 -68.5t-40.5 -52t-57.5 -57.5t-50.5 -49q-26 -27 -63 -13t-46 54zM352 1262q73 17 248 -44t227 -118q-2 -33 -41 -29q-52 8 -110 21 q-10 2 -32.5 8.5t-39.5 10t-33 3.5q-55 0 -100 45q-12 10 -37.5 28.5t-32.5 24.5q-22 19 -49 50zM461 319q129 -14 182 -18l-106 199q-67 -74 -76 -181z" />
<glyph unicode="&#xc1;" horiz-adv-x="1040" d="M88 -12q-22 110 49 217q7 10 37 53t42 61t33 51.5t36 61.5q16 29 24.5 47t17 46.5t6 56.5t-15.5 57q67 13 94.5 12t57.5 -12q0 3 1 10t1 12t-2 9q-51 119 -74 159q-3 5 -12.5 21.5t-14 23l-13.5 19.5t-16 20t-17 16t-21.5 15t-24.5 10q-8 2 -16 8.5t-17 17t-14 15.5 q63 44 124 48.5t109.5 -30.5t74.5 -104q39 -100 76 -220.5t67 -203.5l61 -157q64 9 90.5 11.5t73.5 -2t82 -22.5q6 -4 12.5 -10t10.5 -11.5t10 -14t10 -13.5q-20 -22 -50.5 -30t-56.5 -6.5t-55 -6t-47 -28.5q12 -36 38 -108t38 -107q-68 -7 -102.5 11t-49.5 68 q-4 15 -11.5 55t-14.5 60q-42 114 -144 43q-45 -30 -104 -14q-8 3 -17 6.5t-20 8t-18 7.5q-4 -6 -12 -17t-13 -19t-8 -15q-13 -34 -37.5 -68.5t-40.5 -52t-57.5 -57.5t-50.5 -49q-26 -27 -63 -13t-46 54zM322 1145q23 14 28 14h60q97 13 133 23q82 19 104 86q62 -37 78 -107 q11 -42 -31 -51q-78 -16 -119 -16q-89 -3 -180 6q-23 -3 -53 16q-6 2 -11.5 14t-8.5 15zM461 319q129 -14 182 -18l-106 199q-67 -74 -76 -181z" />
<glyph unicode="&#xc2;" horiz-adv-x="1040" d="M88 -12q-22 110 49 217q7 10 37 53t42 61t33 51.5t36 61.5q16 29 24.5 47t17 46.5t6 56.5t-15.5 57q67 13 94.5 12t57.5 -12q0 3 1 10t1 12t-2 9q-42 83 -49 94q-3 5 -12.5 21.5t-14 23l-13.5 19.5t-16 20t-17 16t-21.5 15t-24.5 10q-8 2 -16 8.5t-17 17t-14 15.5 q62 44 122.5 48t108.5 -31t76 -103q18 -43 51 -153t68 -206l61 -157q64 9 90.5 11.5t73.5 -2t82 -22.5q6 -4 12.5 -10t10.5 -11.5t10 -14t10 -13.5q-20 -22 -50.5 -30t-56.5 -6.5t-55 -6t-47 -28.5q12 -36 38 -108t38 -107q-68 -7 -102.5 11t-49.5 68q-4 15 -11.5 55 t-14.5 60q-42 114 -144 43q-45 -30 -104 -14q-8 3 -17 6.5t-20 8t-18 7.5q-4 -6 -12 -17t-13 -19t-8 -15q-13 -34 -37.5 -68.5t-40.5 -52t-57.5 -57.5t-50.5 -49q-26 -27 -63 -13t-46 54zM299 1106q82 31 134.5 59.5t94.5 71.5q26 29 76 20.5t62 -43.5q6 -14 13 -26t19 -24 t18 -17.5t23 -19.5t21 -17q43 -38 53 -51q6 -6 8 -19t-2 -18q-14 -21 -39 -21q-22 2 -51 23q-78 57 -127 98q-31 27 -63 2q-31 -26 -131 -102q-25 -19 -38 -18t-28 24q-17 25 -43 78zM461 319q129 -14 182 -18l-106 199q-67 -74 -76 -181z" />
<glyph unicode="&#xc3;" horiz-adv-x="1040" d="M88 -12q-22 110 49 217q7 10 37 53t42 61t33 51.5t36 61.5q16 29 24.5 47t17 46.5t6 56.5t-15.5 57q67 13 94.5 12t57.5 -12q0 3 1 10t1 12t-2 9q-51 119 -74 159q-3 5 -12.5 21.5t-14 23l-13.5 19.5t-16 20t-17 16t-21.5 15t-24.5 10q-8 2 -16 8.5t-17 17t-14 15.5 q63 44 124 48.5t109.5 -30.5t74.5 -104q39 -100 76 -220.5t67 -203.5l61 -157q64 9 90.5 11.5t73.5 -2t82 -22.5q6 -4 12.5 -10t10.5 -11.5t10 -14t10 -13.5q-20 -22 -50.5 -30t-56.5 -6.5t-55 -6t-47 -28.5q12 -36 38 -108t38 -107q-68 -7 -102.5 11t-49.5 68 q-4 15 -11.5 55t-14.5 60q-42 114 -144 43q-45 -30 -104 -14q-8 3 -17 6.5t-20 8t-18 7.5q-4 -6 -12 -17t-13 -19t-8 -15q-13 -34 -37.5 -68.5t-40.5 -52t-57.5 -57.5t-50.5 -49q-26 -27 -63 -13t-46 54zM352 1157q-41 50 17 72q125 54 206 -19q3 -2 5 -2q41 -32 55.5 -33 t60.5 27q1 1 52 29q12 -21 8 -42.5t-11.5 -35t-23.5 -31.5q-36 -42 -84 -22q-30 10 -59 33q-8 5 -16.5 13t-19 18t-16.5 16q-29 25 -52.5 23.5t-51.5 -27.5l-41 -43q-4 4 -10.5 8.5t-10.5 8t-8 7.5zM461 319q129 -14 182 -18l-106 199q-67 -74 -76 -181z" />
<glyph unicode="&#xc4;" horiz-adv-x="1040" d="M88 -12q-22 110 49 217q7 10 37 53t42 61t33 51.5t36 61.5q16 29 24.5 47t17 46.5t6 56.5t-15.5 57q67 13 94.5 12t57.5 -12q0 3 1 10t1 12t-2 9q-51 119 -74 159q-3 5 -12.5 21.5t-14 23l-13.5 19.5t-16 20t-17 16t-21.5 15t-24.5 10q-8 2 -16 8.5t-17 17t-14 15.5 q63 44 124 48.5t109.5 -30.5t74.5 -104q39 -100 76 -220.5t67 -203.5l61 -157q64 9 90.5 11.5t73.5 -2t82 -22.5q6 -4 12.5 -10t10.5 -11.5t10 -14t10 -13.5q-20 -22 -50.5 -30t-56.5 -6.5t-55 -6t-47 -28.5q12 -36 38 -108t38 -107q-68 -7 -102.5 11t-49.5 68 q-4 15 -11.5 55t-14.5 60q-42 114 -144 43q-45 -30 -104 -14q-8 3 -17 6.5t-20 8t-18 7.5q-4 -6 -12 -17t-13 -19t-8 -15q-13 -34 -37.5 -68.5t-40.5 -52t-57.5 -57.5t-50.5 -49q-26 -27 -63 -13t-46 54zM430 1200q31 45 76 10q46 -28 65 -49q28 -31 15 -66t-60 -57 q-53 47 -70 75.5t-26 86.5zM461 319q129 -14 182 -18l-106 199q-67 -74 -76 -181zM651 1178q8 29 21.5 36t38.5 -6q21 -10 49 -28q56 -38 39 -99q-5 -12 -15 -23t-20 -14q-10 -5 -27.5 -0.5t-23.5 13.5q-11 17 -21 35.5t-23.5 47.5t-17.5 38z" />
<glyph unicode="&#xc5;" horiz-adv-x="1040" d="M88 -12q-22 110 49 217q7 10 37 53t42 61t33 51.5t36 61.5q16 29 24.5 47t17 46.5t6 56.5t-15.5 57q67 13 94.5 12t57.5 -12q0 3 1 10t1 12t-2 9q-51 119 -74 159q-3 5 -12.5 21.5t-14 23l-13.5 19.5t-16 20t-17 16t-21.5 15t-24.5 10q-8 2 -16 8.5t-17 17t-14 15.5 q63 44 124 48.5t109.5 -30.5t74.5 -104q39 -100 76 -220.5t67 -203.5l61 -157q64 9 90.5 11.5t73.5 -2t82 -22.5q6 -4 12.5 -10t10.5 -11.5t10 -14t10 -13.5q-20 -22 -50.5 -30t-56.5 -6.5t-55 -6t-47 -28.5q12 -36 38 -108t38 -107q-68 -7 -102.5 11t-49.5 68 q-4 15 -11.5 55t-14.5 60q-42 114 -144 43q-45 -30 -104 -14q-8 3 -17 6.5t-20 8t-18 7.5q-4 -6 -12 -17t-13 -19t-8 -15q-13 -34 -37.5 -68.5t-40.5 -52t-57.5 -57.5t-50.5 -49q-26 -27 -63 -13t-46 54zM461 319q129 -14 182 -18l-106 199q-67 -74 -76 -181zM471 1110 q1 86 51 125t140 27q53 -9 69 -66q25 -83 -34.5 -153t-145.5 -60q-37 5 -59 39.5t-21 87.5zM565 1147.5q-23 -40.5 8 -68.5q2 1 14.5 5.5t16.5 6.5t16 7.5t16 9.5t11.5 11t9 14t3 16t-2.5 20t-12 23q-57 -4 -80 -44.5z" />
<glyph unicode="&#xc6;" horiz-adv-x="1210" d="M-248 -100q15 -7 29.5 -7.5t24.5 2t23.5 11t21 14t20.5 17.5q91 82 178 213q46 72 91 162.5t71.5 153t71.5 176t65 161.5q102 241 70 436q-1 2 0 5t5 10.5t7 15.5q100 -31 207 -142q15 -15 0 -61q-4 -12 -10 -24.5t-14 -26t-11 -19.5l94 -131q1 0 12.5 -1t22 -0.5 t19.5 3.5q91 23 182 -47q27 -20 37 -51q9 -26 -2 -41.5t-39 -15.5q-58 4 -78 22q-63 52 -115 23q-80 -39 -94 -113q-3 -16 -4 -33.5t-1 -44.5t-1 -43q93 0 110 2q66 5 116 -24.5t79 -91.5q-32 -10 -79.5 -12t-84.5 -2t-81.5 -12.5t-78.5 -41.5l23 -172q16 -1 57.5 -3.5 t62 -2.5t53 2t59.5 10t53 23q65 40 151 -23q34 -23 94.5 -70t71.5 -55q-32 -48 -55 -55t-70 16q-5 2 -39 17t-47 19.5t-38 10t-44 4.5q-9 -1 -50 -2.5t-55.5 -3t-49 -6.5t-54.5 -11.5t-47.5 -19.5t-50.5 -30v-117q-52 23 -59 29q-18 13 -48.5 39.5t-41.5 35.5 q-29 24 -39.5 33t-23.5 26.5t-15 24.5t-2.5 29.5t3 38.5t11.5 55l72 -28q-7 79 -9 135l-92 -35q-19 12 -62.5 40t-70.5 44q-57 -64 -82 -102q-42 -63 -101 -131t-102.5 -111t-119.5 -115q-26 -26 -68 -33q-24 -5 -34.5 8.5t-4.5 43.5zM291 399h190v277q0 3 -1 7t-3 11t-4 13 q-46 -37 -75.5 -86t-58.5 -118.5t-48 -103.5z" />
<glyph unicode="&#xc7;" horiz-adv-x="745" d="M109 465q-14 244 86 405q14 24 33 47.5t48 56t41 46.5q6 -2 14.5 -4t13 -4t7.5 -6q34 -36 116 -66t95 -37q73 -42 70 -121q0 -61 10 -102q5 -24 1.5 -44t-2.5 -44.5t13 -42.5q2 -4 0 -11.5t-7 -19t-7 -18.5l-47 26q-19 19 -23 15q-12 -10 -22 -10.5t-15.5 4t-14 14 t-11.5 12.5q-7 7 -16.5 23t-12.5 20q-58 72 -104 123q-62 -44 -76 -106q-26 -133 -18 -246q6 -76 43 -129q70 -103 140 -171.5t163 -103.5q8 -4 35 -22q-9 -2 -25.5 -8.5t-24.5 -6.5q-114 3 -202 41q18 -56 14 -149q28 -12 65 -33q51 -30 73 -83.5t10 -106.5t-52 -86 q-7 -5 -34 -27t-39.5 -30t-36.5 -17.5t-48 -9.5q-4 0 -16.5 -3.5t-21 -1t-13.5 14.5l-3 15t4 11t8.5 8.5t11 7.5l10.5 7q80 57 137 154q20 35 10 55t-55 35l-33 -66q-47 14 -74 47t-24 74q11 160 -6 250q-42 33 -66 63q-95 113 -104 252q-1 15 -6 41t-6 31q-6 36 -6 37z" />
<glyph unicode="&#xc8;" horiz-adv-x="770" d="M-55 932q62 -11 125 -19t136 -12.5t119.5 -6.5t135.5 -5t123 -4q41 -2 153 -29q5 -1 10.5 -5.5t9.5 -8t10.5 -10.5t8.5 -9q-8 -11 -16 -17t-18.5 -7t-16 -1t-19.5 2.5t-18 2.5q-186 26 -383 -19q-7 -1 -37 -20q10 -13 31.5 -39t36 -45.5t24.5 -38.5q10 -18 17.5 -41 t16.5 -56.5t16 -54.5q13 -6 114 -33.5t152 -68.5q-7 -12 -15.5 -19.5t-20 -10t-18 -3t-22.5 1.5t-20 2q-79 10 -138 13q-49 1 -67.5 -26.5t-22.5 -76.5q-1 -6 0 -13.5t3 -16.5t3 -15q4 -21 14 -64t15 -67q76 4 113 10q219 26 403 -14q14 -3 29.5 -8t41 -15t42.5 -16 q-13 -8 -28.5 -17t-24 -14t-15.5 -8q-11 -2 -45 8q-240 86 -522 -63q-19 -10 -39 -10.5t-33.5 3.5t-33.5 12q-5 2 -7 3q-123 49 -114 193q12 176 28 514q1 10 -3 29t-5 28q-104 23 -161.5 67.5t-67.5 137.5zM106 1262q73 17 248.5 -44t227.5 -118q-2 -33 -41 -29 q-55 9 -111 21q-10 2 -32.5 8.5t-39 10t-32.5 3.5q-56 0 -101 45q-12 11 -38 30t-31 23q-26 22 -50 50z" />
<glyph unicode="&#xc9;" horiz-adv-x="770" d="M-55 932q62 -11 125 -19t136 -12.5t119.5 -6.5t135.5 -5t123 -4q41 -2 153 -29q5 -1 10.5 -5.5t9.5 -8t10.5 -10.5t8.5 -9q-8 -11 -16 -17t-18.5 -7t-16 -1t-19.5 2.5t-18 2.5q-186 26 -383 -19q-7 -1 -37 -20q10 -13 31.5 -39t36 -45.5t24.5 -38.5q10 -18 17.5 -41 t16.5 -56.5t16 -54.5q13 -6 114 -33.5t152 -68.5q-7 -12 -15.5 -19.5t-20 -10t-18 -3t-22.5 1.5t-20 2q-79 10 -138 13q-49 1 -67.5 -26.5t-22.5 -76.5q-1 -6 0 -13.5t3 -16.5t3 -15q4 -21 14 -64t15 -67q76 4 113 10q219 26 403 -14q14 -3 29.5 -8t41 -15t42.5 -16 q-13 -8 -28.5 -17t-24 -14t-15.5 -8q-11 -2 -45 8q-240 86 -522 -63q-19 -10 -39 -10.5t-33.5 3.5t-33.5 12q-5 2 -7 3q-123 49 -114 193q12 176 28 514q1 10 -3 29t-5 28q-104 23 -161.5 67.5t-67.5 137.5zM199 1079q3 2 7.5 7t8.5 8t8 4q11 3 32 6l28 4q95 31 127 45 q79 34 88 102q69 -25 94 -90q18 -41 -21 -55q-70 -30 -114 -37q-76 -16 -178 -26q-25 -6 -56 8q-4 1 -8 5t-8.5 10t-7.5 9z" />
<glyph unicode="&#xca;" horiz-adv-x="770" d="M-55 932q62 -11 125 -19t136 -12.5t119.5 -6.5t135.5 -5t123 -4q41 -2 153 -29q5 -1 10.5 -5.5t9.5 -8t10.5 -10.5t8.5 -9q-8 -11 -16 -17t-18.5 -7t-16 -1t-19.5 2.5t-18 2.5q-186 26 -383 -19q-7 -1 -37 -20q10 -13 31.5 -39t36 -45.5t24.5 -38.5q10 -18 17.5 -41 t16.5 -56.5t16 -54.5q13 -6 114 -33.5t152 -68.5q-7 -12 -15.5 -19.5t-20 -10t-18 -3t-22.5 1.5t-20 2q-79 10 -138 13q-49 1 -67.5 -26.5t-22.5 -76.5q-1 -6 0 -13.5t3 -16.5t3 -15q4 -21 14 -64t15 -67q76 4 113 10q219 26 403 -14q14 -3 29.5 -8t41 -15t42.5 -16 q-13 -8 -28.5 -17t-24 -14t-15.5 -8q-11 -2 -45 8q-240 86 -522 -63q-19 -10 -39 -10.5t-33.5 3.5t-33.5 12q-5 2 -7 3q-123 49 -114 193q12 176 28 514q1 10 -3 29t-5 28q-104 23 -161.5 67.5t-67.5 137.5zM137 1096q82 31 135 59.5t95 71.5q26 29 75.5 20.5t61.5 -43.5 q6 -14 13 -26t19 -24t18 -17.5t23 -19.5t21 -17q43 -38 53 -51q6 -6 8 -19t-2 -18q-14 -21 -39 -21q-22 2 -51 23q-78 57 -127 98q-31 27 -63 2q-31 -26 -131 -102q-25 -19 -38 -18t-28 24q-17 25 -43 78z" />
<glyph unicode="&#xcb;" horiz-adv-x="770" d="M-55 932q62 -11 125 -19t136 -12.5t119.5 -6.5t135.5 -5t123 -4q41 -2 153 -29q5 -1 10.5 -5.5t9.5 -8t10.5 -10.5t8.5 -9q-8 -11 -16 -17t-18.5 -7t-16 -1t-19.5 2.5t-18 2.5q-186 26 -383 -19q-7 -1 -37 -20q10 -13 31.5 -39t36 -45.5t24.5 -38.5q10 -18 17.5 -41 t16.5 -56.5t16 -54.5q13 -6 114 -33.5t152 -68.5q-7 -12 -15.5 -19.5t-20 -10t-18 -3t-22.5 1.5t-20 2q-79 10 -138 13q-49 1 -67.5 -26.5t-22.5 -76.5q-1 -6 0 -13.5t3 -16.5t3 -15q4 -21 14 -64t15 -67q76 4 113 10q219 26 403 -14q14 -3 29.5 -8t41 -15t42.5 -16 q-13 -8 -28.5 -17t-24 -14t-15.5 -8q-11 -2 -45 8q-240 86 -522 -63q-19 -10 -39 -10.5t-33.5 3.5t-33.5 12q-5 2 -7 3q-123 49 -114 193q12 176 28 514q1 10 -3 29t-5 28q-104 23 -161.5 67.5t-67.5 137.5zM195 1194q31 45 75 10q48 -29 66 -49q28 -31 15 -66t-60 -57 q-53 47 -70 75.5t-26 86.5zM416 1171q8 30 21 37t38 -6q21 -10 49 -28q56 -38 39 -99q-5 -12 -15 -23t-20 -14q-10 -5 -27.5 -0.5t-23.5 13.5q-11 17 -21 35.5t-22.5 46z" />
<glyph unicode="&#xcc;" horiz-adv-x="395" d="M-78 1262q73 17 248 -44t227 -118q-2 -33 -41 -29q-52 8 -110 21q-10 2 -32.5 8.5t-39.5 10t-33 3.5q-55 0 -100 45q-12 10 -37.5 28.5t-32.5 24.5q-22 19 -49 50zM27 877q-8 38 2 59q3 6 20.5 8t28.5 -2q76 -38 127 -74.5t86 -89.5q14 -25 10 -71q-2 -40 -9 -122.5 t-9 -125.5q-5 -95 -10.5 -272.5t-6.5 -215.5q0 -4 -1 -8.5t-4 -16t-5 -22.5q-38 34 -58 53.5t-43 49.5t-29.5 61t-0.5 66q6 37 7.5 75t-2.5 79t-8.5 70.5t-12.5 76.5q-10 47 -21 138.5t-18 131.5q-5 28 -21.5 79t-21.5 73z" />
<glyph unicode="&#xcd;" horiz-adv-x="395" d="M-25 1110q23 18 25 18q12 4 33 7t26 4q95 31 127 45q79 34 88 102q70 -26 95 -90q18 -41 -21 -55q-69 -30 -115 -37q-85 -18 -178 -27q-25 -5 -55 8q-4 1 -8.5 5t-9 10.5t-7.5 9.5zM27 877q-8 38 2 59q3 6 20.5 8t28.5 -2q76 -38 127 -74.5t86 -89.5q14 -25 10 -71 q-2 -40 -9 -122.5t-9 -125.5q-5 -95 -10.5 -272.5t-6.5 -215.5q0 -4 -1 -8.5t-4 -16t-5 -22.5q-38 34 -58 53.5t-43 49.5t-29.5 61t-0.5 66q6 37 7.5 75t-2.5 79t-8.5 70.5t-12.5 76.5q-10 47 -21 138.5t-18 131.5q-5 28 -21.5 79t-21.5 73z" />
<glyph unicode="&#xce;" horiz-adv-x="395" d="M-111 1102q82 31 135 59.5t95 71.5q26 29 75.5 20.5t61.5 -43.5q6 -14 13 -26t19 -24t18 -17.5t23 -19.5t21 -17q43 -38 53 -51q6 -6 8.5 -19t-1.5 -18q-14 -21 -39 -21q-23 3 -52 23q-72 52 -126 98q-32 27 -64 2q-31 -26 -131 -102q-25 -19 -38 -18t-28 24 q-17 25 -43 78zM27 877q-8 38 2 59q3 6 20.5 8t28.5 -2q76 -38 127 -74.5t86 -89.5q14 -25 10 -71q-2 -40 -9 -122.5t-9 -125.5q-5 -95 -10.5 -272.5t-6.5 -215.5q0 -4 -1 -8.5t-4 -16t-5 -22.5q-38 34 -58 53.5t-43 49.5t-29.5 61t-0.5 66q6 37 7.5 75t-2.5 79t-8.5 70.5 t-12.5 76.5q-10 47 -21 138.5t-18 131.5q-5 28 -21.5 79t-21.5 73z" />
<glyph unicode="&#xcf;" horiz-adv-x="395" d="M-14 1200q31 45 75 10q48 -29 66 -49q28 -31 15 -66t-60 -57q-53 47 -70 75.5t-26 86.5zM27 877q-8 38 2 59q3 6 20.5 8t28.5 -2q76 -38 127 -74.5t86 -89.5q14 -25 10 -71q-2 -40 -9 -122.5t-9 -125.5q-5 -95 -10.5 -272.5t-6.5 -215.5q0 -4 -1 -8.5t-4 -16t-5 -22.5 q-38 34 -58 53.5t-43 49.5t-29.5 61t-0.5 66q6 37 7.5 75t-2.5 79t-8.5 70.5t-12.5 76.5q-10 47 -21 138.5t-18 131.5q-5 28 -21.5 79t-21.5 73zM207 1178q8 29 21 36t38 -6q21 -10 49 -28q56 -38 39 -99q-5 -12 -15 -23t-20 -14q-10 -5 -27.5 -0.5t-23.5 13.5 q-11 17 -21 36t-22 46t-18 39z" />
<glyph unicode="&#xd0;" horiz-adv-x="1075" d="M-291 797q201 76 381 97t362.5 -20t350.5 -151q178 -119 172 -354q-3 -142 -127 -219q-50 -31 -72.5 -44.5t-66 -30t-82.5 -18.5q-9 -1 -24.5 -13.5t-24.5 -12.5q-67 0 -132 24q13 10 46.5 38t58.5 46t51 29q16 7 31 15t30 20t25 19.5t25 24t21.5 23t22 27t19 25 t20.5 28.5t19 27q76 107 51 194.5t-145 143.5q-129 58 -305 61q-56 1 -68.5 -17.5t10.5 -68.5q17 -41 17 -92q2 -47 2 -139q50 -7 119 -25q5 -1 10.5 -5.5t9.5 -8t10.5 -10.5t8.5 -9q-8 -11 -16 -17t-19 -7t-16.5 -1t-19.5 2.5t-18 2.5q-18 3 -69 8q1 -37 2 -110.5t2 -110.5 q0 -40 29 -121q23 -65 -29 -102q-52 -35 -100 24q-76 98 -76 228q0 119 -2 178q-2 -2 -4 -2q-9 -4 -37 -21l-66 -37q-66 19 -100.5 57.5t-48.5 100.5q52 -26 125 -27.5t129 9.5l-6 202q0 48 -11 66q-10 15 -27 28.5t-28 12.5q-113 -25 -164 -57q-63 -38 -98.5 -37t-87.5 49 q-19 17 -70 78z" />
<glyph unicode="&#xd1;" horiz-adv-x="786" d="M-16 817q152 0 211 -80q90 -127 217 -219q6 -4 40.5 -38t63.5 -42q1 5 3.5 19.5t2.5 21.5q-2 154 -8 404q0 24 -22 88q-3 9 -29 69q7 5 14 15q5 -3 21.5 -9t23.5 -12q142 -135 176 -221q4 -9 4 -17t-2 -18t-2 -16q-1 -15 -4 -40.5t-5 -46.5t-3 -40q-1 -16 -5.5 -65 t-6.5 -97q0 -7 -4 -27q-22 -355 -25 -387q-4 -47 -41 -209q-9 -49 -65 -40q-1 17 -6.5 103.5t-6.5 133.5q-1 28 -1 87t-1 87q-4 50 -20 66q-44 47 -182 176q-3 3 -21 10q-37 -97 -47 -213q-2 -33 -2 -197v-6.5v-7.5t-0.5 -7t-1.5 -7l-3 -6t-5.5 -6.5t-8 -5.5t-10.5 -5 q-1 3 -13 28t-17 40q-50 161 -72 428q-6 102 -58 176q-15 21 -40 65.5t-39 67.5zM188 1169q-41 50 17 72q51 26 106 24.5t101 -42.5q2 -2 4 -2q42 -33 56 -33.5t60 26.5q1 0 52 29q7 -17 8 -32t-4 -28.5t-12 -24t-19 -23.5q-37 -43 -84 -23q-30 10 -59 33q-8 5 -16.5 13 t-19 18t-16.5 16q-29 25 -52.5 23.5t-51.5 -27.5l-41 -43q-4 4 -10.5 8.5t-10.5 8t-8 7.5z" />
<glyph unicode="&#xd2;" horiz-adv-x="772" d="M75 663q0 6 1 23q3 13 12 18.5t24.5 8t20.5 4.5q6 4 12 10.5t12 15.5t9 13q33 31 48 35q20 6 42 -5q11 -4 18 0q32 17 68 17.5t82 -7t68 -8.5q98 -6 210 -28q42 -7 48 -24.5t-11 -59.5q-6 -17 -11 -39t-7.5 -37.5t-6 -42.5t-5.5 -39q-13 -107 -36.5 -180t-80.5 -133 q-10 -11 -31.5 -42.5t-36.5 -45.5q-43 -41 -141 -111q0 -5 -20 -4.5t-23 0.5q-113 6 -152 109q-62 149 -69 168q-8 21 -17 88q-2 21 -8 53.5t-9 52t-5 52t4 53.5q1 7 -4 38q-1 6 -3 23.5t-2 23.5zM147 1098q73 17 248.5 -44t227.5 -118q-2 -33 -41 -29q-56 9 -111 21 q-10 2 -32.5 8.5t-39 10t-32.5 3.5q-56 0 -101 45q-9 8 -20.5 17t-26 20t-22.5 17q-29 25 -50 49zM205 459q-26 -130 35 -232q24 -40 44 -50.5t60 -0.5q56 12 82 35q54 44 84.5 73.5t62 80.5t39.5 108q8 43 -12.5 95t-54.5 67q-21 9 -46.5 15.5t-59.5 13.5t-52 12 q-44 -11 -51 -17q-48 -44 -66 -77q-55 -79 -65 -123z" />
<glyph unicode="&#xd3;" horiz-adv-x="772" d="M75 663q0 6 1 23q3 13 12 18.5t24.5 8t20.5 4.5q6 4 12 10.5t12 15.5t9 13q33 31 48 35q20 6 42 -5q11 -4 18 0q32 17 68 17.5t82 -7t68 -8.5q98 -6 210 -28q42 -7 48 -24.5t-11 -59.5q-6 -17 -11 -39t-7.5 -37.5t-6 -42.5t-5.5 -39q-13 -107 -36.5 -180t-80.5 -133 q-10 -11 -31.5 -42.5t-36.5 -45.5q-43 -41 -141 -111q0 -5 -20 -4.5t-23 0.5q-113 6 -152 109q-62 149 -69 168q-8 21 -17 88q-2 21 -8 53.5t-9 52t-5 52t4 53.5q1 7 -4 38q-1 6 -3 23.5t-2 23.5zM193 971q3 2 7.5 6.5t8.5 7.5t8 4q11 3 31.5 6t27.5 4q95 31 127 45 q79 35 89 103q69 -25 94 -90q18 -42 -21 -56q-66 -29 -114 -36q-84 -18 -179 -27q-25 -5 -55 8q-4 1 -8 5t-8.5 10.5t-7.5 9.5zM205 459q-26 -130 35 -232q24 -40 44 -50.5t60 -0.5q56 12 82 35q54 44 84.5 73.5t62 80.5t39.5 108q8 43 -12.5 95t-54.5 67q-21 9 -46.5 15.5 t-59.5 13.5t-52 12q-44 -11 -51 -17q-48 -44 -66 -77q-55 -79 -65 -123z" />
<glyph unicode="&#xd4;" horiz-adv-x="772" d="M75 655q0 6 1 23q3 13 12 18.5t24.5 8t20.5 4.5q6 4 12 10.5t12 15.5t9 13q33 31 48 35q20 6 42 -5q11 -4 18 0q32 17 68 17.5t82 -7t68 -8.5q98 -6 210 -28q42 -7 48 -24.5t-11 -59.5q-6 -17 -11 -39t-7.5 -37.5t-6 -42.5t-5.5 -39q-13 -107 -36.5 -180t-80.5 -133 q-10 -11 -31.5 -42.5t-36.5 -45.5q-43 -41 -141 -111q0 -5 -20 -4.5t-23 0.5q-114 6 -152 108q-62 149 -69 168q-8 21 -17 88q-2 21 -8 53.5t-9 52t-5 52t4 53.5q1 7 -4 39q-1 6 -3 23.5t-2 23.5zM125 1016q82 31 134.5 59.5t94.5 71.5q26 29 76 20.5t62 -43.5q6 -14 13 -26 t19 -24t18 -17.5t23 -19.5t21 -17q43 -38 53 -51q6 -6 8 -19t-2 -18q-14 -21 -39 -21q-22 2 -51 23q-78 57 -127 98q-31 27 -63 2q-15 -12 -132 -102q-25 -19 -37.5 -18t-27.5 24q-17 25 -43 78zM205 451q-26 -130 35 -232q24 -40 44 -50.5t60 -0.5q56 12 82 35 q54 44 84.5 73.5t62 80.5t39.5 108q8 43 -12.5 95t-54.5 67q-21 9 -46.5 15.5t-59.5 13.5t-52 12q-44 -11 -51 -17q-47 -43 -66 -78q-55 -80 -65 -122z" />
<glyph unicode="&#xd5;" horiz-adv-x="772" d="M75 663q0 6 1 23q3 13 12 18.5t24.5 8t20.5 4.5q6 4 12 10.5t12 15.5t9 13q33 31 48 35q20 6 42 -5q11 -4 18 0q32 17 68 17.5t82 -7t68 -8.5q98 -6 210 -28q42 -7 48 -24.5t-11 -59.5q-6 -17 -11 -39t-7.5 -37.5t-6 -42.5t-5.5 -39q-13 -107 -36.5 -180t-80.5 -133 q-10 -11 -31.5 -42.5t-36.5 -45.5q-43 -41 -141 -111q0 -5 -20 -4.5t-23 0.5q-113 6 -152 109q-62 149 -69 168q-8 21 -17 88q-2 21 -8 53.5t-9 52t-5 52t4 53.5q1 7 -4 38q-1 6 -3 23.5t-2 23.5zM205 459q-26 -130 35 -232q24 -40 44 -50.5t60 -0.5q56 12 82 35 q54 44 84.5 73.5t62 80.5t39.5 108q8 43 -12.5 95t-54.5 67q-21 9 -46.5 15.5t-59.5 13.5t-52 12q-44 -11 -51 -17q-48 -44 -66 -77q-55 -79 -65 -123zM215 991q-41 50 16 72q125 54 207 -19q2 -2 4 -2q41 -32 56 -33t61 27q4 3 51 29q11 -21 8 -42.5t-10.5 -35t-23.5 -31.5 q-36 -42 -84 -22q-32 11 -60 33q-11 7 -29 25l-22 22q-29 25 -52.5 23.5t-51.5 -27.5l-41 -43q-4 4 -10.5 8.5t-10.5 8t-8 7.5z" />
<glyph unicode="&#xd6;" horiz-adv-x="772" d="M75 663q0 6 1 23q3 13 12 18.5t24.5 8t20.5 4.5q6 4 12 10.5t12 15.5t9 13q33 31 48 35q20 6 42 -5q11 -4 18 0q32 17 68 17.5t82 -7t68 -8.5q98 -6 210 -28q42 -7 48 -24.5t-11 -59.5q-6 -17 -11 -39t-7.5 -37.5t-6 -42.5t-5.5 -39q-13 -107 -36.5 -180t-80.5 -133 q-10 -11 -31.5 -42.5t-36.5 -45.5q-43 -41 -141 -111q0 -5 -20 -4.5t-23 0.5q-113 6 -152 109q-62 149 -69 168q-8 21 -17 88q-2 21 -8 53.5t-9 52t-5 52t4 53.5q1 7 -4 38q-1 6 -3 23.5t-2 23.5zM205 459q-26 -130 35 -232q24 -40 44 -50.5t60 -0.5q56 12 82 35 q54 44 84.5 73.5t62 80.5t39.5 108q8 43 -12.5 95t-54.5 67q-21 9 -46.5 15.5t-59.5 13.5t-52 12q-44 -11 -51 -17q-48 -44 -66 -77q-55 -79 -65 -123zM223 1063q31 45 76 10q48 -29 66 -49q28 -31 14.5 -66t-60.5 -57q-53 47 -70 75.5t-26 86.5zM444 1040q14 56 60 31 q13 -7 49 -29q56 -38 39 -98q-5 -12 -15 -23t-20 -14q-10 -5 -27.5 -0.5t-23.5 13.5q-11 17 -20.5 34.5t-24 48t-17.5 37.5z" />
<glyph unicode="&#xd7;" horiz-adv-x="860" d="M61 506q197 -22 340 -119q35 46 48 64t37 56.5t34.5 72.5t14.5 73q73 -30 159 -116q25 -25 24.5 -41t-26.5 -45q-48 -61 -123 -136q-26 -27 -26.5 -39.5t26.5 -35.5q46 -37 164 -121l43 -29q24 -20 22 -41.5t-32 -30.5q-80 -33 -121 11q-16 15 -50 45t-52 47 q-9 6 -27 23.5t-29 23.5q-33 22 -49 20t-47 -28q-105 -89 -214 -145q-77 -39 -77 -15q0 16 34 48.5t88 82.5t85 92q7 9 15 30.5t12 29.5q-13 8 -56 35.5t-62.5 41t-52 39t-57 51.5t-45.5 56z" />
<glyph unicode="&#xd8;" horiz-adv-x="821" d="M74 551q0 128 39 258q137 -28 141 -29q46 -10 72 13q13 10 43 31.5t45 33.5q43 41 123 55q46 8 96 -27t51 -79q1 -20 18 -43.5t21 -34.5q184 152 217 178q50 -17 78 -55t29 -90q-41 -21 -123 -60t-123 -59q-48 -24 -62 -35q-19 -15 -22 -35q-6 -22 -16.5 -68.5 t-16.5 -70.5q-9 -37 -18 -49q-53 -71 -60 -186q0 -56 -43 -90q-34 -28 -35 -29q-130 -100 -243 -51q-55 25 -82 61q-16 18 -30.5 40.5t-31.5 51.5t-26 43q-8 13 -18.5 61.5t-10.5 69.5q-1 29 -6.5 95t-5.5 100zM242 291q0 -67 61 -139q34 -43 71.5 -43.5t65.5 43.5 q49 71 97 184q11 30 28 88t23 78q-3 2 -8.5 7t-8.5 7q-10 -3 -36.5 -10.5t-40.5 -11.5q-26 -8 -83.5 -43.5t-95.5 -42.5q-32 -6 -52.5 -42t-20.5 -75zM266 428q15 0 19 2q138 89 241 160q34 26 37 51q6 42 -36.5 73.5t-84.5 16.5q-82 -29 -132 -115.5t-44 -187.5z" />
<glyph unicode="&#xd9;" horiz-adv-x="997" d="M49 740.5q-1 7.5 0 25.5q6 41 32 56.5t60 -1.5q15 -6 41 -16.5t47 -19t39 -17.5q43 -21 58 -51.5t10 -81.5q-26 -305 -31 -424q0 -24 -0.5 -46.5t8 -49t27.5 -49.5q6 6 18 17t19 18.5t12 15.5q71 102 100.5 146.5t76.5 131.5t73 162q51 148 51 295q-1 45 2 73.5t9 64.5 t10 73q1 7 6 56.5t6 74.5q0 42 29 51q90 29 106 35q37 -37 31 -82q-10 -102 -21 -264q-2 -31 -6 -86.5t-7 -101.5t-5 -87q-3 -129 2 -231q2 -24 2 -87.5t4 -98.5q14 -113 44.5 -176t84.5 -105q-36 0 -57.5 2t-57 16t-63.5 41q-52 49 -85.5 150.5t-45.5 191.5 q-27 -54 -29 -57q-5 -11 -25.5 -61.5t-33.5 -75.5q-57 -106 -101 -168q-48 -67 -131 -55q-5 0 -16 1t-16 1q-121 -6 -148 108l-21 75t-22.5 81t-17 74.5t-11.5 79.5q-2 35 -14.5 119.5t-13.5 131.5q0 15 -9 42.5t-10 31.5q-1 7 -5 25t-5 25.5zM98 1262q73 17 248 -44 t227 -118q-2 -33 -41 -29q-51 8 -110 21q-10 2 -32.5 8.5t-39.5 10t-33 3.5q-55 0 -100 45q-12 10 -37.5 28.5t-32.5 24.5q-22 19 -49 50z" />
<glyph unicode="&#xda;" horiz-adv-x="997" d="M49 740.5q-1 7.5 0 25.5q6 41 32 56.5t60 -1.5q15 -6 41 -16.5t47 -19t39 -17.5q43 -21 58 -51.5t10 -81.5q-26 -305 -31 -424q0 -24 -0.5 -46.5t8 -49t27.5 -49.5q6 6 18 17t19 18.5t12 15.5q71 102 100.5 146.5t76.5 131.5t73 162q51 148 51 295q-1 45 2 73.5t9 64.5 t10 73q1 7 6 56.5t6 74.5q0 42 29 51q90 29 106 35q37 -37 31 -82q-10 -102 -21 -264q-2 -31 -6 -86.5t-7 -101.5t-5 -87q-3 -129 2 -231q2 -24 2 -87.5t4 -98.5q14 -113 44.5 -176t84.5 -105q-36 0 -57.5 2t-57 16t-63.5 41q-52 49 -85.5 150.5t-45.5 191.5 q-27 -54 -29 -57q-5 -11 -25.5 -61.5t-33.5 -75.5q-57 -106 -101 -168q-48 -67 -131 -55q-5 0 -16 1t-16 1q-121 -6 -148 108l-21 75t-22.5 81t-17 74.5t-11.5 79.5q-2 35 -14.5 119.5t-13.5 131.5q0 15 -9 42.5t-10 31.5q-1 7 -5 25t-5 25.5zM195 1110q3 2 7.5 6.5t8.5 7.5 t8 4q12 4 33.5 7t26.5 4q95 31 127 45q79 34 88 102q69 -25 94 -90q18 -41 -21 -55q-70 -30 -114 -37q-84 -18 -179 -27q-25 -5 -55 8q-4 1 -8 5t-8.5 10.5t-7.5 9.5z" />
<glyph unicode="&#xdb;" horiz-adv-x="997" d="M49 740.5q-1 7.5 0 25.5q6 41 32 56.5t60 -1.5q15 -6 41 -16.5t47 -19t39 -17.5q43 -21 58 -51.5t10 -81.5q-26 -305 -31 -424q0 -24 -0.5 -46.5t8 -49t27.5 -49.5q6 6 18 17t19 18.5t12 15.5q71 102 100.5 146.5t76.5 131.5t73 162q51 148 51 295q-1 45 2 73.5t9 64.5 t10 73q1 7 6 56.5t6 74.5q0 42 29 51q90 29 106 35q37 -37 31 -82q-10 -102 -21 -264q-2 -31 -6 -86.5t-7 -101.5t-5 -87q-3 -129 2 -231q2 -24 2 -87.5t4 -98.5q14 -113 44.5 -176t84.5 -105q-36 0 -57.5 2t-57 16t-63.5 41q-52 49 -85.5 150.5t-45.5 191.5 q-27 -54 -29 -57q-5 -11 -25.5 -61.5t-33.5 -75.5q-57 -106 -101 -168q-48 -67 -131 -55q-5 0 -16 1t-16 1q-121 -6 -148 108l-21 75t-22.5 81t-17 74.5t-11.5 79.5q-2 35 -14.5 119.5t-13.5 131.5q0 15 -9 42.5t-10 31.5q-1 7 -5 25t-5 25.5zM74 1085q80 31 133.5 60 t95.5 72q26 29 75.5 20.5t61.5 -43.5q6 -14 13.5 -26t19 -23.5t18.5 -18t23 -19t21 -17.5q41 -36 53 -52q6 -6 8 -19t-2 -18q-13 -20 -39 -20q-22 2 -51 23q-78 57 -127 98q-32 27 -64 2q-53 -43 -131 -103q-25 -19 -37.5 -17.5t-27.5 24.5q-19 27 -43 77z" />
<glyph unicode="&#xdc;" horiz-adv-x="997" d="M49 740.5q-1 7.5 0 25.5q6 41 32 56.5t60 -1.5q15 -6 41 -16.5t47 -19t39 -17.5q43 -21 58 -51.5t10 -81.5q-26 -305 -31 -424q0 -24 -0.5 -46.5t8 -49t27.5 -49.5q6 6 18 17t19 18.5t12 15.5q71 102 100.5 146.5t76.5 131.5t73 162q51 148 51 295q-1 45 2 73.5t9 64.5 t10 73q1 7 6 56.5t6 74.5q0 42 29 51q90 29 106 35q37 -37 31 -82q-10 -102 -21 -264q-2 -31 -6 -86.5t-7 -101.5t-5 -87q-3 -129 2 -231q2 -24 2 -87.5t4 -98.5q14 -113 44.5 -176t84.5 -105q-36 0 -57.5 2t-57 16t-63.5 41q-52 49 -85.5 150.5t-45.5 191.5 q-27 -54 -29 -57q-5 -11 -25.5 -61.5t-33.5 -75.5q-57 -106 -101 -168q-48 -67 -131 -55q-5 0 -16 1t-16 1q-121 -6 -148 108l-21 75t-22.5 81t-17 74.5t-11.5 79.5q-2 35 -14.5 119.5t-13.5 131.5q0 15 -9 42.5t-10 31.5q-1 7 -5 25t-5 25.5zM203 1200q31 45 76 10 q46 -28 65 -49q28 -31 15 -66t-60 -57q-53 47 -70 75.5t-26 86.5zM424 1178q8 29 21 36t38 -6q21 -10 49 -28q56 -38 39 -99q-13 -31 -34 -37q-10 -5 -28 -0.5t-24 13.5q-11 17 -21 36t-22 46t-18 39z" />
<glyph unicode="&#xdd;" horiz-adv-x="710" d="M-109 186q64 16 113 -26q90 -78 129 -119q129 -132 318 -160q53 -9 72 7.5t16 68.5q-6 83 -20 227t-21 246q0 5 -2 11.5t-5 12.5t-9 18.5t-11 23.5q-40 -81 -55 -117q-7 -15 -16 -42t-13 -36q-27 -62 -58.5 -68t-76.5 46q-54 61 -80 139q-9 25 -16.5 57t-11.5 50.5 t-11.5 61t-9.5 54.5q-29 153 -35 190q86 6 133.5 -42t40.5 -134q-6 -77 -4 -98t21 -72q10 -1 18 1.5t13 5t10.5 10.5t7 11t6.5 15t6 13q75 160 94 196q30 65 10 129q-20 73 21 105q18 15 39.5 17t37 -3t38.5 -16q89 -41 113.5 -123t-25.5 -168q-14 -27 -25 -76 q-32 -179 -42.5 -313.5t-8.5 -313.5q1 -82 3.5 -122t19 -103t49.5 -112q6 -10 9 -23.5t4.5 -37t2.5 -30.5q-58 15 -220 134.5t-328.5 267t-240.5 237.5zM174 1110q24 18 25 18q12 4 33 7t26 4q95 31 127 45q79 34 88 102q69 -25 94 -90q18 -41 -20 -55q-69 -30 -115 -37 q-85 -18 -178 -27q-25 -5 -55 8q-4 1 -8.5 5t-9 10.5t-7.5 9.5z" />
<glyph unicode="&#xde;" horiz-adv-x="636" d="M90 1262q125 6 211 -68l49 -45q22 -21 1 -129q-16 -77 -9 -85q2 -3 8 -1q46 20 166.5 21.5t165.5 -23.5q40 -24 70 -58q46 -53 18 -114q-3 -6 -10.5 -23.5t-11 -24.5t-11 -21.5t-13.5 -23t-15 -19.5t-19 -19t-22 -15q-16 -8 -40.5 -33t-27.5 -28q-58 -51 -108 -55 q-11 0 -48 -21q-63 -42 -120 -2q-2 -10 -6 -25.5t-6.5 -27t-2.5 -21.5q0 -33 4 -79t4 -80q0 -173 23 -301q2 -11 0 -23.5t-6.5 -28t-5.5 -20.5q-16 -3 -28 -3.5t-22 3.5t-16.5 8.5t-15.5 16t-16 22t-20.5 31t-25.5 37.5q2 7 6.5 18.5t7.5 20.5t3 16q0 163 -11 235 q-32 243 -24 422q2 51 -10.5 143.5t-14.5 129.5q-4 109 -4 139q-1 33 -2.5 47t-11.5 38t-29 40q-2 2 -2.5 6t-0.5 11t-1 12zM321 606.5q-7 -48.5 7 -92.5q75 12 193.5 117.5t174.5 208.5q-44 50 -100 41q-31 -6 -113 -33q-16 -5 -23 -9t-13 -16t-1 -30q8 -33 -43 -45 q-20 -6 -43 -9q-32 -84 -39 -132.5z" />
<glyph unicode="&#xdf;" horiz-adv-x="604" d="M33 0q53 283 65 442q5 55 20 159.5t17 121.5q9 45 -14 78q-15 21 -14.5 43t18.5 35q39 27 94 47q11 4 43 -17q42 -28 82 -71t63 -76.5t60 -91.5q9 -12 29 -52q52 -81 -27 -137q-18 -13 -53.5 -32.5t-44.5 -24.5l-25 -16q5 -10 11.5 -18.5t16.5 -16.5t15.5 -12t18.5 -12.5 t16 -10.5q83 -62 108 -90q27 -29 17 -53t-49 -29q-37 -6 -78 -25t-57 -35q-10 -10 -22.5 -23.5t-20 -21t-17 -16.5t-16 -12.5t-14.5 -5.5t-15 1.5t-14 10.5q18 16 82 125q13 22 24.5 49t19.5 41.5t19 21.5q-8 11 -20.5 24.5t-14.5 16.5q-38 39 -49 56q-71 102 23 190 q24 24 61 58q-81 97 -174 172q-3 -12 -9 -32t-7 -30q-1 -18 -0.5 -67t-1.5 -66q-10 -121 -31 -283q-6 -47 -7 -84t4 -78t10.5 -70t17.5 -87q6 -25 -38 -59q-52 -39 -91 -30q-46 10 -31 93z" />
<glyph unicode="&#xe0;" horiz-adv-x="884" d="M76 -10q-20 95 41 184q99 144 125 193q14 25 21.5 40.5t14.5 39.5t5 47.5t-13 48.5q56 11 79 10.5t50 -10.5q0 3 0.5 8.5t0.5 10t-1 7.5q-48 112 -63 136q-3 5 -11 18.5t-11.5 19.5t-11 17t-13.5 17t-14.5 13.5t-18 12.5t-20.5 8q-7 2 -14 7.5t-14.5 14.5t-12.5 13 q82 58 155 37t107 -111q32 -86 64 -188t57 -172q11 -25 30.5 -75t22.5 -58q55 7 76.5 9.5t61.5 -1.5t71 -19q6 -4 12 -10.5t14 -16.5t11 -14q-22 -24 -57 -28t-69 -7.5t-53 -25.5q10 -32 32.5 -94.5t31.5 -89.5q-58 -6 -86.5 10t-42.5 59q-2 10 -9.5 44t-13.5 52 q-19 51 -48 60t-73 -23q-41 -24 -88 -12q-20 8 -47 21q-19 -26 -28 -46q-11 -29 -31.5 -58t-35 -45t-48 -47.5t-43.5 -41.5q-23 -23 -53.5 -11t-38.5 46zM299 1073q63 13 211 -39t192 -100q0 -27 -34 -23q-15 2 -93 17q-11 2 -29 7t-32.5 8t-28.5 3q-48 0 -84 39 q-11 9 -33 25.5l-26 19.5q-17 14 -43 43zM391 272q27 -3 156 -16l-90 168q-56 -59 -66 -152z" />
<glyph unicode="&#xe1;" horiz-adv-x="884" d="M76 -10q-20 95 41 184q99 144 125 193q14 25 21.5 40.5t14.5 39.5t5 47.5t-13 48.5q56 11 79 10.5t50 -10.5q0 3 0.5 8.5t0.5 10t-1 7.5q-48 112 -63 136q-3 5 -11 18.5t-11.5 19.5t-11 17t-13.5 17t-14.5 13.5t-18 12.5t-20.5 8q-7 2 -14 7.5t-14.5 14.5t-12.5 13 q82 58 155 37t107 -111q32 -86 64 -188t57 -172q11 -25 30.5 -75t22.5 -58q55 7 76.5 9.5t61.5 -1.5t71 -19q6 -4 12 -10.5t14 -16.5t11 -14q-22 -24 -57 -28t-69 -7.5t-53 -25.5q10 -32 32.5 -94.5t31.5 -89.5q-58 -6 -86.5 10t-42.5 59q-2 10 -9.5 44t-13.5 52 q-19 51 -48 60t-73 -23q-41 -24 -88 -12q-20 8 -47 21q-19 -26 -28 -46q-11 -29 -31.5 -58t-35 -45t-48 -47.5t-43.5 -41.5q-23 -23 -53.5 -11t-38.5 46zM272 973q20 12 25 12h51q99 15 113 19q72 19 90 73q53 -33 65 -90q8 -38 -26 -43q-58 -14 -101 -14q-66 -3 -153 4 q-20 0 -45 14q-4 2 -9.5 12t-9.5 13zM391 272q27 -3 156 -16l-90 168q-56 -59 -66 -152z" />
<glyph unicode="&#xe2;" horiz-adv-x="884" d="M76 -10q-20 95 41 184q99 144 125 193q14 25 21.5 40.5t14.5 39.5t5 47.5t-13 48.5q56 11 79 10.5t50 -10.5q0 3 0.5 8.5t0.5 10t-1 7.5q-5 9 -19 36t-24 44q-1 2 -9 15.5t-10 17t-9.5 15t-11.5 15.5t-11.5 13t-14 13t-15.5 9.5t-19 8.5q-7 2 -14 7.5t-14.5 14.5 t-12.5 13q82 56 153.5 35t108.5 -109q16 -38 44.5 -132t56.5 -173q11 -25 30.5 -75t22.5 -58q55 7 76.5 9.5t61.5 -1.5t71 -19q6 -4 12 -10.5t14 -16.5t11 -14q-22 -24 -57 -28t-69 -7.5t-53 -25.5q10 -32 32.5 -94.5t31.5 -89.5q-58 -6 -86.5 10t-42.5 59q-2 10 -9.5 44 t-13.5 52q-19 51 -48 60t-73 -23q-41 -24 -88 -12q-20 8 -47 21q-19 -26 -28 -46q-11 -29 -31.5 -58t-35 -45t-48 -47.5t-43.5 -41.5q-23 -23 -53.5 -11t-38.5 46zM254 940q137 51 195 111q23 26 64 19t52 -38q3 -8 7.5 -15t8 -12.5t10 -12t9.5 -10t11 -10.5t10.5 -9t12 -10 t11.5 -9q37 -33 45 -45q6 -5 8 -15.5t-2 -15.5q-10 -16 -32 -16q-20 2 -43 18q-80 59 -109 84q-26 23 -53 2q-22 -18 -64.5 -50.5t-48.5 -37.5q-20 -15 -31.5 -14.5t-23.5 20.5q-14 18 -37 66zM391 272q27 -3 156 -16l-90 168q-56 -59 -66 -152z" />
<glyph unicode="&#xe3;" horiz-adv-x="884" d="M76 -10q-20 95 41 184q99 144 125 193q14 25 21.5 40.5t14.5 39.5t5 47.5t-13 48.5q56 11 79 10.5t50 -10.5q0 3 0.5 8.5t0.5 10t-1 7.5q-48 112 -63 136q-3 5 -11 18.5t-11.5 19.5t-11 17t-13.5 17t-14.5 13.5t-18 12.5t-20.5 8q-7 2 -14 7.5t-14.5 14.5t-12.5 13 q82 58 155 37t107 -111q32 -86 64 -188t57 -172q11 -25 30.5 -75t22.5 -58q55 7 76.5 9.5t61.5 -1.5t71 -19q6 -4 12 -10.5t14 -16.5t11 -14q-22 -24 -57 -28t-69 -7.5t-53 -25.5q10 -32 32.5 -94.5t31.5 -89.5q-58 -6 -86.5 10t-42.5 59q-2 10 -9.5 44t-13.5 52 q-19 51 -48 60t-73 -23q-41 -24 -88 -12q-20 8 -47 21q-19 -26 -28 -46q-11 -29 -31.5 -58t-35 -45t-48 -47.5t-43.5 -41.5q-23 -23 -53.5 -11t-38.5 46zM284 1019.5q3 14.5 29 24.5q107 48 176 -16h5q35 -28 47.5 -28.5t50.5 22.5q5 3 43 25q11 -17 7 -36t-10 -30t-20 -27 q-27 -35 -71 -20q-32 14 -49 29q-9 6 -26 22.5t-20 18.5q-25 20 -44.5 18.5t-43.5 -23.5l-34 -36q-4 3 -9 7t-8.5 7t-7.5 6q-18 22 -15 36.5zM391 272q27 -3 156 -16l-90 168q-56 -59 -66 -152z" />
<glyph unicode="&#xe4;" horiz-adv-x="884" d="M76 -10q-20 95 41 184q99 144 125 193q14 25 21.5 40.5t14.5 39.5t5 47.5t-13 48.5q56 11 79 10.5t50 -10.5q0 3 0.5 8.5t0.5 10t-1 7.5q-48 112 -63 136q-3 5 -11 18.5t-11.5 19.5t-11 17t-13.5 17t-14.5 13.5t-18 12.5t-20.5 8q-7 2 -14 7.5t-14.5 14.5t-12.5 13 q82 58 155 37t107 -111q32 -86 64 -188t57 -172q11 -25 30.5 -75t22.5 -58q55 7 76.5 9.5t61.5 -1.5t71 -19q6 -4 12 -10.5t14 -16.5t11 -14q-22 -24 -57 -28t-69 -7.5t-53 -25.5q10 -32 32.5 -94.5t31.5 -89.5q-58 -6 -86.5 10t-42.5 59q-2 10 -9.5 44t-13.5 52 q-19 51 -48 60t-73 -23q-41 -24 -88 -12q-20 8 -47 21q-19 -26 -28 -46q-11 -29 -31.5 -58t-35 -45t-48 -47.5t-43.5 -41.5q-23 -23 -53.5 -11t-38.5 46zM367 1020q25 39 63 8q46 -31 55 -41q24 -26 13 -55.5t-52 -48.5q-43 39 -57 64t-22 73zM391 272q27 -3 156 -16 l-90 168q-56 -59 -66 -152zM553 1001q8 25 18.5 31t32.5 -4q35 -20 41 -24q49 -34 35 -84q-14 -28 -31 -31q-9 -4 -23.5 -1t-19.5 11q-3 4 -53 102z" />
<glyph unicode="&#xe5;" horiz-adv-x="884" d="M76 -10q-20 95 41 184q99 144 125 193q14 25 21.5 40.5t14.5 39.5t5 47.5t-13 48.5q56 11 79 10.5t50 -10.5q0 3 0.5 8.5t0.5 10t-1 7.5q-48 112 -63 136q-3 5 -11 18.5t-11.5 19.5t-11 17t-13.5 17t-14.5 13.5t-18 12.5t-20.5 8q-7 2 -14 7.5t-14.5 14.5t-12.5 13 q82 58 155 37t107 -111q32 -86 64 -188t57 -172q11 -25 30.5 -75t22.5 -58q55 7 76.5 9.5t61.5 -1.5t71 -19q6 -4 12 -10.5t14 -16.5t11 -14q-22 -24 -57 -28t-69 -7.5t-53 -25.5q10 -32 32.5 -94.5t31.5 -89.5q-58 -6 -86.5 10t-42.5 59q-2 10 -9.5 44t-13.5 52 q-19 51 -48 60t-73 -23q-41 -24 -88 -12q-20 8 -47 21q-19 -26 -28 -46q-11 -29 -31.5 -58t-35 -45t-48 -47.5t-43.5 -41.5q-23 -23 -53.5 -11t-38.5 46zM391 272q27 -3 156 -16l-90 168q-56 -59 -66 -152zM401 944q0 71 42.5 104.5t119.5 24.5q46 -9 58 -57 q22 -69 -29 -129t-123 -51q-32 5 -50.5 34t-17.5 74zM473 955.5q-1 -20.5 14 -37.5q1 0 16 6t19 8t16 8.5t14.5 12.5t6.5 15t1 20.5t-11 25.5q-32 -3 -53.5 -20.5t-22.5 -38z" />
<glyph unicode="&#xe6;" horiz-adv-x="1081" d="M-211 -86q12 -5 24.5 -5.5t21.5 2t20 9t17.5 12.5t16.5 15q81 73 152 180q40 61 78 137t61.5 132t60 147.5t56.5 138.5q86 210 57 371l13 26q89 -28 174 -121q15 -12 0 -51q-3 -10 -8 -20.5t-12 -22t-9 -16.5q48 -66 80 -111q2 0 11 -1t18 -1t16 2q78 21 156 -39 q22 -16 30 -43q7 -23 -2.5 -36t-32.5 -13q-50 4 -65 19q-53 43 -98 20q-69 -36 -80 -96q-4 -31 -4 -103q12 0 31 -0.5t33.5 -0.5t27.5 1q117 9 166 -98q-32 -10 -87 -9.5t-102.5 -7.5t-85.5 -40q2 -21 9 -71t10 -75l49 -3.5t52.5 -2.5t45 1.5t50 8.5t44.5 19q60 36 129 -18 q29 -19 80.5 -59.5t61.5 -47.5q-27 -41 -46.5 -46.5t-60.5 13.5q-12 4 -34.5 14t-36.5 16t-34 10t-36 3q-7 0 -36.5 -1t-40.5 -2t-36.5 -3.5t-40 -6.5t-35.5 -10t-38.5 -15.5t-34.5 -22.5v-101q-44 19 -51 25l-76 66q-25 21 -33.5 28t-20 22t-13 21t-2 25t2.5 33t10 47 q16 -8 62 -25q-5 47 -8 115l-78 -31q-20 11 -59.5 37.5t-53.5 34.5q-45 -48 -69 -86q-36 -54 -87 -111.5t-88 -94t-102 -97.5q-19 -21 -57 -29q-20 -3 -28.5 7.5t-4.5 35.5zM248 340h162v235q0 2 -1.5 5t-3.5 8.5t-4 11.5q-38 -31 -63.5 -72.5t-49.5 -100t-40 -87.5z" />
<glyph unicode="&#xe7;" horiz-adv-x="632" d="M92 395q-10 211 74 344q12 20 27.5 39.5t42 49t34.5 38.5l10 -2.5t8.5 -2t6 -2.5t4.5 -5q29 -30 98.5 -55t81.5 -31q63 -37 60 -102q0 -49 8 -88q4 -21 1 -37.5t-2 -37.5t11 -36q2 -4 0.5 -10t-6 -17t-6.5 -16q-9 6 -22.5 13t-16.5 9q-17 17 -21 13q-9 -8 -18 -8 t-13.5 3.5t-11.5 12t-10 10.5q-6 6 -14.5 20.5t-9.5 16.5q-45 55 -89 104q-54 -38 -65 -90q-22 -109 -16 -209q7 -68 36 -110q63 -90 121 -147.5t137 -86.5q11 -5 31 -18q-40 -12 -43 -12q-96 3 -170 32q13 -49 10 -124q22 -10 56 -29q43 -26 62 -71.5t9 -91t-45 -73.5 q-7 -5 -23.5 -18.5t-25.5 -19.5t-24 -15t-30 -12.5t-32 -3.5q-3 0 -13.5 -3t-18 -1t-11.5 12q-1 8 -2 12.5t3.5 9.5t7 7.5t9 6t9.5 5.5q66 47 117 131q17 29 8 46.5t-47 29.5q-19 -38 -27 -56q-41 12 -64 40t-20 63q11 127 -6 213q-24 19 -55 53q-82 95 -88 215 q-1 9 -5.5 29.5t-5.5 32.5q-1 3 -2.5 9.5t-2.5 11.5t-1 9z" />
<glyph unicode="&#xe8;" horiz-adv-x="655" d="M-47 793q64 -12 142 -19.5t125 -10t147 -6.5t129 -5q35 -2 131 -25q4 -1 8.5 -4t8 -6.5t8.5 -9t7 -7.5q-8 -12 -18.5 -17t-16.5 -5.5t-20 2t-18 2.5q-157 23 -326 -14q-4 -1 -9 -3.5t-12 -7.5t-12 -8q9 -12 27.5 -33t31 -37.5t21.5 -33.5q8 -16 14 -34.5t14 -48t13 -46.5 q8 -4 95.5 -27.5t131.5 -58.5q-15 -24 -38.5 -27t-42.5 2q-78 8 -117 10q-42 1 -58 -22.5t-20 -65.5q-1 -5 0 -11.5t3 -14t3 -11.5q3 -17 25 -112q63 4 94 10q190 19 344 -12q15 -3 48 -16.5t48 -18.5q-18 -9 -35.5 -20t-21.5 -13q-10 -2 -39 8q-208 72 -444 -55 q-17 -8 -36.5 -7.5t-28 3.5t-32.5 12q-105 41 -96 164q5 69 25 436q1 9 -3.5 25t-5.5 24q-88 20 -137 58t-57 117zM90 1073q63 13 211.5 -39t192.5 -100q0 -27 -35 -23q-13 2 -92 17q-11 2 -29 7t-33 8t-29 3q-47 0 -83 39q-10 9 -32.5 25t-27.5 20q-17 14 -43 43z" />
<glyph unicode="&#xe9;" horiz-adv-x="655" d="M-47 793q64 -12 142 -19.5t125 -10t147 -6.5t129 -5q35 -2 131 -25q4 -1 8.5 -4t8 -6.5t8.5 -9t7 -7.5q-8 -12 -18.5 -17t-16.5 -5.5t-20 2t-18 2.5q-157 23 -326 -14q-4 -1 -9 -3.5t-12 -7.5t-12 -8q9 -12 27.5 -33t31 -37.5t21.5 -33.5q8 -16 14 -34.5t14 -48t13 -46.5 q8 -4 95.5 -27.5t131.5 -58.5q-15 -24 -38.5 -27t-42.5 2q-78 8 -117 10q-42 1 -58 -22.5t-20 -65.5q-1 -5 0 -11.5t3 -14t3 -11.5q3 -17 25 -112q63 4 94 10q190 19 344 -12q15 -3 48 -16.5t48 -18.5q-18 -9 -35.5 -20t-21.5 -13q-10 -2 -39 8q-208 72 -444 -55 q-17 -8 -36.5 -7.5t-28 3.5t-32.5 12q-105 41 -96 164q5 69 25 436q1 9 -3.5 25t-5.5 24q-88 20 -137 58t-57 117zM168 918q21 16 22 16q8 2 25 4t25 4q78 25 108 39q66 27 76 86q59 -23 80 -76q14 -35 -19 -47q-58 -26 -96 -33q-49 -10 -151 -22q-28 -3 -48 8 q-6 1 -12.5 10t-9.5 11z" />
<glyph unicode="&#xea;" horiz-adv-x="655" d="M-47 793q64 -12 142 -19.5t125 -10t147 -6.5t129 -5q35 -2 131 -25q4 -1 8.5 -4t8 -6.5t8.5 -9t7 -7.5q-8 -12 -18.5 -17t-16.5 -5.5t-20 2t-18 2.5q-157 23 -326 -14q-4 -1 -9 -3.5t-12 -7.5t-12 -8q9 -12 27.5 -33t31 -37.5t21.5 -33.5q8 -16 14 -34.5t14 -48t13 -46.5 q8 -4 95.5 -27.5t131.5 -58.5q-15 -24 -38.5 -27t-42.5 2q-78 8 -117 10q-42 1 -58 -22.5t-20 -65.5q-1 -5 0 -11.5t3 -14t3 -11.5q3 -17 25 -112q63 4 94 10q190 19 344 -12q15 -3 48 -16.5t48 -18.5q-18 -9 -35.5 -20t-21.5 -13q-10 -2 -39 8q-208 72 -444 -55 q-17 -8 -36.5 -7.5t-28 3.5t-32.5 12q-105 41 -96 164q5 69 25 436q1 9 -3.5 25t-5.5 24q-88 20 -137 58t-57 117zM117 932q69 26 114 50t80 60q23 25 64.5 18t52.5 -36q6 -15 17 -29.5t16 -20t25.5 -22.5t21.5 -18q29 -22 45 -43q6 -4 7.5 -16t-1.5 -15q-14 -18 -33 -18 q-18 2 -45 20q-86 67 -106 84q-28 22 -56 0q-15 -13 -33.5 -27.5t-41 -31.5t-35.5 -27q-22 -15 -32.5 -14.5t-22.5 18.5q-14 20 -37 68z" />
<glyph unicode="&#xeb;" horiz-adv-x="655" d="M-47 793q64 -12 142 -19.5t125 -10t147 -6.5t129 -5q35 -2 131 -25q4 -1 8.5 -4t8 -6.5t8.5 -9t7 -7.5q-8 -12 -18.5 -17t-16.5 -5.5t-20 2t-18 2.5q-157 23 -326 -14q-4 -1 -9 -3.5t-12 -7.5t-12 -8q9 -12 27.5 -33t31 -37.5t21.5 -33.5q8 -16 14 -34.5t14 -48t13 -46.5 q8 -4 95.5 -27.5t131.5 -58.5q-15 -24 -38.5 -27t-42.5 2q-78 8 -117 10q-42 1 -58 -22.5t-20 -65.5q-1 -5 0 -11.5t3 -14t3 -11.5q3 -17 25 -112q63 4 94 10q190 19 344 -12q15 -3 48 -16.5t48 -18.5q-18 -9 -35.5 -20t-21.5 -13q-10 -2 -39 8q-208 72 -444 -55 q-17 -8 -36.5 -7.5t-28 3.5t-32.5 12q-105 41 -96 164q5 69 25 436q1 9 -3.5 25t-5.5 24q-88 20 -137 58t-57 117zM166 1016q25 36 63 8q42 -25 56 -43q24 -26 13.5 -55.5t-50.5 -48.5q-46 41 -60.5 65.5t-21.5 73.5zM354 995q12 49 49 27q8 -4 24.5 -14t18.5 -11 q47 -31 33 -84q-12 -24 -30 -30q-9 -4 -23.5 -1t-19.5 11q-18 29 -52 102z" />
<glyph unicode="&#xec;" horiz-adv-x="335" d="M-66 1073q62 13 211.5 -39t192.5 -100q-2 -27 -35 -23q-19 2 -94 17q-10 2 -28 7t-32.5 8t-27.5 3q-47 0 -86 39q-9 9 -32.5 25.5t-27.5 19.5q-20 16 -41 43zM23 745q-8 29 2 50q3 6 17.5 8t23.5 -2q64 -32 107.5 -63t74.5 -76q12 -24 8 -62q-2 -34 -8 -104t-8 -107 q-3 -72 -13 -414q0 -3 -1 -7t-4 -13t-5 -18q-32 27 -49.5 44t-36.5 42t-25 51.5t0 56.5q17 91 -14 256q-9 40 -18 117.5t-15 111.5q-4 23 -18 67t-18 62z" />
<glyph unicode="&#xed;" horiz-adv-x="335" d="M-20 944q2 1 6 5t7.5 6.5t6.5 2.5q8 3 16.5 4.5t18.5 3.5t16 3q77 25 107 37q68 31 75 88q58 -23 80 -78q15 -34 -16 -47q-73 -26 -98 -31q-59 -12 -152 -23q-19 -5 -47 9q-3 0 -6 2t-4.5 4.5t-5 7t-4.5 6.5zM23 745q-8 29 2 50q3 6 17.5 8t23.5 -2q64 -32 107.5 -63 t74.5 -76q12 -24 8 -62q-2 -34 -8 -104t-8 -107q-3 -72 -13 -414q0 -3 -1 -7t-4 -13t-5 -18q-32 27 -49.5 44t-36.5 42t-25 51.5t0 56.5q17 91 -14 256q-9 40 -18 117.5t-15 111.5q-4 23 -18 67t-18 62z" />
<glyph unicode="&#xee;" horiz-adv-x="335" d="M-94 936q49 19 76 31.5t60.5 34t57.5 47.5q23 25 64.5 17.5t52.5 -38.5q5 -12 11.5 -22t16 -19.5l15.5 -15.5t19 -16t18 -15q38 -33 45 -43q6 -6 8 -17t-2 -16q-10 -16 -33 -16q-20 2 -43 18q-56 40 -108 84q-26 26 -53 2l-113 -88q-20 -15 -31.5 -14.5t-23.5 20.5 q-14 18 -37 66zM23 745q-8 29 2 50q3 6 17.5 8t23.5 -2q64 -32 107.5 -63t74.5 -76q12 -24 8 -62q-2 -34 -8 -104t-8 -107q-3 -72 -13 -414q0 -3 -1 -7t-4 -13t-5 -18q-32 27 -49.5 44t-36.5 42t-25 51.5t0 56.5q17 91 -14 256q-9 40 -18 117.5t-15 111.5q-4 23 -18 67 t-18 62z" />
<glyph unicode="&#xef;" horiz-adv-x="335" d="M-12 1020q27 38 65 8q45 -30 56 -41q23 -26 12 -55.5t-51 -48.5q-45 39 -59.5 64t-22.5 73zM23 745q-8 29 2 50q3 6 17.5 8t23.5 -2q64 -32 107.5 -63t74.5 -76q12 -24 8 -62q-2 -34 -8 -104t-8 -107q-3 -72 -13 -414q0 -3 -1 -7t-4 -13t-5 -18q-32 27 -49.5 44t-36.5 42 t-25 51.5t0 56.5q17 91 -14 256q-9 40 -18 117.5t-15 111.5q-4 23 -18 67t-18 62zM176 1001q6 25 17.5 31t33.5 -4q6 -4 41 -24q46 -34 33 -84q-3 -10 -12 -20t-17 -11q-9 -4 -24 -1t-21 11q-15 23 -51 102z" />
<glyph unicode="&#xf0;" horiz-adv-x="913" d="M-248 678q171 65 324 83t308 -17.5t298 -129.5q150 -101 147 -301q-3 -122 -108 -186q-36 -23 -59.5 -36.5t-59.5 -26.5t-70 -15q-8 -1 -20.5 -11.5t-19.5 -10.5q-55 0 -113 20q15 11 41 33.5t48 38t44 24.5q40 17 76.5 50t52 54t51.5 72q65 92 44 167t-124 122 q-105 48 -258 51q-49 1 -59 -14.5t10 -58.5q14 -32 14 -78q0 -58 3 -119q35 -4 100 -20q4 -1 9 -4t8 -6t8.5 -9t7.5 -8q-15 -21 -36.5 -22.5t-39.5 4.5q-18 3 -57 8q0 -128 2 -189q0 -36 24 -102q21 -59 -24 -88t-86 20q-64 81 -64 195q0 100 -2 151q-2 -2 -4 -2 q-4 -2 -15 -8.5t-16 -9.5l-55 -31q-56 17 -85 49t-42 84q45 -22 106 -23.5t109 7.5q-4 118 -4 174q0 41 -8 55q-29 38 -47 35q-97 -21 -140 -49q-54 -32 -84.5 -31t-74.5 41q-24 24 -60 68z" />
<glyph unicode="&#xf1;" horiz-adv-x="667" d="M-14 694q131 0 180 -67q72 -105 184 -187q6 -4 35 -32t53 -35q1 5 3.5 17t2.5 18q-2 125 -8 342q0 19 -18 75q-4 12 -13.5 33.5t-11.5 26.5q9 6 13 12q5 -3 18.5 -8t19.5 -10q119 -112 150 -189q4 -1 2 -21.5t-2 -21.5q-8 -77 -10 -106q0 -9 -5 -53t-6 -87q0 -2 -4 -22 q-15 -275 -20 -328t-35 -178q-10 -43 -55 -35q-1 12 -6.5 87t-6.5 116v147q-5 43 -18 56q-30 33 -156 149q-2 5 -16 8q-31 -80 -41 -180v-168v-11.5t-2 -10.5t-7.5 -12.5t-15.5 -8.5q-19 34 -26 58q-44 142 -62 364q-7 92 -49 150q-12 17 -32.5 54t-34.5 58zM160 993 q-34 43 14 62q107 47 176 -17h4q35 -28 48 -28.5t51 22.5q4 3 43 25q11 -17 7 -36t-10 -29t-20 -27q-29 -37 -72 -19q-29 10 -49 27q-9 6 -25 21.5t-20 19.5q-25 20 -45 19t-43 -23l-35 -37q-4 4 -12 10.5t-12 9.5z" />
<glyph unicode="&#xf2;" horiz-adv-x="655" d="M63 584q3 11 11.5 15.5t21 6t17.5 4.5t10 8.5t10.5 13.5t7.5 11q1 1 10.5 9.5t12 10t10.5 6.5t13 5t13.5 -1t16.5 -5h16q27 15 57.5 16t70 -6t57.5 -8q68 -2 180 -25q35 -6 40 -20.5t-9 -49.5q-7 -19 -11.5 -40.5t-9 -52t-6.5 -42.5q-7 -61 -14.5 -98t-28.5 -84.5 t-55 -83.5q-11 -12 -28.5 -38t-29.5 -38q-30 -28 -120 -92q-4 -4 -10.5 -4.5t-13 0.5t-13.5 0q-97 6 -129 92q-8 21 -29 69.5t-31 74.5q-8 23 -12 73q-2 17 -7.5 45.5t-8 45t-4 45t3.5 45.5q1 6 -4 32q-6 52 -5 60zM125 934q63 13 211 -39t192 -100q0 -27 -34 -23 q-31 4 -93 16q-6 1 -39 10t-51 9q-48 0 -84 39q-11 9 -33 25.5l-26 19.5q-17 14 -43 43zM174 389q-22 -107 29 -196q21 -34 38.5 -43t51.5 0q48 12 69 30q69 53 109 102.5t49 118.5q6 37 -11 82t-46 58q-17 7 -38.5 12.5t-50 11.5t-44.5 10q-42 -12 -45 -14q-42 -42 -56 -67 q-47 -67 -55 -105z" />
<glyph unicode="&#xf3;" horiz-adv-x="655" d="M63 584q3 11 11.5 15.5t21 6t17.5 4.5t10 8.5t10.5 13.5t7.5 11q1 1 10.5 9.5t12 10t10.5 6.5t13 5t13.5 -1t16.5 -5h16q27 15 57.5 16t70 -6t57.5 -8q68 -2 180 -25q35 -6 40 -20.5t-9 -49.5q-7 -19 -11.5 -40.5t-9 -52t-6.5 -42.5q-7 -61 -14.5 -98t-28.5 -84.5 t-55 -83.5q-11 -12 -28.5 -38t-29.5 -38q-30 -28 -120 -92q-4 -4 -10.5 -4.5t-13 0.5t-13.5 0q-97 6 -129 92q-8 21 -29 69.5t-31 74.5q-8 23 -12 73q-2 17 -7.5 45.5t-8 45t-4 45t3.5 45.5q1 6 -4 32q-6 52 -5 60zM164 825q2 1 9.5 8.5t10.5 8.5q9 2 26 4t26 4 q71 23 106 39q69 28 76 86q59 -23 80 -76q14 -36 -17 -47q-63 -27 -98 -33q-53 -11 -152 -22q-25 -3 -47 8q-4 1 -7.5 4.5t-7 8.5t-5.5 7zM174 389q-22 -107 29 -196q21 -34 38.5 -43t51.5 0q48 12 69 30q69 53 109 102.5t49 118.5q6 37 -11 82t-46 58q-17 7 -38.5 12.5 t-50 11.5t-44.5 10q-42 -12 -45 -14q-42 -42 -56 -67q-47 -67 -55 -105z" />
<glyph unicode="&#xf4;" horiz-adv-x="655" d="M63 575q3 11 11 16t21.5 7.5t17.5 3.5q5 4 10 9.5t10.5 13t7.5 10.5q3 3 11 10t11.5 10t11 7.5t13 5t13.5 -0.5t16 -5q10 -3 16 0q27 14 57.5 15t70 -5.5t57.5 -7.5q86 -6 180 -25q35 -6 40 -21t-9 -51q-7 -18 -11.5 -39t-9 -52t-6.5 -42q-8 -62 -15 -99t-28 -84.5 t-55 -82.5q-10 -11 -28 -38t-30 -38q-17 -16 -35 -30.5t-47.5 -36t-37.5 -27.5q-5 -4 -19.5 -4h-17.5q-96 6 -129 94q-7 18 -28.5 66t-31.5 75q-8 22 -12 76q-2 17 -7.5 45.5t-8 44.5t-4 44t3.5 44q1 7 -4 33q-5 55 -5 59zM106 864q137 51 195 111q23 25 64.5 17.5 t52.5 -36.5q6 -15 17 -29.5t16 -20t25.5 -22.5t21.5 -18q29 -22 45 -43q6 -4 7.5 -15.5t-1.5 -14.5q-15 -19 -33 -19q-23 3 -45 21q-51 36 -106 82q-28 25 -56 2q-106 -83 -110 -86q-22 -15 -33 -14.5t-23 18.5q-15 22 -37 67zM174 383q-22 -108 29 -197q21 -34 38.5 -43 t51.5 0q40 6 69 29q45 36 72.5 62.5t53 69.5t32.5 91q6 37 -11 81.5t-46 55.5q-17 8 -38.5 13.5t-50.5 11.5t-44 10q-4 -1 -14 -3t-18 -4.5t-13 -6.5q-38 -35 -56 -66q-47 -68 -55 -104z" />
<glyph unicode="&#xf5;" horiz-adv-x="655" d="M63 584q3 11 11.5 15.5t21 6t17.5 4.5t10 8.5t10.5 13.5t7.5 11q1 1 10.5 9.5t12 10t10.5 6.5t13 5t13.5 -1t16.5 -5h16q27 15 57.5 16t70 -6t57.5 -8q68 -2 180 -25q35 -6 40 -20.5t-9 -49.5q-7 -19 -11.5 -40.5t-9 -52t-6.5 -42.5q-7 -61 -14.5 -98t-28.5 -84.5 t-55 -83.5q-11 -12 -28.5 -38t-29.5 -38q-30 -28 -120 -92q-4 -4 -10.5 -4.5t-13 0.5t-13.5 0q-97 6 -129 92q-8 21 -29 69.5t-31 74.5q-8 23 -12 73q-2 17 -7.5 45.5t-8 45t-4 45t3.5 45.5q1 6 -4 32q-6 52 -5 60zM174 389q-22 -107 29 -196q21 -34 38.5 -43t51.5 0 q48 12 69 30q69 53 109 102.5t49 118.5q6 37 -11 82t-46 58q-17 7 -38.5 12.5t-50 11.5t-44.5 10q-42 -12 -45 -14q-42 -42 -56 -67q-47 -67 -55 -105zM182 842q-33 42 15 61q107 47 176 -14q2 -2 4 -2q35 -28 47.5 -28.5t50.5 22.5q7 5 23 13.5t20 10.5q6 -15 7.5 -27.5 t-3 -24t-10.5 -20t-16 -20.5q-28 -36 -72 -18q-31 10 -49 26q-7 4 -14 10.5t-16 16.5t-13 14q-26 20 -46.5 19.5t-43.5 -23.5l-35 -37q-5 4 -13 11t-12 10z" />
<glyph unicode="&#xf6;" horiz-adv-x="655" d="M63 584q3 11 11.5 15.5t21 6t17.5 4.5t10 8.5t10.5 13.5t7.5 11q1 1 10.5 9.5t12 10t10.5 6.5t13 5t13.5 -1t16.5 -5h16q27 15 57.5 16t70 -6t57.5 -8q68 -2 180 -25q35 -6 40 -20.5t-9 -49.5q-7 -19 -11.5 -40.5t-9 -52t-6.5 -42.5q-7 -61 -14.5 -98t-28.5 -84.5 t-55 -83.5q-11 -12 -28.5 -38t-29.5 -38q-30 -28 -120 -92q-4 -4 -10.5 -4.5t-13 0.5t-13.5 0q-97 6 -129 92q-8 21 -29 69.5t-31 74.5q-8 23 -12 73q-2 17 -7.5 45.5t-8 45t-4 45t3.5 45.5q1 6 -4 32q-6 52 -5 60zM174 389q-22 -107 29 -196q21 -34 38.5 -43t51.5 0 q48 12 69 30q69 53 109 102.5t49 118.5q6 37 -11 82t-46 58q-17 7 -38.5 12.5t-50 11.5t-44.5 10q-42 -12 -45 -14q-42 -42 -56 -67q-47 -67 -55 -105zM190 903q25 39 64 8q4 -3 13.5 -9t15.5 -9.5t13.5 -10t12.5 -12.5q24 -26 13.5 -55.5t-50.5 -48.5q-45 39 -59.5 64 t-22.5 73zM377 885q7 25 19 31t32 -5l43 -24q46 -34 33 -84q-14 -28 -31 -31q-9 -4 -23.5 -1t-19.5 11q-9 14 -17.5 31t-19 38.5t-16.5 33.5z" />
<glyph unicode="&#xf7;" horiz-adv-x="794" d="M61 293q74 6 226 14q156 8 235 8q130 -3 211 -112q-55 -10 -69 -10q-4 -1 -31 10q-56 24 -115.5 24t-107 -15.5t-107.5 -45.5q-6 -2 -12 -7t-9.5 -9t-11.5 -13t-10 -12q-74 25 -123 62.5t-76 105.5zM272 590q5 -3 26.5 -14t27 -14t23.5 -13.5t24 -15.5t19 -15.5t19 -18.5 t13 -20t12 -24q-7 -11 -17.5 -26.5t-19 -28.5t-16.5 -27q-12 16 -38.5 48t-39.5 50t-24 50.5t-9 68.5zM293 82q10 1 24 3.5t18.5 2.5t14.5 -2q73 -29 127 -61q23 -13 27 -43q0 -29 -21 -50q-11 -11 -25.5 -10t-25.5 12q-23 20 -63 66q-13 13 -37.5 40t-38.5 42z" />
<glyph unicode="&#xf8;" horiz-adv-x="907" d="M63 469q0 107 33 219q109 -21 119 -24q41 -10 61 10q72 52 76 55q36 36 105 47q39 6 81.5 -23.5t43.5 -66.5q1 -18 15 -38t17 -27q138 112 185 151q42 -15 66 -48t24 -77q-35 -17 -104.5 -49.5t-104.5 -50.5q-29 -14 -51 -31q-19 -14 -19 -29q-7 -23 -15.5 -63.5 t-12.5 -54.5q-9 -31 -17 -41q-46 -61 -49 -160q0 -49 -37 -76l-30 -24q-106 -86 -207 -43q-46 21 -70 51q-17 21 -44 66.5t-30 50.5q-7 10 -15.5 51.5t-8.5 58.5q-1 23 -6 79.5t-5 86.5zM205 248q0 -59 53 -119q30 -37 61 -37.5t56 37.5q40 60 82 156q8 23 21.5 70t21.5 71 q-2 2 -7 6.5t-8 5.5l-65 -18q-21 -7 -70 -37.5t-82 -36.5q-28 -4 -45.5 -34.5t-17.5 -63.5zM227 365q11 0 15 2q124 80 204 135q30 22 33 43q4 37 -31.5 63.5t-70.5 12.5q-70 -25 -113 -97.5t-37 -158.5z" />
<glyph unicode="&#xf9;" horiz-adv-x="847" d="M41 651q6 35 28.5 48t51.5 -1q13 -6 49.5 -21t56.5 -24q37 -18 50 -44t8 -68q-22 -262 -25 -361q0 -21 -1 -40t6.5 -42t23.5 -43l43 43q4 6 23.5 35t25 37t23 35t24 38t22 35.5t22.5 38.5t19.5 36.5t20 40t16 38.5t15.5 41q43 122 43 252q0 38 2.5 62.5t7.5 54.5t8 61 q8 80 10 113q0 33 25 43q10 3 42.5 12.5t47.5 15.5q32 -32 27 -69q-6 -64 -19 -223q-1 -29 -7 -109.5t-7 -124.5q-3 -111 2 -196q1 -14 1 -71t3 -89q13 -94 39.5 -148t71.5 -90q-31 0 -49.5 1.5t-48.5 13.5t-54 36q-45 41 -74 126.5t-39 162.5q-16 -33 -24 -47 q-43 -104 -49 -117q-50 -91 -86 -143q-41 -56 -111 -47l-29 2q-100 -6 -124 92q-6 21 -18 63.5t-19 68.5t-14.5 62.5t-10.5 67.5q-2 33 -12.5 104.5t-11.5 110.5q0 12 -7 34.5t-8 27.5q-1 7 -4.5 21.5t-5 24.5t-0.5 19zM84 1073q62 13 211 -39t192 -100q-2 -27 -34 -23 q-21 3 -95 17q-10 2 -28 7t-32.5 8t-27.5 3q-47 0 -86 39q-12 12 -59 45q-20 16 -41 43z" />
<glyph unicode="&#xfa;" horiz-adv-x="847" d="M41 651q6 35 28.5 48t51.5 -1q13 -6 49.5 -21t56.5 -24q37 -18 50 -44t8 -68q-22 -262 -25 -361q0 -21 -1 -40t6.5 -42t23.5 -43l43 43q4 6 23.5 35t25 37t23 35t24 38t22 35.5t22.5 38.5t19.5 36.5t20 40t16 38.5t15.5 41q43 122 43 252q0 38 2.5 62.5t7.5 54.5t8 61 q8 80 10 113q0 33 25 43q10 3 42.5 12.5t47.5 15.5q32 -32 27 -69q-6 -64 -19 -223q-1 -29 -7 -109.5t-7 -124.5q-3 -111 2 -196q1 -14 1 -71t3 -89q13 -94 39.5 -148t71.5 -90q-31 0 -49.5 1.5t-48.5 13.5t-54 36q-45 41 -74 126.5t-39 162.5q-16 -33 -24 -47 q-43 -104 -49 -117q-50 -91 -86 -143q-41 -56 -111 -47l-29 2q-100 -6 -124 92q-6 21 -18 63.5t-19 68.5t-14.5 62.5t-10.5 67.5q-2 33 -12.5 104.5t-11.5 110.5q0 12 -7 34.5t-8 27.5q-1 7 -4.5 21.5t-5 24.5t-0.5 19zM166 944q2 1 6 5t7.5 6.5t6.5 2.5q9 4 29 7t23 4 q95 32 106 37q67 30 76 88q58 -23 80 -78q15 -33 -19 -47q-66 -26 -96 -31q-59 -12 -152 -23q-19 -5 -47 9q-3 0 -6 2t-4.5 4.5t-5 7t-4.5 6.5z" />
<glyph unicode="&#xfb;" horiz-adv-x="847" d="M41 651q6 35 28.5 48t51.5 -1q13 -6 49.5 -21t56.5 -24q37 -18 50 -44t8 -68q-22 -262 -25 -361q0 -21 -1 -40t6.5 -42t23.5 -43l43 43q4 6 23.5 35t25 37t23 35t24 38t22 35.5t22.5 38.5t19.5 36.5t20 40t16 38.5t15.5 41q43 122 43 252q0 38 2.5 62.5t7.5 54.5t8 61 q8 80 10 113q0 33 25 43q10 3 42.5 12.5t47.5 15.5q32 -32 27 -69q-6 -64 -19 -223q-1 -29 -7 -109.5t-7 -124.5q-3 -111 2 -196q1 -14 1 -71t3 -89q13 -94 39.5 -148t71.5 -90q-31 0 -49.5 1.5t-48.5 13.5t-54 36q-45 41 -74 126.5t-39 162.5q-16 -33 -24 -47 q-43 -104 -49 -117q-50 -91 -86 -143q-41 -56 -111 -47l-29 2q-100 -6 -124 92q-6 21 -18 63.5t-19 68.5t-14.5 62.5t-10.5 67.5q-2 33 -12.5 104.5t-11.5 110.5q0 12 -7 34.5t-8 27.5q-1 7 -4.5 21.5t-5 24.5t-0.5 19zM63 924q135 50 195 110q22 25 64 18t53 -36 q6 -15 16.5 -29.5t17 -21t24.5 -21t22 -18.5q37 -32 45 -43q4 -4 6.5 -16t-0.5 -15q-14 -18 -35 -18q-23 3 -43 20q-54 37 -109 82q-26 26 -53 2q-106 -83 -110 -86q-22 -17 -33.5 -16.5t-24.5 20.5q-12 20 -35 68z" />
<glyph unicode="&#xfc;" horiz-adv-x="847" d="M41 651q6 35 28.5 48t51.5 -1q13 -6 49.5 -21t56.5 -24q37 -18 50 -44t8 -68q-22 -262 -25 -361q0 -21 -1 -40t6.5 -42t23.5 -43l43 43q4 6 23.5 35t25 37t23 35t24 38t22 35.5t22.5 38.5t19.5 36.5t20 40t16 38.5t15.5 41q43 122 43 252q0 38 2.5 62.5t7.5 54.5t8 61 q8 80 10 113q0 33 25 43q10 3 42.5 12.5t47.5 15.5q32 -32 27 -69q-6 -64 -19 -223q-1 -29 -7 -109.5t-7 -124.5q-3 -111 2 -196q1 -14 1 -71t3 -89q13 -94 39.5 -148t71.5 -90q-31 0 -49.5 1.5t-48.5 13.5t-54 36q-45 41 -74 126.5t-39 162.5q-16 -33 -24 -47 q-43 -104 -49 -117q-50 -91 -86 -143q-41 -56 -111 -47l-29 2q-100 -6 -124 92q-6 21 -18 63.5t-19 68.5t-14.5 62.5t-10.5 67.5q-2 33 -12.5 104.5t-11.5 110.5q0 12 -7 34.5t-8 27.5q-1 7 -4.5 21.5t-5 24.5t-0.5 19zM172 1020q28 39 66 8q42 -28 55 -41q23 -26 12 -55.5 t-51 -48.5q-45 39 -59.5 64t-22.5 73zM360 1001q11 47 52 27q6 -4 41 -24q46 -34 32 -84q-3 -10 -11.5 -20t-16.5 -11q-9 -4 -24 -1t-21 11q-18 29 -52 102z" />
<glyph unicode="&#xfd;" horiz-adv-x="604" d="M-92 158q53 14 96 -23q93 -83 109 -100q114 -114 270 -135q45 -8 61 5.5t15 57.5q-4 51 -16 179t-19 225q0 4 -3 10.5t-9 18.5t-11 26q-30 -58 -47 -100q-7 -13 -14.5 -36.5t-9.5 -29.5q-23 -53 -50.5 -57.5t-64.5 39.5q-48 51 -70 116q-7 21 -13.5 48t-10 45.5t-9 50.5 t-8.5 47q-18 94 -28 162q72 6 112.5 -35.5t34.5 -114.5q-6 -65 -4 -83t19 -62q7 0 13 0.5t10.5 4t8 6t6.5 8t4.5 8.5t4.5 10.5t4 9.5q74 156 80 168q26 53 8 110q-16 61 18 88q15 13 33.5 14.5t32 -2.5t33.5 -14q75 -35 95 -105t-22 -143q-13 -24 -20 -63 q-28 -152 -36.5 -265.5t-6.5 -266.5q1 -71 3 -104.5t15.5 -87.5t40.5 -95q11 -18 15 -78q-76 20 -324 222t-346 321zM147 944q3 2 10.5 8t10.5 6q10 3 28 6.5t23 4.5q87 28 109 37q66 30 73 88q61 -23 80 -78q18 -32 -16 -47q-66 -25 -98 -31q-58 -12 -152 -23q-18 -5 -47 9 q-4 0 -7 3t-7 8.5t-7 8.5z" />
<glyph unicode="&#xfe;" horiz-adv-x="540" d="M76 1073q109 3 180 -57q14 -12 41 -39q19 -18 0 -114q-13 -66 -5 -69q2 0 5 1q40 16 142.5 17t140.5 -19q23 -14 59 -50q39 -45 16 -98q-3 -6 -11 -22.5t-11.5 -24t-11.5 -21t-15 -21.5t-17 -17.5t-22 -16.5q-10 -5 -20 -14t-20.5 -20.5t-16.5 -16.5q-48 -45 -92 -47 q-6 0 -13 -3t-16 -8.5t-12 -6.5q-54 -35 -103 -3q-2 -10 -7 -30.5t-5 -30.5q0 -28 4 -68t4 -69q0 -154 19 -256v-21t-5 -21l-5 -18q-14 -3 -23.5 -3.5t-18.5 3t-14 7t-13.5 14t-13.5 18.5t-17 26t-21 32q1 6 6.5 22.5t5.5 24.5q0 147 -8 200q-28 211 -21 359q2 43 -8.5 120 t-11.5 111q-4 92 -4 119q-1 19 -1.5 24t-2.5 21t-5.5 23.5t-10.5 18.5t-17 20q-2 1 -2.5 4t-0.5 9.5t-1 10.5zM273 516q-6 -41 6 -80q64 10 164.5 100.5t148.5 178.5q-38 41 -86 35q-17 -4 -94 -29q-13 -4 -20 -7.5t-12 -14t-1 -25.5q8 -27 -37 -39l-35 -6q-28 -72 -34 -113 z" />
<glyph unicode="&#xff;" horiz-adv-x="604" d="M-92 158q53 14 96 -23q93 -83 109 -100q114 -114 270 -135q45 -8 61 5.5t15 57.5q-4 51 -16 179t-19 225q0 4 -3 10.5t-9 18.5t-11 26q-30 -58 -47 -100q-7 -13 -14.5 -36.5t-9.5 -29.5q-23 -53 -50.5 -57.5t-64.5 39.5q-48 51 -70 116q-7 21 -13.5 48t-10 45.5t-9 50.5 t-8.5 47q-18 94 -28 162q72 6 112.5 -35.5t34.5 -114.5q-6 -65 -4 -83t19 -62q7 0 13 0.5t10.5 4t8 6t6.5 8t4.5 8.5t4.5 10.5t4 9.5q74 156 80 168q26 53 8 110q-16 61 18 88q15 13 33.5 14.5t32 -2.5t33.5 -14q75 -35 95 -105t-22 -143q-13 -24 -20 -63 q-28 -152 -36.5 -265.5t-6.5 -266.5q1 -71 3 -104.5t15.5 -87.5t40.5 -95q11 -18 15 -78q-76 20 -324 222t-346 321zM168 1020q25 39 63 8q48 -32 56 -41q24 -26 13.5 -55.5t-50.5 -48.5q-45 39 -59.5 64t-22.5 73zM354 1016q8 26 19 32t33 -6q23 -10 40 -24q50 -30 35 -84 q-16 -26 -30 -31q-9 -3 -24 0t-19 10q-7 11 -54 103z" />
<glyph unicode="&#x152;" horiz-adv-x="1468" d="M78 250q3 33 10 68t19 82t16 67q6 31 20 88.5t19 81.5q48 240 262 375q39 19 70 14q118 -16 178 -37q74 -25 119 -78.5t55 -130.5q1 -6 4.5 -20.5t5.5 -24.5h158q104 3 151 -67q-7 -11 -16 -20t-15.5 -14.5t-21 -10.5t-19 -6.5t-22.5 -6t-20 -4.5q-54 -12 -80 -8 q-34 7 -82.5 -20.5t-61.5 -30.5q-9 -1 -15 -21t-3 -34q1 -10 14 -23t25 -16q7 -5 30.5 -1.5t32.5 1.5q54 -6 99 -27q6 -3 11.5 -10.5t11.5 -18.5t9 -16q-39 -24 -51 -27q-13 -3 -36.5 -2t-34.5 -2q-52 -10 -66.5 -33t-9.5 -86q50 -8 74 -8q8 0 59 -1.5t65.5 -1t56.5 2.5 t64 7t54.5 15t60.5 25q30 17 89 -8.5t91 -66.5q6 -9 10 -21q0 -1 -4 -33q-117 6 -118 6q-106 0 -127 -2q-48 -5 -151.5 -16t-158.5 -16q-44 -4 -57 -18t-16 -60q-2 -14 -8 -28t-13 -15q-11 -3 -26.5 1t-22.5 11q-54 51 -51 123q3 35 -15 68q-106 -160 -139 -201 q-79 -95 -143 -133q-58 -34 -116 -30t-105 31t-77.5 79t-31.5 114q0 14 -7 85t-3 110zM213 55q25 -101 81 -117.5t128 56.5q51 55 170 211q55 66 53 129q0 7 12 37q98 195 56 366q-21 93 -111 142q-4 3 -20 9.5t-23 12.5q-57 47 -125 0q-14 -10 -96 -88q9 -8 22.5 -19.5 t22 -19.5t14.5 -16q66 -81 -24 -137q-73 -46 -103 -146q-3 -9 -10.5 -32.5t-11.5 -34.5q-72 -185 -35 -353z" />
<glyph unicode="&#x153;" horiz-adv-x="1247" d="M66 213q3 32 38 184q5 26 16.5 74.5t16.5 69.5q43 204 223 319q35 18 60 12q114 -18 151 -30q130 -45 148 -178q1 -3 2.5 -10l3 -14t2.5 -15h135q86 3 129 -58q-6 -9 -14 -16.5t-13.5 -12t-18 -9t-16 -5.5t-19.5 -4.5t-17 -3.5q-41 -11 -68 -8q-30 6 -70.5 -17t-52.5 -26 q-7 -1 -12 -18t-2 -29q2 -9 12 -19.5t21 -13.5q7 -5 26.5 -1.5t26.5 1.5q47 -6 84 -23q7 -4 17 -19.5t12 -18.5q-37 -21 -45 -23q-9 -2 -31 -1.5t-29 -2.5q-44 -9 -56 -27.5t-9 -72.5q35 -7 63 -7q10 0 43.5 -1t47 -1t42 0.5t46 3t41.5 7t44.5 12t40.5 18.5q26 15 76.5 -6.5 t77.5 -56.5q8 -12 8 -19q0 -14 -2 -26q-66 4 -102 4q-89 0 -107 -2q-42 -4 -130 -13.5t-134 -13.5q-37 -5 -47.5 -16t-13.5 -51q-6 -35 -19 -35q-9 -3 -22 0t-19 10q-46 40 -43 105q4 31 -12 57q-108 -159 -119 -172q-67 -78 -123 -113q-48 -29 -97.5 -25.5t-89 27t-65 68 t-26.5 96.5q-1 14 -6.5 74t-3.5 92zM180 47q22 -86 69 -100t109 47q43 46 146 180q47 59 45 111q0 10 10 30q83 160 47 312q-19 80 -94 121q-1 1 -16 7t-21 11q-50 39 -106 0q-12 -9 -24.5 -20.5t-30 -28.5t-27.5 -27q5 -5 24.5 -21t26.5 -24q55 -69 -21 -117 q-62 -41 -88 -125l-18 -57q-63 -156 -31 -299z" />
<glyph unicode="&#x178;" horiz-adv-x="710" d="M-109 186q64 16 113 -26q90 -78 129 -119q129 -132 318 -160q53 -9 72 7.5t16 68.5q-6 83 -20 227t-21 246q0 5 -2 11.5t-5 12.5t-9 18.5t-11 23.5q-40 -81 -55 -117q-7 -15 -16 -42t-13 -36q-27 -62 -58.5 -68t-76.5 46q-54 61 -80 139q-9 25 -16.5 57t-11.5 50.5 t-11.5 61t-9.5 54.5q-29 153 -35 190q86 6 133.5 -42t40.5 -134q-6 -77 -4 -98t21 -72q10 -1 18 1.5t13 5t10.5 10.5t7 11t6.5 15t6 13q75 160 94 196q30 65 10 129q-20 73 21 105q18 15 39.5 17t37 -3t38.5 -16q89 -41 113.5 -123t-25.5 -168q-14 -27 -25 -76 q-32 -179 -42.5 -313.5t-8.5 -313.5q1 -82 3.5 -122t19 -103t49.5 -112q6 -10 9 -23.5t4.5 -37t2.5 -30.5q-58 15 -220 134.5t-328.5 267t-240.5 237.5zM197 1200q31 45 75 10q48 -29 66 -49q28 -31 15 -66t-60 -57q-53 47 -70 75.5t-26 86.5zM418 1196q8 30 21 37t38 -6 q13 -7 49 -29q56 -38 39 -98q-5 -12 -15 -23t-20 -14q-10 -5 -27.5 -1t-23.5 13q-11 17 -21 36t-22 46t-18 39z" />
<glyph unicode="&#x2000;" horiz-adv-x="643" />
<glyph unicode="&#x2001;" horiz-adv-x="1286" />
<glyph unicode="&#x2002;" horiz-adv-x="643" />
<glyph unicode="&#x2003;" horiz-adv-x="1286" />
<glyph unicode="&#x2004;" horiz-adv-x="428" />
<glyph unicode="&#x2005;" horiz-adv-x="321" />
<glyph unicode="&#x2006;" horiz-adv-x="214" />
<glyph unicode="&#x2007;" horiz-adv-x="214" />
<glyph unicode="&#x2008;" horiz-adv-x="160" />
<glyph unicode="&#x2009;" horiz-adv-x="257" />
<glyph unicode="&#x200a;" horiz-adv-x="71" />
<glyph unicode="&#x2010;" horiz-adv-x="544" d="M74 332q38 -6 188 -2.5t221 0.5q-12 -6 -44.5 -38t-39.5 -36q-34 -13 -99 -18.5t-97 -16.5q-10 -3 -24.5 -1t-20.5 9q-16 16 -28.5 31t-28.5 36.5t-27 35.5z" />
<glyph unicode="&#x2011;" horiz-adv-x="544" d="M74 332q38 -6 188 -2.5t221 0.5q-12 -6 -44.5 -38t-39.5 -36q-34 -13 -99 -18.5t-97 -16.5q-10 -3 -24.5 -1t-20.5 9q-16 16 -28.5 31t-28.5 36.5t-27 35.5z" />
<glyph unicode="&#x2012;" horiz-adv-x="544" d="M74 332q38 -6 188 -2.5t221 0.5q-12 -6 -44.5 -38t-39.5 -36q-34 -13 -99 -18.5t-97 -16.5q-10 -3 -24.5 -1t-20.5 9q-16 16 -28.5 31t-28.5 36.5t-27 35.5z" />
<glyph unicode="&#x2013;" horiz-adv-x="833" d="M-57 295q4 0 12 2t12 2q33 0 249.5 4t405 1.5t265.5 -17.5q14 -3 9 -19q-9 -26 -54 -28q-47 -2 -828 -2q-30 0 -53 20.5t-18 36.5z" />
<glyph unicode="&#x2014;" horiz-adv-x="1433" d="M-57 295q4 0 12 2t12 2q24 0 397.5 4t709.5 1.5t413 -17.5q14 -3 9 -19q-9 -26 -54 -28q-47 -2 -1428 -2q-30 0 -53 20.5t-18 36.5z" />
<glyph unicode="&#x2018;" horiz-adv-x="374" d="M102 813q29 74 83 217.5t83 216.5q9 -6 16.5 -14t12 -14.5t8 -17t5 -16t2.5 -18t1 -17v-19v-17.5q-1 -29 -7.5 -83.5t-8.5 -74.5q-8 -59 -26 -83.5t-68 -41.5q-38 -11 -101 -18z" />
<glyph unicode="&#x2019;" horiz-adv-x="374" d="M61 909.5v19v17.5q1 28 8 82.5t9 75.5q8 59 26 83.5t68 41.5q38 11 100 18q-29 -73 -83 -216.5t-83 -217.5q-9 6 -16.5 14t-12 14.5t-8 17t-5 16t-2.5 18t-1 17z" />
<glyph unicode="&#x201c;" horiz-adv-x="602" d="M135 850q24 62 70 184.5t71 184.5q20 -14 29 -37t9.5 -33.5t0.5 -42.5q-1 -24 -7 -71.5t-7 -63.5q-6 -50 -22 -71t-58 -34q-33 -9 -86 -16zM354 868l117 336q28 -37 36 -87.5t2.5 -92t0.5 -88.5q-85 -92 -156 -68z" />
<glyph unicode="&#x201d;" horiz-adv-x="602" d="M92 1118q85 92 156 68l-117 -336q-28 37 -36 87.5t-2.5 92t-0.5 88.5zM287 921.5v14v12.5q1 24 7 71.5t7 63.5q6 50 22 71t58 34q33 9 86 16q-25 -62 -71 -183.5t-70 -184.5q-7 5 -12.5 10.5t-9.5 12t-7 11t-5 13.5t-3 12.5t-1.5 13.5t-0.5 12.5z" />
<glyph unicode="&#x2022;" horiz-adv-x="452" d="M102 346q59 75 125 21q58 -33 111 -80q28 -25 -1.5 -77.5t-103.5 -84.5q-80 70 -96.5 95.5t-29.5 99.5q-3 16 -5 26z" />
<glyph unicode="&#x2026;" horiz-adv-x="1138" d="M107.5 51.5q-11.5 52.5 9.5 81.5q9 11 28.5 31.5t28.5 30.5q13 -12 38.5 -35t43.5 -41t33 -35q27 -33 21.5 -55t-42.5 -43q-69 -35 -118 -6q-31 19 -42.5 71.5zM451 154q14 2 35 5.5t30 4.5q28 5 39 -2q77 -43 104 -109q7 -23 -7.5 -44t-41.5 -29q-36 -9 -73 7t-50 50 q-8 21 -19.5 61t-16.5 56zM809 94q7 9 18.5 31t24 32.5t33.5 12.5q12 1 22.5 -0.5t21.5 -6.5t17.5 -8.5t20 -12t18.5 -11.5q51 -28 51 -74q0 -21 -30.5 -47.5t-57.5 -29.5q-56 -3 -84 38q-22 28 -55 76z" />
<glyph unicode="&#x202f;" horiz-adv-x="257" />
<glyph unicode="&#x2039;" horiz-adv-x="555" d="M102 240q-5 42 33 67q69 42 113 107.5t80 156.5q9 18 -4 62q-1 6 -5 13t-11.5 19t-12.5 21q91 -26 108 -33q39 -18 57.5 -65.5t10.5 -96.5t-39 -73q-58 -45 -100 -84q-19 -16 -50.5 -47.5t-39.5 -38.5q-35 -35 4 -74q37 -35 106 -104q45 -52 58 -72q5 -7 3.5 -21 t-7.5 -20q-8 -8 -27 -8q-10 0 -14 2q-86 38 -142 115q-11 16 -16.5 23t-18.5 16.5t-28 13.5q-10 1 -20 11.5t-15 21.5q-12 35 -23 88z" />
<glyph unicode="&#x203a;" horiz-adv-x="555" d="M84 491q-8 49 10.5 96.5t57.5 65.5q17 7 108 33q-5 -9 -12.5 -21t-11.5 -19t-5 -13q-13 -44 -4 -62q36 -91 80 -156.5t113 -107.5q38 -25 33 -67q-11 -53 -23 -88q-5 -11 -15 -21.5t-20 -11.5q-15 -4 -28 -13.5t-18.5 -16.5t-16.5 -23q-56 -77 -142 -115q-4 -2 -14 -2 q-18 0 -26 8q-6 6 -7.5 19.5t2.5 21.5q13 20 58 72q69 69 106 104q39 39 4 74q-8 7 -39.5 38.5t-50.5 47.5q-42 39 -100 84q-31 24 -39 73z" />
<glyph unicode="&#x205f;" horiz-adv-x="321" />
<glyph unicode="&#x20ac;" horiz-adv-x="978" d="M-12 629q3 1 6.5 3.5t5.5 2.5q52 -18 111 -23t104 -2t104 0q20 -1 29 8t12 29q26 150 103 281q18 31 46.5 56t71.5 52.5t60 40.5q16 -13 72.5 -56.5t83.5 -68.5q40 -34 63 -90.5t12 -93.5q-6 -24 -17 -27t-40 11l-12 6q-44 35 -84 41t-64 -4.5t-55 -34.5 q-70 -54 -82 -142q74 -24 158 -53q7 -3 17 -13.5t12 -16.5q0 -12 -19 -31q-3 -2 -31 -2l-61 6q-71 8 -85 -7.5t-5 -90.5q37 -6 63 -9q93 -15 111 -20q10 -3 25.5 -16.5t15.5 -18.5q-3 -19 -27 -35q-9 -5 -33 0l-63 15q-66 17 -79.5 6.5t3.5 -70.5q23 -99 60 -176 q27 -59 83 -94.5t111 -30.5q5 1 57 -4q-61 -64 -180 -8q-227 114 -276 325q-2 7 -9 23t-10 25q-63 -5 -98.5 -30.5t-42.5 -82.5q-134 112 -135 113q99 57 192 75q63 12 72 29t-10 92q-117 19 -213 -55z" />
<glyph unicode="&#x2122;" horiz-adv-x="913" d="M10 995l15 11q24 -8 52.5 -11t46.5 -2t53 4t48 4q20 1 112 11t142 10q17 1 34 -4t45 -17t34 -14q13 -7 8 -33q-2 -5 -11 -9t-16 -3q-25 0 -70 3.5t-59 4.5q-4 0 -77 -10q32 -71 24 -207.5t-47 -197.5q-43 2 -47 57q-4 60 -8 176q0 7 2.5 39.5t-0.5 38.5q-2 19 -8.5 40 t-12.5 21q-41 3 -84 -18q-7 -4 -12.5 -11.5t-12 -20t-11.5 -19.5q-103 36 -140 157zM465 870q95 -74 108 -86q39 -36 80 -4q1 0 3 1t3 1q63 38 68.5 68.5t-41.5 89.5l-4 16q45 33 92 -2q60 -35 57 -88l-36 -356q-3 -18 -6 -28.5t-15 -21.5t-33 -16q-5 120 -18 289 q-5 -7 -14 -16.5t-13.5 -16t-7.5 -12.5q-19 -31 -32.5 -35t-45.5 13l-51 28q-13 -37 -39 -116q-5 6 -12 12.5t-10 10t-4 7.5q-13 39 -11 58q3 30 0.5 61t-9 74.5t-9.5 68.5z" />
<glyph unicode="&#x25fc;" horiz-adv-x="993" d="M0 0v993h993v-993h-993z" />
</font>
</defs>
</svg>
